<svg width="16" height="17" viewBox="0 0 16 17" fill="none" xmlns="http://www.w3.org/2000/svg">
    <path d="M8 4.90625C6 4.90625 4.40625 6.53125 4.40625 8.5C4.40625 10.5 6 12.0938 8 12.0938C9.96875 12.0938 11.5938 10.5 11.5938 8.5C11.5938 6.53125 9.96875 4.90625 8 4.90625ZM8 10.8438C6.71875 10.8438 5.65625 9.8125 5.65625 8.5C5.65625 7.21875 6.6875 6.1875 8 6.1875C9.28125 6.1875 10.3125 7.21875 10.3125 8.5C10.3125 9.8125 9.28125 10.8438 8 10.8438ZM12.5625 4.78125C12.5625 4.3125 12.1875 3.9375 11.7188 3.9375C11.25 3.9375 10.875 4.3125 10.875 4.78125C10.875 5.25 11.25 5.625 11.7188 5.625C12.1875 5.625 12.5625 5.25 12.5625 4.78125ZM14.9375 5.625C14.875 4.5 14.625 3.5 13.8125 2.6875C13 1.875 12 1.625 10.875 1.5625C9.71875 1.5 6.25 1.5 5.09375 1.5625C3.96875 1.625 3 1.875 2.15625 2.6875C1.34375 3.5 1.09375 4.5 1.03125 5.625C0.96875 6.78125 0.96875 10.25 1.03125 11.4062C1.09375 12.5312 1.34375 13.5 2.15625 14.3438C3 15.1562 3.96875 15.4062 5.09375 15.4688C6.25 15.5312 9.71875 15.5312 10.875 15.4688C12 15.4062 13 15.1562 13.8125 14.3438C14.625 13.5 14.875 12.5312 14.9375 11.4062C15 10.25 15 6.78125 14.9375 5.625ZM13.4375 12.625C13.2188 13.25 12.7188 13.7188 12.125 13.9688C11.1875 14.3438 9 14.25 8 14.25C6.96875 14.25 4.78125 14.3438 3.875 13.9688C3.25 13.7188 2.78125 13.25 2.53125 12.625C2.15625 11.7188 2.25 9.53125 2.25 8.5C2.25 7.5 2.15625 5.3125 2.53125 4.375C2.78125 3.78125 3.25 3.3125 3.875 3.0625C4.78125 2.6875 6.96875 2.78125 8 2.78125C9 2.78125 11.1875 2.6875 12.125 3.0625C12.7188 3.28125 13.1875 3.78125 13.4375 4.375C13.8125 5.3125 13.7188 7.5 13.7188 8.5C13.7188 9.53125 13.8125 11.7188 13.4375 12.625Z" fill="#434960"/>
</svg>
