<svg width="86" height="83" viewBox="0 0 86 83" fill="none" xmlns="http://www.w3.org/2000/svg"><rect x="1.49414" y="4.43494" width="65.6329" height="65.6329" rx="12" transform="rotate(-3 1.49414 4.43494)" fill="white"/><rect x="1.49414" y="4.43494" width="65.6329" height="65.6329" rx="12" transform="rotate(-3 1.49414 4.43494)" stroke="#CED0D9" stroke-width="2.5003"/><path d="M54.7434 60.4452C54.7434 68.7888 59.7264 75.931 66.5096 77.1715L66.1136 78.4257L65.7119 79.6978L67.0411 79.5848L71.5286 79.2031L73.2178 79.0594L72.1443 77.7473L71.5197 76.9839C77.8707 75.3291 82.445 68.4326 82.445 60.4452C82.445 51.2906 76.4134 43.5316 68.5956 43.5316C60.7779 43.5316 54.7434 51.2904 54.7434 60.4452Z" fill="#FE544F" stroke="white" stroke-width="1.78661"/><path fill-rule="evenodd" clip-rule="evenodd" d="M71.685 50.0573L72.3086 56.491L78.7693 56.6766L74.0957 61.0221L77.787 66.3611L71.5684 65.1921L69.6832 71.4108L66.8207 65.842L61.041 68.4904L63.2644 62.5204L57.6274 59.6772L63.6616 57.7366L61.9965 51.7922L67.7053 55.0468L71.685 50.0573Z" fill="white"/><path d="M35.6888 25.5681C31.0072 25.8135 27.4759 29.8128 27.7174 34.4213C27.9628 39.1029 31.8889 42.6381 36.5706 42.3928C41.1791 42.1512 44.7874 38.2212 44.542 33.5396C44.3005 28.9311 40.2973 25.3266 35.6888 25.5681ZM36.4172 39.4667C33.4181 39.6239 30.8044 37.3403 30.6434 34.268C30.4862 31.2688 32.7737 28.7283 35.846 28.5673C38.8452 28.4101 41.3857 30.6976 41.5429 33.6967C41.7039 36.7691 39.4164 39.3095 36.4172 39.4667ZM46.3535 24.7158C46.296 23.6185 45.3722 22.7867 44.2749 22.8443C43.1777 22.9018 42.3459 23.8256 42.4034 24.9228C42.4609 26.0201 43.3847 26.8519 44.4819 26.7944C45.5792 26.7369 46.411 25.8131 46.3535 24.7158ZM52.0164 26.3995C51.7321 23.7738 51.0242 21.4636 49.0227 19.6614C47.0211 17.8591 44.6496 17.3966 42.0085 17.3883C39.2943 17.3839 31.1745 17.8094 28.4756 18.0975C25.8499 18.3819 23.6129 19.0859 21.7375 21.0913C19.9353 23.0929 19.4727 25.4644 19.4644 28.1055C19.46 30.8197 19.8855 38.9394 20.1737 41.6383C20.458 44.2641 21.162 46.5011 23.1674 48.3765C25.2422 50.1749 27.5405 50.6413 30.1816 50.6495C32.8959 50.654 41.0156 50.2285 43.7145 49.9403C46.3402 49.656 48.6504 48.9481 50.4526 46.9465C52.251 44.8718 52.7174 42.5735 52.7257 39.9324C52.7301 37.2181 52.3046 29.0984 52.0164 26.3995ZM49.364 42.9693C48.9286 44.4591 47.8157 45.6177 46.4565 46.2757C44.308 47.2686 39.1759 47.3175 36.8351 47.4401C34.4211 47.5667 29.3121 48.0545 27.1447 47.2878C25.651 46.7793 24.4963 45.7395 23.8344 44.3072C22.8454 42.2318 22.7965 37.0998 22.67 34.6858C22.5473 32.345 22.0595 27.236 22.8223 24.9955C23.3347 23.5749 24.3744 22.4202 25.8068 21.7583C27.8821 20.7693 33.0142 20.7204 35.4282 20.5939C37.769 20.4712 42.878 19.9834 45.1185 20.7462C46.5352 21.1854 47.6938 22.2983 48.3519 23.6575C49.3447 25.806 49.3936 30.9381 49.5163 33.2789C49.6428 35.6928 50.1306 40.8019 49.364 42.9693Z" fill="url(#paint0_linear_3281_44284)"/><defs><linearGradient id="paint0_linear_3281_44284" x1="33.8101" y1="80.5555" x2="99.1424" y2="6.47942" gradientUnits="userSpaceOnUse"><stop stop-color="white"/><stop offset="0.147864" stop-color="#F6640E"/><stop offset="0.443974" stop-color="#BA03A7"/><stop offset="0.733337" stop-color="#6A01B9"/><stop offset="1" stop-color="#6B01B9"/></linearGradient></defs></svg>