<svg width="263" height="200" viewBox="0 0 263 200" fill="none" xmlns="http://www.w3.org/2000/svg"><g clip-path="url(#clip0_2180_29052)"><rect width="262.5" height="200" fill="#F3F4F5"/><g filter="url(#filter0_dd_2180_29052)"><g clip-path="url(#clip1_2180_29052)"><rect x="34.5" y="67" width="63.6871" height="86.0335" rx="0.893854" fill="white"/><g clip-path="url(#clip2_2180_29052)"><rect width="63.6871" height="63" transform="translate(34.5 67)" fill="#8C8F9A"/><circle opacity="0.5" cx="30.6875" cy="139" r="32" fill="#D0D1D7"/></g><rect x="38.5" y="134" width="55.6871" height="3" rx="0.5" fill="#D0D1D7"/><path d="M38.5 140.5C38.5 140.224 38.7239 140 39 140H71C71.2761 140 71.5 140.224 71.5 140.5V142.5C71.5 142.776 71.2761 143 71 143H39C38.7239 143 38.5 142.776 38.5 142.5V140.5Z" fill="#D0D1D7"/><g clip-path="url(#clip3_2180_29052)"><path d="M40.959 146.128V146.15C41.2753 146.15 41.5325 146.407 41.5325 146.724C41.5325 147.063 41.3308 147.391 41.0705 147.674C40.8157 147.952 40.5078 148.183 40.2886 148.338C40.0694 148.183 39.7615 147.952 39.5067 147.674C39.2463 147.391 39.0446 147.063 39.0446 146.724C39.0446 146.407 39.3019 146.15 39.6182 146.15V146.128L39.6181 146.15C39.7103 146.15 39.801 146.173 39.8826 146.215C39.9643 146.258 40.0346 146.319 40.0875 146.395L40.0875 146.395L40.2703 146.655L40.2886 146.681L40.3069 146.655L40.4897 146.395L40.4897 146.395C40.5425 146.319 40.6128 146.258 40.6945 146.215C40.7761 146.173 40.8669 146.15 40.959 146.15L40.959 146.128ZM40.959 146.128C41.2876 146.128 41.5549 146.395 41.5549 146.724C41.5549 147.419 40.7291 148.056 40.2886 148.366L40.4714 146.382C40.5263 146.304 40.5993 146.24 40.6841 146.195C40.769 146.151 40.8633 146.128 40.959 146.128ZM40.2886 148.665L40.2759 148.656C40.0151 148.477 39.6409 148.21 39.3319 147.881C39.0232 147.552 38.7765 147.158 38.7765 146.724C38.7765 146.5 38.8652 146.286 39.023 146.128C39.1809 145.971 39.395 145.882 39.6182 145.882L40.2886 148.665ZM40.2886 148.665L40.3013 148.656M40.2886 148.665L40.3013 148.656M40.3013 148.656C40.5621 148.477 40.9362 148.21 41.2453 147.881C41.554 147.552 41.8007 147.158 41.8007 146.724C41.8007 146.613 41.7789 146.504 41.7366 146.402C41.6943 146.299 41.6323 146.207 41.5542 146.128C41.476 146.05 41.3832 145.988 41.2811 145.946C41.179 145.904 41.0695 145.882 40.959 145.882C40.8238 145.882 40.6906 145.915 40.5707 145.977M40.3013 148.656L40.5707 145.977M40.5707 145.977C40.46 146.035 40.3637 146.116 40.2886 146.216M40.5707 145.977L40.2886 146.216M40.2886 146.216C40.2135 146.116 40.1172 146.035 40.0065 145.977C39.8866 145.915 39.7534 145.882 39.6182 145.882L40.2886 146.216Z" fill="#434960" stroke="#434960" stroke-width="0.0446927"/></g><g clip-path="url(#clip4_2180_29052)"><path d="M48.3318 145.755C48.1362 145.755 47.9425 145.793 47.7617 145.868C47.581 145.943 47.4168 146.053 47.2784 146.191C46.999 146.471 46.8421 146.85 46.8421 147.245C46.8408 147.589 46.9599 147.922 47.1788 148.188L46.8808 148.486C46.8602 148.507 46.8461 148.533 46.8406 148.562C46.835 148.591 46.8381 148.621 46.8495 148.648C46.8619 148.675 46.882 148.697 46.9072 148.713C46.9324 148.728 46.9616 148.736 46.9911 148.734H48.3318C48.727 148.734 49.1059 148.577 49.3853 148.298C49.6646 148.019 49.8216 147.64 49.8216 147.245C49.8216 146.85 49.6646 146.471 49.3853 146.191C49.1059 145.912 48.727 145.755 48.3318 145.755ZM48.3318 148.436H47.3501L47.4886 148.298C47.5164 148.27 47.532 148.232 47.532 148.193C47.532 148.154 47.5164 148.116 47.4886 148.088C47.2936 147.893 47.1721 147.637 47.1449 147.362C47.1177 147.088 47.1865 146.812 47.3396 146.583C47.4926 146.354 47.7204 146.185 47.9842 146.104C48.248 146.024 48.5315 146.038 48.7863 146.143C49.0411 146.249 49.2515 146.439 49.3816 146.682C49.5117 146.925 49.5536 147.206 49.5 147.476C49.4464 147.747 49.3007 147.99 49.0877 148.165C48.8747 148.34 48.6076 148.436 48.3318 148.436Z" fill="#434960"/></g></g></g><g filter="url(#filter1_dd_2180_29052)"><g clip-path="url(#clip5_2180_29052)"><rect x="34.5" y="156.386" width="63.6871" height="87.581" rx="0.893854" fill="white"/><rect width="63.6871" height="63" transform="translate(34.5 156.386)" fill="#8C8F9A"/></g><rect x="34.6117" y="156.497" width="63.4636" height="87.3575" rx="0.782122" stroke="#F3F4F5" stroke-width="0.223464"/></g><g filter="url(#filter2_dd_2180_29052)"><g clip-path="url(#clip6_2180_29052)"><rect x="102.656" y="67.001" width="63.6871" height="86.0335" rx="0.893854" fill="white"/><rect width="63.6871" height="63" transform="translate(102.656 67.001)" fill="#8C8F9A"/><rect x="126.119" y="88.2305" width="16.9832" height="16.9832" rx="8.49161" fill="white"/><path d="M132.6 94.6262C132.6 94.4601 132.774 94.3521 132.923 94.4263L137.786 96.8581C137.951 96.9404 137.951 97.1755 137.786 97.2578L132.923 99.6895C132.774 99.7638 132.6 99.6558 132.6 99.4897V94.6262Z" fill="black"/><rect x="106.656" y="134.001" width="55.6871" height="3" rx="0.5" fill="#D0D1D7"/><path d="M106.656 140.501C106.656 140.225 106.88 140.001 107.156 140.001H139.156C139.432 140.001 139.656 140.225 139.656 140.501V142.501C139.656 142.777 139.432 143.001 139.156 143.001H107.156C106.88 143.001 106.656 142.777 106.656 142.501V140.501Z" fill="#D0D1D7"/><g clip-path="url(#clip7_2180_29052)"><path d="M109.115 146.129V146.151C109.432 146.151 109.689 146.408 109.689 146.725C109.689 147.064 109.487 147.392 109.227 147.675C108.972 147.953 108.664 148.184 108.445 148.339C108.226 148.184 107.918 147.953 107.663 147.675C107.403 147.392 107.201 147.064 107.201 146.725C107.201 146.408 107.458 146.151 107.774 146.151V146.129L107.774 146.151C107.867 146.151 107.957 146.174 108.039 146.216C108.121 146.259 108.191 146.32 108.244 146.396L108.244 146.396L108.427 146.656L108.445 146.682L108.463 146.656L108.646 146.396L108.646 146.396C108.699 146.32 108.769 146.259 108.851 146.216C108.932 146.174 109.023 146.151 109.115 146.151L109.115 146.129ZM109.115 146.129C109.444 146.129 109.711 146.396 109.711 146.725C109.711 147.42 108.885 148.056 108.445 148.367L108.628 146.383C108.683 146.305 108.756 146.241 108.84 146.196C108.925 146.152 109.02 146.129 109.115 146.129ZM108.445 148.666L108.432 148.657C108.171 148.478 107.797 148.211 107.488 147.882C107.179 147.553 106.933 147.159 106.933 146.725C106.933 146.501 107.021 146.287 107.179 146.129C107.337 145.972 107.551 145.883 107.774 145.883L108.445 148.666ZM108.445 148.666L108.458 148.657M108.445 148.666L108.458 148.657M108.458 148.657C108.718 148.478 109.092 148.211 109.402 147.882C109.71 147.553 109.957 147.159 109.957 146.725C109.957 146.614 109.935 146.505 109.893 146.403C109.851 146.3 109.789 146.208 109.71 146.129C109.632 146.051 109.539 145.989 109.437 145.947C109.335 145.905 109.226 145.883 109.115 145.883C108.98 145.883 108.847 145.916 108.727 145.978M108.458 148.657L108.727 145.978M108.727 145.978C108.616 146.036 108.52 146.117 108.445 146.216M108.727 145.978L108.445 146.216M108.445 146.216C108.37 146.117 108.273 146.036 108.163 145.978C108.043 145.916 107.91 145.883 107.774 145.883L108.445 146.216Z" fill="#434960" stroke="#434960" stroke-width="0.0446927"/></g><g clip-path="url(#clip8_2180_29052)"><path d="M116.488 145.756C116.292 145.756 116.099 145.794 115.918 145.869C115.737 145.944 115.573 146.054 115.435 146.192C115.155 146.472 114.998 146.851 114.998 147.246C114.997 147.59 115.116 147.923 115.335 148.189L115.037 148.487C115.016 148.508 115.002 148.534 114.997 148.563C114.991 148.592 114.994 148.622 115.006 148.649C115.018 148.676 115.038 148.698 115.063 148.714C115.089 148.729 115.118 148.737 115.147 148.735H116.488C116.883 148.735 117.262 148.578 117.542 148.299C117.821 148.02 117.978 147.641 117.978 147.246C117.978 146.851 117.821 146.472 117.542 146.192C117.262 145.913 116.883 145.756 116.488 145.756ZM116.488 148.437H115.506L115.645 148.299C115.673 148.271 115.688 148.233 115.688 148.194C115.688 148.154 115.673 148.117 115.645 148.089C115.45 147.894 115.328 147.638 115.301 147.363C115.274 147.089 115.343 146.813 115.496 146.584C115.649 146.355 115.877 146.186 116.14 146.105C116.404 146.025 116.688 146.039 116.943 146.144C117.197 146.25 117.408 146.44 117.538 146.683C117.668 146.926 117.71 147.207 117.656 147.477C117.603 147.748 117.457 147.991 117.244 148.166C117.031 148.341 116.764 148.437 116.488 148.437Z" fill="#434960"/></g></g></g><g filter="url(#filter3_dd_2180_29052)"><g clip-path="url(#clip9_2180_29052)"><rect x="102.656" y="156.387" width="63.6871" height="87.581" rx="0.893854" fill="white"/><g clip-path="url(#clip10_2180_29052)"><rect width="63.6871" height="63" transform="translate(102.656 156.387)" fill="#8C8F9A"/><rect opacity="0.5" x="115" y="206.234" width="47" height="47" transform="rotate(-45 115 206.234)" fill="#D0D1D7"/></g></g><rect x="102.768" y="156.498" width="63.4636" height="87.3575" rx="0.782122" stroke="#F3F4F5" stroke-width="0.223464"/></g><g filter="url(#filter4_dd_2180_29052)"><g clip-path="url(#clip11_2180_29052)"><rect x="170.812" y="67.001" width="64" height="86.0335" rx="0.893854" fill="white"/><rect width="64" height="63" transform="translate(170.812 67.001)" fill="#8C8F9A"/><circle opacity="0.5" cx="231.5" cy="68.5" r="37.5" fill="#D0D1D7"/><rect x="174.812" y="134.001" width="55.6871" height="3" rx="0.5" fill="#D0D1D7"/><path d="M174.812 140.501C174.812 140.225 175.036 140.001 175.312 140.001H207.312C207.589 140.001 207.812 140.225 207.812 140.501V142.501C207.812 142.777 207.589 143.001 207.312 143.001H175.312C175.036 143.001 174.812 142.777 174.812 142.501V140.501Z" fill="#D0D1D7"/><g clip-path="url(#clip12_2180_29052)"><path d="M177.271 146.129V146.151C177.588 146.151 177.845 146.408 177.845 146.725C177.845 147.064 177.643 147.392 177.383 147.675C177.128 147.953 176.82 148.184 176.601 148.339C176.382 148.184 176.074 147.953 175.819 147.675C175.559 147.392 175.357 147.064 175.357 146.725C175.357 146.408 175.614 146.151 175.931 146.151V146.129L175.931 146.151C176.023 146.151 176.113 146.174 176.195 146.216C176.277 146.259 176.347 146.32 176.4 146.396L176.4 146.396L176.583 146.656L176.601 146.682L176.619 146.656L176.802 146.396L176.802 146.396C176.855 146.32 176.925 146.259 177.007 146.216C177.089 146.174 177.179 146.151 177.272 146.151L177.271 146.129ZM177.271 146.129C177.6 146.129 177.867 146.396 177.867 146.725C177.867 147.42 177.042 148.056 176.601 148.367L176.784 146.383C176.839 146.305 176.912 146.241 176.997 146.196C177.081 146.152 177.176 146.129 177.271 146.129ZM176.601 148.666L176.588 148.657C176.328 148.478 175.953 148.211 175.644 147.882C175.336 147.553 175.089 147.159 175.089 146.725C175.089 146.501 175.178 146.287 175.336 146.129C175.493 145.972 175.707 145.883 175.931 145.883L176.601 148.666ZM176.601 148.666L176.614 148.657M176.601 148.666L176.614 148.657M176.614 148.657C176.875 148.478 177.249 148.211 177.558 147.882C177.866 147.553 178.113 147.159 178.113 146.725C178.113 146.614 178.091 146.505 178.049 146.403C178.007 146.3 177.945 146.208 177.867 146.129C177.788 146.051 177.696 145.989 177.594 145.947C177.491 145.905 177.382 145.883 177.271 145.883C177.136 145.883 177.003 145.916 176.883 145.978M176.614 148.657L176.883 145.978M176.883 145.978C176.773 146.036 176.676 146.117 176.601 146.216M176.883 145.978L176.601 146.216M176.601 146.216C176.526 146.117 176.43 146.036 176.319 145.978C176.199 145.916 176.066 145.883 175.931 145.883L176.601 146.216Z" fill="#434960" stroke="#434960" stroke-width="0.0446927"/></g><g clip-path="url(#clip13_2180_29052)"><path d="M184.644 145.756C184.449 145.756 184.255 145.794 184.074 145.869C183.893 145.944 183.729 146.054 183.591 146.192C183.312 146.472 183.155 146.851 183.155 147.246C183.153 147.59 183.272 147.923 183.491 148.189L183.193 148.487C183.173 148.508 183.159 148.534 183.153 148.563C183.148 148.592 183.151 148.622 183.162 148.649C183.174 148.676 183.194 148.698 183.22 148.714C183.245 148.729 183.274 148.737 183.304 148.735H184.644C185.039 148.735 185.418 148.578 185.698 148.299C185.977 148.02 186.134 147.641 186.134 147.246C186.134 146.851 185.977 146.472 185.698 146.192C185.418 145.913 185.039 145.756 184.644 145.756ZM184.644 148.437H183.663L183.801 148.299C183.829 148.271 183.844 148.233 183.844 148.194C183.844 148.154 183.829 148.117 183.801 148.089C183.606 147.894 183.485 147.638 183.457 147.363C183.43 147.089 183.499 146.813 183.652 146.584C183.805 146.355 184.033 146.186 184.297 146.105C184.561 146.025 184.844 146.039 185.099 146.144C185.354 146.25 185.564 146.44 185.694 146.683C185.824 146.926 185.866 147.207 185.812 147.477C185.759 147.748 185.613 147.991 185.4 148.166C185.187 148.341 184.92 148.437 184.644 148.437Z" fill="#434960"/></g></g></g><g filter="url(#filter5_dd_2180_29052)"><g clip-path="url(#clip14_2180_29052)"><rect x="170.812" y="156.387" width="63.6871" height="87.581" rx="0.893854" fill="white"/><rect width="63.6871" height="63" transform="translate(170.812 156.387)" fill="#8C8F9A"/></g><rect x="170.924" y="156.498" width="63.4636" height="87.3575" rx="0.782122" stroke="#F3F4F5" stroke-width="0.223464"/></g><circle cx="45.9821" cy="37.9821" r="10.9821" fill="#8C8F9A"/><path d="M65.2012 29.146C65.2012 28.9114 65.2782 28.717 65.4322 28.563C65.5862 28.409 65.7805 28.332 66.0152 28.332H72.6592C72.8938 28.332 73.0882 28.409 73.2422 28.563C73.3962 28.717 73.4732 28.9114 73.4732 29.146V31.818C73.4732 32.0527 73.3962 32.247 73.2422 32.401C73.0882 32.555 72.8938 32.632 72.6592 32.632H66.0152C65.7805 32.632 65.5862 32.555 65.4322 32.401C65.2782 32.247 65.2012 32.0527 65.2012 31.818V29.146Z" fill="#8C8F9A"/><path d="M71.4961 29.146C71.4961 28.9114 71.5731 28.717 71.7271 28.563C71.8811 28.409 72.0754 28.332 72.3101 28.332H78.9541C79.1888 28.332 79.3831 28.409 79.5371 28.563C79.6911 28.717 79.7681 28.9114 79.7681 29.146V31.818C79.7681 32.0527 79.6911 32.247 79.5371 32.401C79.3831 32.555 79.1888 32.632 78.9541 32.632H72.3101C72.0754 32.632 71.8811 32.555 71.7271 32.401C71.5731 32.247 71.4961 32.0527 71.4961 31.818V29.146Z" fill="#8C8F9A"/><path d="M77.791 29.146C77.791 28.9114 77.868 28.717 78.022 28.563C78.176 28.409 78.3703 28.332 78.605 28.332H82.249C82.4837 28.332 82.678 28.409 82.832 28.563C82.986 28.717 83.063 28.9114 83.063 29.146V31.818C83.063 32.0527 82.986 32.247 82.832 32.401C82.678 32.555 82.4837 32.632 82.249 32.632H78.605C78.3703 32.632 78.176 32.555 78.022 32.401C77.868 32.247 77.791 32.0527 77.791 31.818V29.146Z" fill="#8C8F9A"/><path d="M81.0859 29.146C81.0859 28.9114 81.1629 28.717 81.3169 28.563C81.4709 28.409 81.6653 28.332 81.8999 28.332H88.5439C88.7786 28.332 88.9729 28.409 89.1269 28.563C89.2809 28.717 89.3579 28.9114 89.3579 29.146V31.818C89.3579 32.0527 89.2809 32.247 89.1269 32.401C88.9729 32.555 88.7786 32.632 88.5439 32.632H81.8999C81.6653 32.632 81.4709 32.555 81.3169 32.401C81.1629 32.247 81.0859 32.0527 81.0859 31.818V29.146Z" fill="#8C8F9A"/><path d="M87.3809 29.157C87.3809 28.9224 87.4579 28.728 87.6119 28.574C87.7659 28.42 87.9602 28.343 88.1949 28.343H91.6929C91.9275 28.343 92.1219 28.42 92.2759 28.574C92.4299 28.728 92.5069 28.9224 92.5069 29.157V31.818C92.5069 32.0527 92.4299 32.247 92.2759 32.401C92.1219 32.555 91.9275 32.632 91.6929 32.632H88.1949C87.9602 32.632 87.7659 32.555 87.6119 32.401C87.4579 32.247 87.3809 32.0527 87.3809 31.818V29.157Z" fill="#8C8F9A"/><path d="M90.5283 29.146C90.5283 28.9114 90.6053 28.717 90.7593 28.563C90.9133 28.409 91.1077 28.332 91.3423 28.332H97.9863C98.221 28.332 98.4153 28.409 98.5693 28.563C98.7233 28.717 98.8003 28.9114 98.8003 29.146V31.818C98.8003 32.0527 98.7233 32.247 98.5693 32.401C98.4153 32.555 98.221 32.632 97.9863 32.632H91.3423C91.1077 32.632 90.9133 32.555 90.7593 32.401C90.6053 32.247 90.5283 32.0527 90.5283 31.818V29.146Z" fill="#8C8F9A"/><path d="M65.2012 37.3534C65.2012 37.1454 65.2784 36.9731 65.433 36.8366C65.5876 36.7001 65.7826 36.6318 66.0181 36.6318H72.6859C72.9214 36.6318 73.1164 36.7001 73.271 36.8366C73.4255 36.9731 73.5028 37.1454 73.5028 37.3534V39.8448C73.5028 40.0528 73.4255 40.2251 73.271 40.3616C73.1164 40.4981 72.9214 40.5663 72.6859 40.5663H66.0181C65.7826 40.5663 65.5876 40.4981 65.433 40.3616C65.2784 40.2251 65.2012 40.0528 65.2012 39.8448V37.3534Z" fill="#D0D1D7"/><path d="M71.5186 37.3534C71.5186 37.1454 71.5959 36.9731 71.7505 36.8366C71.905 36.7001 72.1 36.6318 72.3355 36.6318H79.0033C79.2388 36.6318 79.4339 36.7001 79.5884 36.8366C79.743 36.9731 79.8202 37.1454 79.8202 37.3534V39.8448C79.8202 40.0528 79.743 40.2251 79.5884 40.3616C79.4339 40.4981 79.2388 40.5663 79.0033 40.5663H72.3355C72.1 40.5663 71.905 40.4981 71.7505 40.3616C71.5959 40.2251 71.5186 40.0528 71.5186 39.8448V37.3534Z" fill="#D0D1D7"/><path d="M77.8361 37.3534C77.8361 37.1454 77.9134 36.9731 78.0679 36.8366C78.2225 36.7001 78.4175 36.6318 78.653 36.6318H85.3208C85.5563 36.6318 85.7513 36.7001 85.9059 36.8366C86.0604 36.9731 86.1377 37.1454 86.1377 37.3534V39.8448C86.1377 40.0528 86.0604 40.2251 85.9059 40.3616C85.7513 40.4981 85.5563 40.5663 85.3208 40.5663H78.653C78.4175 40.5663 78.2225 40.4981 78.0679 40.3616C77.9134 40.2251 77.8361 40.0528 77.8361 39.8448V37.3534Z" fill="#D0D1D7"/><path d="M84.1535 37.3534C84.1535 37.1454 84.2308 36.9731 84.3854 36.8366C84.5399 36.7001 84.735 36.6318 84.9705 36.6318H91.6382C91.8738 36.6318 92.0688 36.7001 92.2233 36.8366C92.3779 36.9731 92.4552 37.1454 92.4552 37.3534V39.8448C92.4552 40.0528 92.3779 40.2251 92.2233 40.3616C92.0688 40.4981 91.8738 40.5663 91.6382 40.5663H84.9705C84.735 40.5663 84.5399 40.4981 84.3854 40.3616C84.2308 40.2251 84.1535 40.0528 84.1535 39.8448V37.3534Z" fill="#D0D1D7"/><path d="M90.471 37.3631C90.471 37.1551 90.5483 36.9829 90.7028 36.8463C90.8574 36.7098 91.0524 36.6416 91.2879 36.6416H94.7984C95.0339 36.6416 95.229 36.7098 95.3835 36.8463C95.5381 36.9829 95.6154 37.1551 95.6154 37.3631V39.8448C95.6154 40.0528 95.5381 40.2251 95.3835 40.3616C95.229 40.4981 95.0339 40.5663 94.7984 40.5663H91.2879C91.0524 40.5663 90.8574 40.4981 90.7028 40.3616C90.5483 40.2251 90.471 40.0528 90.471 39.8448V37.3631Z" fill="#D0D1D7"/><path d="M93.6297 37.3631C93.6297 37.1551 93.707 36.9829 93.8616 36.8463C94.0161 36.7098 94.2111 36.6416 94.4466 36.6416H97.9572C98.1927 36.6416 98.3877 36.7098 98.5423 36.8463C98.6968 36.9829 98.7741 37.1551 98.7741 37.3631V39.8448C98.7741 40.0528 98.6968 40.2251 98.5423 40.3616C98.3877 40.4981 98.1927 40.5663 97.9572 40.5663H94.4466C94.2111 40.5663 94.0161 40.4981 93.8616 40.3616C93.707 40.2251 93.6297 40.0528 93.6297 39.8448V37.3631Z" fill="#D0D1D7"/><path d="M96.7885 37.3534C96.7885 37.1454 96.8657 36.9731 97.0203 36.8366C97.1748 36.7001 97.3699 36.6318 97.6054 36.6318H104.273C104.509 36.6318 104.704 36.7001 104.858 36.8366C105.013 36.9731 105.09 37.1454 105.09 37.3534V39.8448C105.09 40.0528 105.013 40.2251 104.858 40.3616C104.704 40.4981 104.509 40.5663 104.273 40.5663H97.6054C97.3699 40.5663 97.1748 40.4981 97.0203 40.3616C96.8657 40.2251 96.7885 40.0528 96.7885 39.8448V37.3534Z" fill="#D0D1D7"/><path d="M103.106 37.3631C103.106 37.1551 103.183 36.9829 103.338 36.8463C103.492 36.7098 103.687 36.6416 103.923 36.6416H107.433C107.669 36.6416 107.864 36.7098 108.018 36.8463C108.173 36.9829 108.25 37.1551 108.25 37.3631V39.8448C108.25 40.0528 108.173 40.2251 108.018 40.3616C107.864 40.4981 107.669 40.5663 107.433 40.5663H103.923C103.687 40.5663 103.492 40.4981 103.338 40.3616C103.183 40.2251 103.106 40.0528 103.106 39.8448V37.3631Z" fill="#D0D1D7"/><path d="M106.265 37.3534C106.265 37.1454 106.342 36.9731 106.496 36.8366C106.651 36.7001 106.846 36.6318 107.082 36.6318H113.749C113.985 36.6318 114.18 36.7001 114.334 36.8366C114.489 36.9731 114.566 37.1454 114.566 37.3534V39.8448C114.566 40.0528 114.489 40.2251 114.334 40.3616C114.18 40.4981 113.985 40.5663 113.749 40.5663H107.082C106.846 40.5663 106.651 40.4981 106.496 40.3616C106.342 40.2251 106.265 40.0528 106.265 39.8448V37.3534Z" fill="#D0D1D7"/><path d="M112.582 37.3534C112.582 37.1454 112.659 36.9731 112.814 36.8366C112.968 36.7001 113.164 36.6318 113.399 36.6318H120.067C120.302 36.6318 120.497 36.7001 120.652 36.8366C120.806 36.9731 120.884 37.1454 120.884 37.3534V39.8448C120.884 40.0528 120.806 40.2251 120.652 40.3616C120.497 40.4981 120.302 40.5663 120.067 40.5663H113.399C113.164 40.5663 112.968 40.4981 112.814 40.3616C112.659 40.2251 112.582 40.0528 112.582 39.8448V37.3534Z" fill="#D0D1D7"/><path d="M118.9 37.3534C118.9 37.1454 118.977 36.9731 119.131 36.8366C119.286 36.7001 119.481 36.6318 119.716 36.6318H126.384C126.62 36.6318 126.815 36.7001 126.969 36.8366C127.124 36.9731 127.201 37.1454 127.201 37.3534V39.8448C127.201 40.0528 127.124 40.2251 126.969 40.3616C126.815 40.4981 126.62 40.5663 126.384 40.5663H119.716C119.481 40.5663 119.286 40.4981 119.131 40.3616C118.977 40.2251 118.9 40.0528 118.9 39.8448V37.3534Z" fill="#D0D1D7"/><path d="M65.2012 44.4189C65.2012 44.2109 65.2784 44.0386 65.433 43.9021C65.5876 43.7656 65.7826 43.6974 66.0181 43.6974H72.6859C72.9214 43.6974 73.1164 43.7656 73.271 43.9021C73.4255 44.0386 73.5028 44.2109 73.5028 44.4189V46.9103C73.5028 47.1183 73.4255 47.2906 73.271 47.4271C73.1164 47.5636 72.9214 47.6318 72.6859 47.6318H66.0181C65.7826 47.6318 65.5876 47.5636 65.433 47.4271C65.2784 47.2906 65.2012 47.1183 65.2012 46.9103V44.4189Z" fill="#D0D1D7"/><path d="M71.5186 44.4189C71.5186 44.2109 71.5959 44.0386 71.7505 43.9021C71.905 43.7656 72.1 43.6974 72.3355 43.6974H79.0033C79.2388 43.6974 79.4339 43.7656 79.5884 43.9021C79.743 44.0386 79.8202 44.2109 79.8202 44.4189V46.9103C79.8202 47.1183 79.743 47.2906 79.5884 47.4271C79.4339 47.5636 79.2388 47.6318 79.0033 47.6318H72.3355C72.1 47.6318 71.905 47.5636 71.7505 47.4271C71.5959 47.2906 71.5186 47.1183 71.5186 46.9103V44.4189Z" fill="#D0D1D7"/><path d="M77.8361 44.4189C77.8361 44.2109 77.9134 44.0386 78.0679 43.9021C78.2225 43.7656 78.4175 43.6974 78.653 43.6974H85.3208C85.5563 43.6974 85.7513 43.7656 85.9059 43.9021C86.0604 44.0386 86.1377 44.2109 86.1377 44.4189V46.9103C86.1377 47.1183 86.0604 47.2906 85.9059 47.4271C85.7513 47.5636 85.5563 47.6318 85.3208 47.6318H78.653C78.4175 47.6318 78.2225 47.5636 78.0679 47.4271C77.9134 47.2906 77.8361 47.1183 77.8361 46.9103V44.4189Z" fill="#D0D1D7"/><path d="M84.1535 44.4189C84.1535 44.2109 84.2308 44.0386 84.3854 43.9021C84.5399 43.7656 84.735 43.6974 84.9705 43.6974H91.6382C91.8738 43.6974 92.0688 43.7656 92.2233 43.9021C92.3779 44.0386 92.4552 44.2109 92.4552 44.4189V46.9103C92.4552 47.1183 92.3779 47.2906 92.2233 47.4271C92.0688 47.5636 91.8738 47.6318 91.6382 47.6318H84.9705C84.735 47.6318 84.5399 47.5636 84.3854 47.4271C84.2308 47.2906 84.1535 47.1183 84.1535 46.9103V44.4189Z" fill="#D0D1D7"/><path d="M90.471 44.4189C90.471 44.2109 90.5483 44.0386 90.7028 43.9021C90.8574 43.7656 91.0524 43.6974 91.2879 43.6974H97.9557C98.1912 43.6974 98.3862 43.7656 98.5408 43.9021C98.6953 44.0386 98.7726 44.2109 98.7726 44.4189V46.9103C98.7726 47.1183 98.6953 47.2906 98.5408 47.4271C98.3862 47.5636 98.1912 47.6318 97.9557 47.6318H91.2879C91.0524 47.6318 90.8574 47.5636 90.7028 47.4271C90.5483 47.2906 90.471 47.1183 90.471 46.9103V44.4189Z" fill="#D0D1D7"/><path d="M96.7885 44.4189C96.7885 44.2109 96.8657 44.0386 97.0203 43.9021C97.1748 43.7656 97.3699 43.6974 97.6054 43.6974H104.273C104.509 43.6974 104.704 43.7656 104.858 43.9021C105.013 44.0386 105.09 44.2109 105.09 44.4189V46.9103C105.09 47.1183 105.013 47.2906 104.858 47.4271C104.704 47.5636 104.509 47.6318 104.273 47.6318H97.6054C97.3699 47.6318 97.1748 47.5636 97.0203 47.4271C96.8657 47.2906 96.7885 47.1183 96.7885 46.9103V44.4189Z" fill="#D0D1D7"/><path d="M103.106 44.4189C103.106 44.2109 103.183 44.0386 103.338 43.9021C103.492 43.7656 103.687 43.6974 103.923 43.6974H110.591C110.826 43.6974 111.021 43.7656 111.176 43.9021C111.33 44.0386 111.408 44.2109 111.408 44.4189V46.9103C111.408 47.1183 111.33 47.2906 111.176 47.4271C111.021 47.5636 110.826 47.6318 110.591 47.6318H103.923C103.687 47.6318 103.492 47.5636 103.338 47.4271C103.183 47.2906 103.106 47.1183 103.106 46.9103V44.4189Z" fill="#D0D1D7"/><path d="M109.423 44.4286C109.423 44.2206 109.501 44.0484 109.655 43.9119C109.81 43.7754 110.005 43.7071 110.24 43.7071H113.751C113.986 43.7071 114.181 43.7754 114.336 43.9119C114.49 44.0484 114.568 44.2206 114.568 44.4286V46.9103C114.568 47.1183 114.49 47.2906 114.336 47.4271C114.181 47.5636 113.986 47.6318 113.751 47.6318H110.24C110.005 47.6318 109.81 47.5636 109.655 47.4271C109.501 47.2906 109.423 47.1183 109.423 46.9103V44.4286Z" fill="#D0D1D7"/><rect x="207.271" y="27" width="26.7277" height="10.4911" rx="0.915179" fill="#0096CC"/><g clip-path="url(#clip15_2180_29052)"><path d="M213.219 31.2177C212.647 31.2177 212.192 31.6825 212.192 32.2455C212.192 32.8175 212.647 33.2733 213.219 33.2733C213.782 33.2733 214.247 32.8175 214.247 32.2455C214.247 31.6825 213.782 31.2177 213.219 31.2177ZM213.219 32.9158C212.853 32.9158 212.549 32.6209 212.549 32.2455C212.549 31.8791 212.844 31.5842 213.219 31.5842C213.586 31.5842 213.881 31.8791 213.881 32.2455C213.881 32.6209 213.586 32.9158 213.219 32.9158ZM214.524 31.182C214.524 31.0479 214.417 30.9407 214.283 30.9407C214.149 30.9407 214.042 31.0479 214.042 31.182C214.042 31.3161 214.149 31.4233 214.283 31.4233C214.417 31.4233 214.524 31.3161 214.524 31.182ZM215.203 31.4233C215.186 31.1016 215.114 30.8156 214.882 30.5832C214.649 30.3508 214.363 30.2793 214.042 30.2615C213.711 30.2436 212.719 30.2436 212.388 30.2615C212.066 30.2793 211.789 30.3508 211.548 30.5832C211.316 30.8156 211.244 31.1016 211.226 31.4233C211.208 31.754 211.208 32.746 211.226 33.0767C211.244 33.3984 211.316 33.6755 211.548 33.9168C211.789 34.1492 212.066 34.2207 212.388 34.2385C212.719 34.2564 213.711 34.2564 214.042 34.2385C214.363 34.2207 214.649 34.1492 214.882 33.9168C215.114 33.6755 215.186 33.3984 215.203 33.0767C215.221 32.746 215.221 31.754 215.203 31.4233ZM214.774 33.4253C214.712 33.604 214.569 33.7381 214.399 33.8096C214.131 33.9168 213.505 33.89 213.219 33.89C212.924 33.89 212.299 33.9168 212.04 33.8096C211.861 33.7381 211.727 33.604 211.655 33.4253C211.548 33.1661 211.575 32.5405 211.575 32.2455C211.575 31.9595 211.548 31.3339 211.655 31.0658C211.727 30.896 211.861 30.7619 212.04 30.6904C212.299 30.5832 212.924 30.61 213.219 30.61C213.505 30.61 214.131 30.5832 214.399 30.6904C214.569 30.753 214.703 30.896 214.774 31.0658C214.882 31.3339 214.855 31.9595 214.855 32.2455C214.855 32.5405 214.882 33.1661 214.774 33.4253Z" fill="white"/></g><path d="M217.625 33.7451H218.152V32.5093H219.361V32.0676H218.152V31.2778H219.488V30.836H217.625V33.7451ZM220.777 33.7877C221.417 33.7877 221.823 33.3374 221.823 32.6627C221.823 31.9866 221.417 31.5349 220.777 31.5349C220.138 31.5349 219.732 31.9866 219.732 32.6627C219.732 33.3374 220.138 33.7877 220.777 33.7877ZM220.78 33.3758C220.427 33.3758 220.253 33.0605 220.253 32.6613C220.253 32.2622 220.427 31.9426 220.78 31.9426C221.128 31.9426 221.302 32.2622 221.302 32.6613C221.302 33.0605 221.128 33.3758 220.78 33.3758ZM222.813 30.836H222.299V33.7451H222.813V30.836ZM223.896 30.836H223.382V33.7451H223.896V30.836ZM225.417 33.7877C226.056 33.7877 226.462 33.3374 226.462 32.6627C226.462 31.9866 226.056 31.5349 225.417 31.5349C224.778 31.5349 224.371 31.9866 224.371 32.6627C224.371 33.3374 224.778 33.7877 225.417 33.7877ZM225.42 33.3758C225.066 33.3758 224.893 33.0605 224.893 32.6613C224.893 32.2622 225.066 31.9426 225.42 31.9426C225.768 31.9426 225.941 32.2622 225.941 32.6613C225.941 33.0605 225.768 33.3758 225.42 33.3758ZM227.331 33.7451H227.867L228.277 32.2707H228.306L228.715 33.7451H229.251L229.869 31.5633H229.343L228.965 33.0889H228.944L228.552 31.5633H228.034L227.642 33.0974H227.622L227.238 31.5633H226.714L227.331 33.7451Z" fill="white"/></g><defs><filter id="filter0_dd_2180_29052" x="33.3827" y="66.7765" width="65.9221" height="88.2678" filterUnits="userSpaceOnUse" color-interpolation-filters="sRGB"><feFlood flood-opacity="0" result="BackgroundImageFix"/><feColorMatrix in="SourceAlpha" type="matrix" values="0 0 0 0 0 0 0 0 0 0 0 0 0 0 0 0 0 0 127 0" result="hardAlpha"/><feOffset dy="0.893854"/><feGaussianBlur stdDeviation="0.558659"/><feColorMatrix type="matrix" values="0 0 0 0 0 0 0 0 0 0 0 0 0 0 0 0 0 0 0.05 0"/><feBlend mode="normal" in2="BackgroundImageFix" result="effect1_dropShadow_2180_29052"/><feColorMatrix in="SourceAlpha" type="matrix" values="0 0 0 0 0 0 0 0 0 0 0 0 0 0 0 0 0 0 127 0" result="hardAlpha"/><feOffset dy="0.223464"/><feGaussianBlur stdDeviation="0.223464"/><feColorMatrix type="matrix" values="0 0 0 0 0 0 0 0 0 0 0 0 0 0 0 0 0 0 0.05 0"/><feBlend mode="normal" in2="effect1_dropShadow_2180_29052" result="effect2_dropShadow_2180_29052"/><feBlend mode="normal" in="SourceGraphic" in2="effect2_dropShadow_2180_29052" result="shape"/></filter><filter id="filter1_dd_2180_29052" x="33.3827" y="156.162" width="65.9221" height="89.8157" filterUnits="userSpaceOnUse" color-interpolation-filters="sRGB"><feFlood flood-opacity="0" result="BackgroundImageFix"/><feColorMatrix in="SourceAlpha" type="matrix" values="0 0 0 0 0 0 0 0 0 0 0 0 0 0 0 0 0 0 127 0" result="hardAlpha"/><feOffset dy="0.893854"/><feGaussianBlur stdDeviation="0.558659"/><feColorMatrix type="matrix" values="0 0 0 0 0 0 0 0 0 0 0 0 0 0 0 0 0 0 0.05 0"/><feBlend mode="normal" in2="BackgroundImageFix" result="effect1_dropShadow_2180_29052"/><feColorMatrix in="SourceAlpha" type="matrix" values="0 0 0 0 0 0 0 0 0 0 0 0 0 0 0 0 0 0 127 0" result="hardAlpha"/><feOffset dy="0.223464"/><feGaussianBlur stdDeviation="0.223464"/><feColorMatrix type="matrix" values="0 0 0 0 0 0 0 0 0 0 0 0 0 0 0 0 0 0 0.05 0"/><feBlend mode="normal" in2="effect1_dropShadow_2180_29052" result="effect2_dropShadow_2180_29052"/><feBlend mode="normal" in="SourceGraphic" in2="effect2_dropShadow_2180_29052" result="shape"/></filter><filter id="filter2_dd_2180_29052" x="101.539" y="66.7775" width="65.9221" height="88.2678" filterUnits="userSpaceOnUse" color-interpolation-filters="sRGB"><feFlood flood-opacity="0" result="BackgroundImageFix"/><feColorMatrix in="SourceAlpha" type="matrix" values="0 0 0 0 0 0 0 0 0 0 0 0 0 0 0 0 0 0 127 0" result="hardAlpha"/><feOffset dy="0.893854"/><feGaussianBlur stdDeviation="0.558659"/><feColorMatrix type="matrix" values="0 0 0 0 0 0 0 0 0 0 0 0 0 0 0 0 0 0 0.05 0"/><feBlend mode="normal" in2="BackgroundImageFix" result="effect1_dropShadow_2180_29052"/><feColorMatrix in="SourceAlpha" type="matrix" values="0 0 0 0 0 0 0 0 0 0 0 0 0 0 0 0 0 0 127 0" result="hardAlpha"/><feOffset dy="0.223464"/><feGaussianBlur stdDeviation="0.223464"/><feColorMatrix type="matrix" values="0 0 0 0 0 0 0 0 0 0 0 0 0 0 0 0 0 0 0.05 0"/><feBlend mode="normal" in2="effect1_dropShadow_2180_29052" result="effect2_dropShadow_2180_29052"/><feBlend mode="normal" in="SourceGraphic" in2="effect2_dropShadow_2180_29052" result="shape"/></filter><filter id="filter3_dd_2180_29052" x="101.539" y="156.163" width="65.9221" height="89.8157" filterUnits="userSpaceOnUse" color-interpolation-filters="sRGB"><feFlood flood-opacity="0" result="BackgroundImageFix"/><feColorMatrix in="SourceAlpha" type="matrix" values="0 0 0 0 0 0 0 0 0 0 0 0 0 0 0 0 0 0 127 0" result="hardAlpha"/><feOffset dy="0.893854"/><feGaussianBlur stdDeviation="0.558659"/><feColorMatrix type="matrix" values="0 0 0 0 0 0 0 0 0 0 0 0 0 0 0 0 0 0 0.05 0"/><feBlend mode="normal" in2="BackgroundImageFix" result="effect1_dropShadow_2180_29052"/><feColorMatrix in="SourceAlpha" type="matrix" values="0 0 0 0 0 0 0 0 0 0 0 0 0 0 0 0 0 0 127 0" result="hardAlpha"/><feOffset dy="0.223464"/><feGaussianBlur stdDeviation="0.223464"/><feColorMatrix type="matrix" values="0 0 0 0 0 0 0 0 0 0 0 0 0 0 0 0 0 0 0.05 0"/><feBlend mode="normal" in2="effect1_dropShadow_2180_29052" result="effect2_dropShadow_2180_29052"/><feBlend mode="normal" in="SourceGraphic" in2="effect2_dropShadow_2180_29052" result="shape"/></filter><filter id="filter4_dd_2180_29052" x="169.695" y="66.7775" width="66.2346" height="88.2678" filterUnits="userSpaceOnUse" color-interpolation-filters="sRGB"><feFlood flood-opacity="0" result="BackgroundImageFix"/><feColorMatrix in="SourceAlpha" type="matrix" values="0 0 0 0 0 0 0 0 0 0 0 0 0 0 0 0 0 0 127 0" result="hardAlpha"/><feOffset dy="0.893854"/><feGaussianBlur stdDeviation="0.558659"/><feColorMatrix type="matrix" values="0 0 0 0 0 0 0 0 0 0 0 0 0 0 0 0 0 0 0.05 0"/><feBlend mode="normal" in2="BackgroundImageFix" result="effect1_dropShadow_2180_29052"/><feColorMatrix in="SourceAlpha" type="matrix" values="0 0 0 0 0 0 0 0 0 0 0 0 0 0 0 0 0 0 127 0" result="hardAlpha"/><feOffset dy="0.223464"/><feGaussianBlur stdDeviation="0.223464"/><feColorMatrix type="matrix" values="0 0 0 0 0 0 0 0 0 0 0 0 0 0 0 0 0 0 0.05 0"/><feBlend mode="normal" in2="effect1_dropShadow_2180_29052" result="effect2_dropShadow_2180_29052"/><feBlend mode="normal" in="SourceGraphic" in2="effect2_dropShadow_2180_29052" result="shape"/></filter><filter id="filter5_dd_2180_29052" x="169.695" y="156.163" width="65.9221" height="89.8157" filterUnits="userSpaceOnUse" color-interpolation-filters="sRGB"><feFlood flood-opacity="0" result="BackgroundImageFix"/><feColorMatrix in="SourceAlpha" type="matrix" values="0 0 0 0 0 0 0 0 0 0 0 0 0 0 0 0 0 0 127 0" result="hardAlpha"/><feOffset dy="0.893854"/><feGaussianBlur stdDeviation="0.558659"/><feColorMatrix type="matrix" values="0 0 0 0 0 0 0 0 0 0 0 0 0 0 0 0 0 0 0.05 0"/><feBlend mode="normal" in2="BackgroundImageFix" result="effect1_dropShadow_2180_29052"/><feColorMatrix in="SourceAlpha" type="matrix" values="0 0 0 0 0 0 0 0 0 0 0 0 0 0 0 0 0 0 127 0" result="hardAlpha"/><feOffset dy="0.223464"/><feGaussianBlur stdDeviation="0.223464"/><feColorMatrix type="matrix" values="0 0 0 0 0 0 0 0 0 0 0 0 0 0 0 0 0 0 0.05 0"/><feBlend mode="normal" in2="effect1_dropShadow_2180_29052" result="effect2_dropShadow_2180_29052"/><feBlend mode="normal" in="SourceGraphic" in2="effect2_dropShadow_2180_29052" result="shape"/></filter><clipPath id="clip0_2180_29052"><rect width="262.5" height="200" fill="white"/></clipPath><clipPath id="clip1_2180_29052"><rect x="34.5" y="67" width="63.6871" height="86.0335" rx="0.893854" fill="white"/></clipPath><clipPath id="clip2_2180_29052"><rect width="63.6871" height="63" fill="white" transform="translate(34.5 67)"/></clipPath><clipPath id="clip3_2180_29052"><rect width="3.57542" height="3.57542" fill="white" transform="translate(38.5 145.458)"/></clipPath><clipPath id="clip4_2180_29052"><rect width="3.57542" height="3.57542" fill="white" transform="translate(46.5449 145.458)"/></clipPath><clipPath id="clip5_2180_29052"><rect x="34.5" y="156.386" width="63.6871" height="87.581" rx="0.893854" fill="white"/></clipPath><clipPath id="clip6_2180_29052"><rect x="102.656" y="67.001" width="63.6871" height="86.0335" rx="0.893854" fill="white"/></clipPath><clipPath id="clip7_2180_29052"><rect width="3.57542" height="3.57542" fill="white" transform="translate(106.656 145.459)"/></clipPath><clipPath id="clip8_2180_29052"><rect width="3.57542" height="3.57542" fill="white" transform="translate(114.701 145.459)"/></clipPath><clipPath id="clip9_2180_29052"><rect x="102.656" y="156.387" width="63.6871" height="87.581" rx="0.893854" fill="white"/></clipPath><clipPath id="clip10_2180_29052"><rect width="63.6871" height="63" fill="white" transform="translate(102.656 156.387)"/></clipPath><clipPath id="clip11_2180_29052"><rect x="170.812" y="67.001" width="64" height="86.0335" rx="0.893854" fill="white"/></clipPath><clipPath id="clip12_2180_29052"><rect width="3.57542" height="3.57542" fill="white" transform="translate(174.812 145.459)"/></clipPath><clipPath id="clip13_2180_29052"><rect width="3.57542" height="3.57542" fill="white" transform="translate(182.857 145.459)"/></clipPath><clipPath id="clip14_2180_29052"><rect x="170.812" y="156.387" width="63.6871" height="87.581" rx="0.893854" fill="white"/></clipPath><clipPath id="clip15_2180_29052"><rect width="4.57589" height="4.57589" fill="white" transform="translate(210.932 29.958)"/></clipPath></defs></svg>