<svg width="19" height="17" viewBox="0 0 19 17" fill="none" xmlns="http://www.w3.org/2000/svg"><path d="M16.9986 11.5C16.9986 11.5 14.9986 13.67 14.9986 15C14.9986 15.5304 15.2093 16.0391 15.5844 16.4142C15.9595 16.7893 16.4682 17 16.9986 17C17.529 17 18.0377 16.7893 18.4128 16.4142C18.7879 16.0391 18.9986 15.5304 18.9986 15C18.9986 13.67 16.9986 11.5 16.9986 11.5ZM3.20859 10L7.99859 5.21L12.7886 10H3.20859ZM14.5586 8.94L5.61859 0L4.20859 1.41L6.58859 3.79L1.43859 8.94C0.848594 9.5 0.848594 10.47 1.43859 11.06L6.93859 16.56C7.22859 16.85 7.61859 17 7.99859 17C8.37859 17 8.76859 16.85 9.05859 16.56L14.5586 11.06C15.1486 10.47 15.1486 9.5 14.5586 8.94V8.94Z" fill="#141B38"/></svg>