<svg width="263" height="200" fill="none" xmlns="http://www.w3.org/2000/svg"><g clip-path="url(#a)"><path fill="#F3F4F5" d="M0 0h262.5v200H0z"/><g filter="url(#b)"><rect x="32.191" y="34.5" width="198.118" height="191" rx="2" fill="#fff"/><g clip-path="url(#c)"><path fill="#F6966B" d="M45.428 156h40v40h-40z"/><circle cx="41.5" cy="165.5" r="20.5" fill="#F9BBA0"/></g><rect x="49.928" y="199" width="31" height="2" rx=".5" fill="#DCDDE1"/><g clip-path="url(#d)"><path fill="#F6966B" d="M89.428 156h40v40h-40z"/><circle cx="127.5" cy="194.5" r="20.5" fill="#F9BBA0"/></g><rect x="93.928" y="199" width="31" height="2" rx=".5" fill="#DCDDE1"/><path fill="#F6966B" d="M133.428 156h40v40h-40z"/><rect x="137.928" y="199" width="31" height="2" rx=".5" fill="#DCDDE1"/><g clip-path="url(#e)"><path fill="#F6966B" d="M177.428 156h40v40h-40z"/><path fill="#F9BBA0" d="m159.141 169 35.631 5.14-4.14 28.702-35.631-5.139z"/></g><rect x="181.928" y="199" width="31" height="2" rx=".5" fill="#DCDDE1"/><circle cx="59.982" cy="59.982" r="10.982" fill="#F9BBA0"/><path d="M79.201 51.146a.79.79 0 0 1 .814-.814h6.644a.79.79 0 0 1 .814.814v2.672a.79.79 0 0 1-.814.814h-6.644a.79.79 0 0 1-.814-.814v-2.672Z" fill="#8C8F9A"/><path d="M85.496 51.146a.79.79 0 0 1 .814-.814h6.644a.79.79 0 0 1 .814.814v2.672a.79.79 0 0 1-.814.814H86.31a.79.79 0 0 1-.814-.814v-2.672Z" fill="#8C8F9A"/><path d="M91.791 51.146a.79.79 0 0 1 .814-.814h3.644a.79.79 0 0 1 .814.814v2.672a.79.79 0 0 1-.814.814h-3.644a.79.79 0 0 1-.814-.814v-2.672Z" fill="#8C8F9A"/><path d="M95.086 51.146a.79.79 0 0 1 .814-.814h6.644a.79.79 0 0 1 .814.814v2.672a.79.79 0 0 1-.814.814H95.9a.79.79 0 0 1-.814-.814v-2.672Z" fill="#8C8F9A"/><path d="M101.381 51.157a.79.79 0 0 1 .814-.814h3.498a.79.79 0 0 1 .814.814v2.661a.79.79 0 0 1-.814.814h-3.498a.79.79 0 0 1-.814-.814v-2.661Z" fill="#8C8F9A"/><path d="M104.528 51.146a.79.79 0 0 1 .814-.814h6.644a.79.79 0 0 1 .814.814v2.672a.79.79 0 0 1-.814.814h-6.644a.791.791 0 0 1-.814-.814v-2.672Z" fill="#8C8F9A"/><path d="M79.201 59.353a.66.66 0 0 1 .232-.516.852.852 0 0 1 .585-.205h6.668a.85.85 0 0 1 .585.205.66.66 0 0 1 .232.516v2.492a.66.66 0 0 1-.232.517.851.851 0 0 1-.585.204h-6.668a.851.851 0 0 1-.585-.204.66.66 0 0 1-.232-.517v-2.492Z" fill="#D0D1D7"/><path d="M85.519 59.353a.66.66 0 0 1 .231-.516.851.851 0 0 1 .585-.205h6.668c.236 0 .43.068.585.205a.66.66 0 0 1 .232.516v2.492a.66.66 0 0 1-.232.517.851.851 0 0 1-.585.204h-6.668a.851.851 0 0 1-.584-.204.66.66 0 0 1-.232-.517v-2.492Z" fill="#D0D1D7"/><path d="M91.836 59.353a.66.66 0 0 1 .232-.516.852.852 0 0 1 .585-.205h6.668a.85.85 0 0 1 .585.205.662.662 0 0 1 .232.516v2.492c0 .208-.078.38-.232.517a.851.851 0 0 1-.585.204h-6.668a.851.851 0 0 1-.585-.204.66.66 0 0 1-.232-.517v-2.492Z" fill="#D0D1D7"/><path d="M98.153 59.353a.66.66 0 0 1 .232-.516.851.851 0 0 1 .585-.205h6.668a.85.85 0 0 1 .585.205.659.659 0 0 1 .232.516v2.492a.66.66 0 0 1-.232.517.85.85 0 0 1-.585.204H98.97a.851.851 0 0 1-.585-.204.66.66 0 0 1-.232-.517v-2.492Z" fill="#D0D1D7"/><path d="M104.471 59.363a.66.66 0 0 1 .232-.517.85.85 0 0 1 .585-.204h3.51c.236 0 .431.068.586.204a.661.661 0 0 1 .231.517v2.482c0 .208-.077.38-.231.517a.854.854 0 0 1-.586.204h-3.51a.85.85 0 0 1-.585-.204.659.659 0 0 1-.232-.517v-2.482Z" fill="#D0D1D7"/><path d="M107.63 59.363a.66.66 0 0 1 .232-.517.85.85 0 0 1 .585-.204h3.51a.85.85 0 0 1 .585.204.659.659 0 0 1 .232.517v2.482a.66.66 0 0 1-.232.517.85.85 0 0 1-.585.204h-3.51a.85.85 0 0 1-.585-.204.659.659 0 0 1-.232-.517v-2.482Z" fill="#D0D1D7"/><path d="M110.788 59.353a.66.66 0 0 1 .232-.516.853.853 0 0 1 .585-.205h6.668a.85.85 0 0 1 .585.205.659.659 0 0 1 .232.516v2.492a.66.66 0 0 1-.232.517.85.85 0 0 1-.585.204h-6.668a.853.853 0 0 1-.585-.204.662.662 0 0 1-.232-.517v-2.492Z" fill="#D0D1D7"/><path d="M117.106 59.363a.66.66 0 0 1 .232-.517.85.85 0 0 1 .585-.204h3.51a.85.85 0 0 1 .585.204.659.659 0 0 1 .232.517v2.482a.66.66 0 0 1-.232.517.85.85 0 0 1-.585.204h-3.51a.85.85 0 0 1-.585-.204.659.659 0 0 1-.232-.517v-2.482Z" fill="#D0D1D7"/><path d="M120.265 59.353c0-.208.077-.38.231-.516a.854.854 0 0 1 .586-.205h6.667a.85.85 0 0 1 .585.205.659.659 0 0 1 .232.516v2.492a.66.66 0 0 1-.232.517.85.85 0 0 1-.585.204h-6.667a.854.854 0 0 1-.586-.204.661.661 0 0 1-.231-.517v-2.492Z" fill="#D0D1D7"/><path d="M126.582 59.353c0-.208.077-.38.232-.516a.851.851 0 0 1 .585-.205h6.668a.85.85 0 0 1 .585.205.662.662 0 0 1 .232.516v2.492c0 .208-.078.38-.232.517a.853.853 0 0 1-.585.204h-6.668a.851.851 0 0 1-.585-.204.659.659 0 0 1-.232-.517v-2.492Z" fill="#D0D1D7"/><path d="M132.9 59.353c0-.208.077-.38.231-.516a.853.853 0 0 1 .585-.205h6.668a.85.85 0 0 1 .585.205.659.659 0 0 1 .232.516v2.492a.66.66 0 0 1-.232.517.85.85 0 0 1-.585.204h-6.668a.853.853 0 0 1-.585-.204.661.661 0 0 1-.231-.517v-2.492Zm-53.699 7.066a.66.66 0 0 1 .232-.517.851.851 0 0 1 .585-.205h6.668c.235 0 .43.069.585.205a.66.66 0 0 1 .232.517v2.491a.66.66 0 0 1-.232.517.851.851 0 0 1-.585.205h-6.668a.851.851 0 0 1-.585-.205.66.66 0 0 1-.232-.517v-2.49Z" fill="#D0D1D7"/><path d="M85.519 66.419a.66.66 0 0 1 .231-.517.851.851 0 0 1 .585-.205h6.668c.236 0 .43.069.585.205a.66.66 0 0 1 .232.517v2.491a.66.66 0 0 1-.232.517.851.851 0 0 1-.585.205h-6.668a.851.851 0 0 1-.584-.205.66.66 0 0 1-.232-.517v-2.49Z" fill="#D0D1D7"/><path d="M91.836 66.419a.66.66 0 0 1 .232-.517.851.851 0 0 1 .585-.205h6.668c.235 0 .43.069.585.205a.662.662 0 0 1 .232.517v2.491c0 .208-.078.38-.232.517a.851.851 0 0 1-.585.205h-6.668a.851.851 0 0 1-.585-.205.66.66 0 0 1-.232-.517v-2.49Z" fill="#D0D1D7"/><path d="M98.153 66.419a.66.66 0 0 1 .232-.517.851.851 0 0 1 .585-.205h6.668a.85.85 0 0 1 .585.205.659.659 0 0 1 .232.517v2.491a.66.66 0 0 1-.232.517.85.85 0 0 1-.585.205H98.97a.851.851 0 0 1-.585-.205.66.66 0 0 1-.232-.517v-2.49Z" fill="#D0D1D7"/><path d="M104.471 66.419a.66.66 0 0 1 .232-.517.85.85 0 0 1 .585-.205h6.668c.235 0 .43.069.585.205a.662.662 0 0 1 .232.517v2.491c0 .208-.078.38-.232.517a.853.853 0 0 1-.585.205h-6.668a.85.85 0 0 1-.585-.205.659.659 0 0 1-.232-.517v-2.49Z" fill="#D0D1D7"/><path d="M110.788 66.419c0-.208.078-.38.232-.517a.853.853 0 0 1 .585-.205h6.668a.85.85 0 0 1 .585.205.659.659 0 0 1 .232.517v2.491a.66.66 0 0 1-.232.517.85.85 0 0 1-.585.205h-6.668a.853.853 0 0 1-.585-.205.662.662 0 0 1-.232-.517v-2.49Z" fill="#D0D1D7"/><path d="M117.106 66.419a.66.66 0 0 1 .232-.517.85.85 0 0 1 .585-.205h6.668c.235 0 .43.069.585.205a.662.662 0 0 1 .232.517v2.491c0 .208-.078.38-.232.517a.853.853 0 0 1-.585.205h-6.668a.85.85 0 0 1-.585-.205.659.659 0 0 1-.232-.517v-2.49Z" fill="#D0D1D7"/><path d="M123.423 66.429c0-.208.078-.38.232-.517a.853.853 0 0 1 .585-.205h3.511a.85.85 0 0 1 .585.205.662.662 0 0 1 .232.517v2.481c0 .208-.078.38-.232.517a.853.853 0 0 1-.585.205h-3.511a.853.853 0 0 1-.585-.205.662.662 0 0 1-.232-.517v-2.48Z" fill="#D0D1D7"/><rect x="190.271" y="49" width="26.728" height="10.491" rx=".915" fill="#0096CC"/><g clip-path="url(#f)"><path d="M196.219 53.218c-.572 0-1.027.464-1.027 1.027a1.028 1.028 0 0 0 2.055 0c0-.563-.465-1.027-1.028-1.027Zm0 1.698a.67.67 0 0 1-.67-.67c0-.367.295-.662.67-.662a.66.66 0 0 1 .662.661c0 .376-.295.67-.662.67Zm1.305-1.734a.24.24 0 0 0-.241-.241.24.24 0 0 0-.241.241.24.24 0 0 0 .241.241.24.24 0 0 0 .241-.241Zm.679.241c-.017-.321-.089-.607-.321-.84-.233-.232-.519-.304-.84-.322a25.479 25.479 0 0 0-1.654 0c-.322.018-.599.09-.84.322-.232.233-.304.519-.322.84a25.32 25.32 0 0 0 0 1.654c.018.321.09.599.322.84.241.232.518.304.84.322.331.017 1.323.017 1.654 0 .321-.018.607-.09.84-.322.232-.242.304-.519.321-.84a25.32 25.32 0 0 0 0-1.654Zm-.429 2.002a.66.66 0 0 1-.375.385c-.268.107-.894.08-1.18.08-.295 0-.92.027-1.179-.08a.68.68 0 0 1-.385-.385c-.107-.259-.08-.884-.08-1.18 0-.285-.027-.911.08-1.18a.691.691 0 0 1 .385-.375c.259-.107.884-.08 1.179-.08.286 0 .912-.027 1.18.08.17.063.304.206.375.376.108.268.081.893.081 1.18 0 .294.027.92-.081 1.18Z" fill="#fff"/></g><path d="M200.625 55.745h.527V54.51h1.209v-.441h-1.209v-.79h1.336v-.442h-1.863v2.91Zm3.152.043c.64 0 1.046-.45 1.046-1.125 0-.676-.406-1.128-1.046-1.128-.639 0-1.045.452-1.045 1.128 0 .674.406 1.125 1.045 1.125Zm.003-.412c-.353 0-.527-.316-.527-.715 0-.399.174-.718.527-.718.348 0 .522.32.522.718 0 .4-.174.715-.522.715Zm2.033-2.54h-.514v2.91h.514v-2.91Zm1.083 0h-.514v2.91h.514v-2.91Zm1.521 2.952c.639 0 1.045-.45 1.045-1.125 0-.676-.406-1.128-1.045-1.128-.639 0-1.046.452-1.046 1.128 0 .674.407 1.125 1.046 1.125Zm.003-.412c-.354 0-.527-.316-.527-.715 0-.399.173-.718.527-.718.348 0 .521.32.521.718 0 .4-.173.715-.521.715Zm1.911.37h.536l.41-1.475h.029l.409 1.474h.536l.618-2.182h-.526l-.378 1.526h-.021l-.392-1.526h-.518l-.392 1.534h-.02l-.384-1.534h-.524l.617 2.182Z" fill="#fff"/><g clip-path="url(#g)"><path fill="#F6966B" d="M45.428 88.376h40v40h-40z"/><circle cx="85" cy="128" r="25" fill="#F9BBA0"/></g><rect x="49.928" y="131.376" width="31" height="2" rx=".5" fill="#D0D1D7"/><rect x="54.928" y="135.376" width="21" height="2" rx=".5" fill="#D0D1D7"/><g clip-path="url(#h)"><path fill-rule="evenodd" clip-rule="evenodd" d="M62.88 140.826a.96.96 0 0 1 .684.283.975.975 0 0 1 .283.684c0 .495-.28.942-.628 1.312-.322.343-.702.624-1.088.89-.387-.266-.766-.547-1.089-.89-.347-.37-.628-.817-.628-1.312a.968.968 0 0 1 .967-.967.973.973 0 0 1 .75.358.972.972 0 0 1 .75-.358Z" fill="#8C8F9A"/></g><g clip-path="url(#i)"><path d="M68.726 140.709a1.663 1.663 0 0 0-1.178.488 1.669 1.669 0 0 0-.112 2.234l-.333.333a.168.168 0 0 0-.035.182.165.165 0 0 0 .158.096h1.5a1.665 1.665 0 0 0 1.179-2.845 1.669 1.669 0 0 0-1.179-.488Z" fill="#8C8F9A"/></g><path fill="#F6966B" d="M89.428 88.376h40v40h-40z"/><rect x="93.928" y="131.376" width="31" height="2" rx=".5" fill="#D0D1D7"/><rect x="98.928" y="135.376" width="21" height="2" rx=".5" fill="#D0D1D7"/><g clip-path="url(#j)"><path fill-rule="evenodd" clip-rule="evenodd" d="M106.88 140.826h.001a.962.962 0 0 1 .683.283.978.978 0 0 1 .283.684c0 .495-.281.942-.628 1.312-.322.343-.702.624-1.088.89-.387-.266-.766-.547-1.089-.89-.347-.37-.628-.817-.628-1.312a.969.969 0 0 1 .967-.967c.155 0 .308.038.446.109a.976.976 0 0 1 .304.249.965.965 0 0 1 .749-.358Z" fill="#8C8F9A"/></g><g clip-path="url(#k)"><path d="M112.726 140.709a1.662 1.662 0 0 0-1.178.488 1.668 1.668 0 0 0-.112 2.234l-.333.333a.163.163 0 0 0-.045.086.159.159 0 0 0 .074.168.163.163 0 0 0 .094.024h1.5a1.667 1.667 0 1 0 0-3.333Z" fill="#8C8F9A"/></g><g clip-path="url(#l)"><path fill="#F6966B" d="M133.428 88.376h40v40h-40z"/><path d="M173.5 128.5v-14h-40v14h40Z" fill="#F9BBA0"/></g><rect x="137.928" y="131.376" width="31" height="2" rx=".5" fill="#D0D1D7"/><rect x="142.928" y="135.376" width="21" height="2" rx=".5" fill="#D0D1D7"/><g clip-path="url(#m)"><path fill-rule="evenodd" clip-rule="evenodd" d="M150.88 140.826h.001a.962.962 0 0 1 .683.283.978.978 0 0 1 .283.684c0 .495-.281.942-.628 1.312-.322.343-.702.624-1.088.89-.387-.266-.766-.547-1.089-.89-.347-.37-.628-.817-.628-1.312a.969.969 0 0 1 .967-.967c.155 0 .308.038.446.109a.976.976 0 0 1 .304.249.965.965 0 0 1 .749-.358Z" fill="#8C8F9A"/></g><g clip-path="url(#n)"><path d="M156.726 140.709a1.662 1.662 0 0 0-1.178.488 1.668 1.668 0 0 0-.112 2.234l-.333.333a.163.163 0 0 0-.045.086.159.159 0 0 0 .074.168.163.163 0 0 0 .094.024h1.5a1.667 1.667 0 1 0 0-3.333Z" fill="#8C8F9A"/></g><g clip-path="url(#o)"><path fill="#F6966B" d="M177.428 88.376h40v40h-40z"/><circle cx="225" cy="138" r="28" fill="#F9BBA0"/></g><rect x="181.928" y="131.376" width="31" height="2" rx=".5" fill="#D0D1D7"/><rect x="186.928" y="135.376" width="21" height="2" rx=".5" fill="#D0D1D7"/><g clip-path="url(#p)"><path fill-rule="evenodd" clip-rule="evenodd" d="M194.88 140.826h.001a.962.962 0 0 1 .683.283.978.978 0 0 1 .283.684c0 .495-.281.942-.628 1.312-.322.343-.702.624-1.088.89-.387-.266-.766-.547-1.089-.89-.347-.37-.628-.817-.628-1.312a.969.969 0 0 1 .967-.967c.155 0 .308.038.446.109a.976.976 0 0 1 .304.249.965.965 0 0 1 .749-.358Z" fill="#8C8F9A"/></g><g clip-path="url(#q)"><path d="M200.726 140.709a1.662 1.662 0 0 0-1.178.488 1.668 1.668 0 0 0-.112 2.234l-.333.333a.163.163 0 0 0-.045.086.159.159 0 0 0 .074.168.163.163 0 0 0 .094.024h1.5a1.667 1.667 0 1 0 0-3.333Z" fill="#8C8F9A"/></g></g></g><defs><clipPath id="a"><path fill="#fff" d="M0 0h262.5v200H0z"/></clipPath><clipPath id="c"><path fill="#fff" transform="translate(45.428 156)" d="M0 0h40v40H0z"/></clipPath><clipPath id="d"><path fill="#fff" transform="translate(89.428 156)" d="M0 0h40v40H0z"/></clipPath><clipPath id="e"><path fill="#fff" transform="translate(177.428 156)" d="M0 0h40v40H0z"/></clipPath><clipPath id="f"><path fill="#fff" transform="translate(193.932 51.958)" d="M0 0h4.576v4.576H0z"/></clipPath><clipPath id="g"><path fill="#fff" transform="translate(45.428 88.376)" d="M0 0h40v40H0z"/></clipPath><clipPath id="h"><path fill="#fff" transform="translate(60.13 140.376)" d="M0 0h4v4H0z"/></clipPath><clipPath id="i"><path fill="#fff" transform="translate(66.727 140.376)" d="M0 0h4v4H0z"/></clipPath><clipPath id="j"><path fill="#fff" transform="translate(104.131 140.376)" d="M0 0h4v4H0z"/></clipPath><clipPath id="k"><path fill="#fff" transform="translate(110.727 140.376)" d="M0 0h4v4H0z"/></clipPath><clipPath id="l"><path fill="#fff" transform="translate(133.428 88.376)" d="M0 0h40v40H0z"/></clipPath><clipPath id="m"><path fill="#fff" transform="translate(148.131 140.376)" d="M0 0h4v4H0z"/></clipPath><clipPath id="n"><path fill="#fff" transform="translate(154.727 140.376)" d="M0 0h4v4H0z"/></clipPath><clipPath id="o"><path fill="#fff" transform="translate(177.428 88.376)" d="M0 0h40v40H0z"/></clipPath><clipPath id="p"><path fill="#fff" transform="translate(192.131 140.376)" d="M0 0h4v4H0z"/></clipPath><clipPath id="q"><path fill="#fff" transform="translate(198.727 140.376)" d="M0 0h4v4H0z"/></clipPath><filter id="b" x="19.191" y="27.5" width="224.117" height="217" filterUnits="userSpaceOnUse" color-interpolation-filters="sRGB"><feFlood flood-opacity="0" result="BackgroundImageFix"/><feColorMatrix in="SourceAlpha" values="0 0 0 0 0 0 0 0 0 0 0 0 0 0 0 0 0 0 127 0" result="hardAlpha"/><feOffset dy="6"/><feGaussianBlur stdDeviation="6.5"/><feColorMatrix values="0 0 0 0 0 0 0 0 0 0 0 0 0 0 0 0 0 0 0.03 0"/><feBlend in2="BackgroundImageFix" result="effect1_dropShadow_2180_28703"/><feColorMatrix in="SourceAlpha" values="0 0 0 0 0 0 0 0 0 0 0 0 0 0 0 0 0 0 127 0" result="hardAlpha"/><feOffset dy="1"/><feGaussianBlur stdDeviation="1"/><feColorMatrix values="0 0 0 0 0 0 0 0 0 0 0 0 0 0 0 0 0 0 0.11 0"/><feBlend in2="effect1_dropShadow_2180_28703" result="effect2_dropShadow_2180_28703"/><feColorMatrix in="SourceAlpha" values="0 0 0 0 0 0 0 0 0 0 0 0 0 0 0 0 0 0 127 0" result="hardAlpha"/><feOffset dy="3"/><feGaussianBlur stdDeviation="3"/><feColorMatrix values="0 0 0 0 0 0 0 0 0 0 0 0 0 0 0 0 0 0 0.04 0"/><feBlend in2="effect2_dropShadow_2180_28703" result="effect3_dropShadow_2180_28703"/><feBlend in="SourceGraphic" in2="effect3_dropShadow_2180_28703" result="shape"/></filter></defs></svg>