<svg width="16" height="16" viewBox="0 0 16 16" fill="none" xmlns="http://www.w3.org/2000/svg"><path d="M7.99984 6C7.4694 6 6.9607 6.21071 6.58562 6.58579C6.21055 6.96086 5.99984 7.46957 5.99984 8C5.99984 8.53043 6.21055 9.03914 6.58562 9.41421C6.9607 9.78929 7.4694 10 7.99984 10C8.53027 10 9.03898 9.78929 9.41405 9.41421C9.78912 9.03914 9.99984 8.53043 9.99984 8C9.99984 7.46957 9.78912 6.96086 9.41405 6.58579C9.03898 6.21071 8.53027 6 7.99984 6ZM7.99984 11.3333C7.11578 11.3333 6.26794 10.9821 5.64281 10.357C5.01769 9.7319 4.6665 8.88406 4.6665 8C4.6665 7.11595 5.01769 6.2681 5.64281 5.64298C6.26794 5.01786 7.11578 4.66667 7.99984 4.66667C8.88389 4.66667 9.73174 5.01786 10.3569 5.64298C10.982 6.2681 11.3332 7.11595 11.3332 8C11.3332 8.88406 10.982 9.7319 10.3569 10.357C9.73174 10.9821 8.88389 11.3333 7.99984 11.3333ZM7.99984 3C4.6665 3 1.81984 5.07333 0.666504 8C1.81984 10.9267 4.6665 13 7.99984 13C11.3332 13 14.1798 10.9267 15.3332 8C14.1798 5.07333 11.3332 3 7.99984 3Z" fill="#141B38"/></svg>