<svg width="263" height="200" viewBox="0 0 263 200" fill="none" xmlns="http://www.w3.org/2000/svg"><g clip-path="url(#clip0_2180_29197)"><rect width="262.5" height="200" transform="translate(0.5)" fill="#F3F4F5"/><g filter="url(#filter0_ddd_2180_29197)"><g clip-path="url(#clip1_2180_29197)"><rect x="29" y="34.1426" width="205" height="175.714" rx="2" fill="white"/><g clip-path="url(#clip2_2180_29197)"><rect width="83.6639" height="76.6214" transform="translate(47 84)" fill="#96CE89"/><circle cx="29" cy="161" r="59" fill="#B6DDAD"/></g><g clip-path="url(#clip3_2180_29197)"><rect width="40.9868" height="37.4656" transform="translate(132.354 84)" fill="#96CE89"/><g clip-path="url(#clip4_2180_29197)"><rect x="167.566" y="85.127" width="3.94375" height="3.94375" rx="1.97188" fill="white"/><path d="M170.215 86.4229V87.437H169.2V86.4229H170.215ZM170.215 86.2539H169.2C169.107 86.2539 169.031 86.33 169.031 86.4229V87.437C169.031 87.53 169.107 87.606 169.2 87.606H170.215C170.307 87.606 170.384 87.53 170.384 87.437V86.4229C170.384 86.33 170.307 86.2539 170.215 86.2539ZM168.693 86.5919V87.7751C168.693 87.868 168.769 87.9441 168.862 87.9441H170.046V87.7751H168.862V86.5919H168.693Z" fill="#141B38"/></g></g><rect width="40.9868" height="37.4656" transform="translate(132.354 123.156)" fill="#96CE89"/><g clip-path="url(#clip5_2180_29197)"><rect width="40.9868" height="37.4656" transform="translate(175.031 84)" fill="#96CE89"/><circle cx="208.5" cy="124.5" r="21.5" fill="#B6DDAD"/></g><rect width="40.9868" height="37.4656" transform="translate(175.031 123.156)" fill="#96CE89"/><g clip-path="url(#clip6_2180_29197)"><rect width="40.9868" height="37.4656" transform="translate(47 162.312)" fill="#96CE89"/><g clip-path="url(#clip7_2180_29197)"><rect x="82.2129" y="163.438" width="3.94375" height="3.94375" rx="1.97188" fill="white"/><path d="M84.861 164.734V165.749H83.8469V164.734H84.861ZM84.861 164.565H83.8469C83.7539 164.565 83.6779 164.641 83.6779 164.734V165.749C83.6779 165.842 83.7539 165.918 83.8469 165.918H84.861C84.954 165.918 85.03 165.842 85.03 165.749V164.734C85.03 164.641 84.954 164.565 84.861 164.565ZM83.3398 164.903V166.087C83.3398 166.18 83.4159 166.256 83.5089 166.256H84.692V166.087H83.5089V164.903H83.3398Z" fill="#141B38"/></g></g><rect width="40.9868" height="37.4656" transform="translate(89.6777 162.312)" fill="#96CE89"/><g clip-path="url(#clip8_2180_29197)"><rect width="83.6639" height="76.6214" transform="translate(132.354 162.312)" fill="#96CE89"/><circle cx="210.354" cy="235.312" r="59" fill="#96CE89"/></g><circle cx="56.9821" cy="59.9821" r="10.9821" fill="#B6DDAD"/><path d="M76.2012 51.146C76.2012 50.9114 76.2782 50.717 76.4322 50.563C76.5862 50.409 76.7805 50.332 77.0152 50.332H83.6592C83.8938 50.332 84.0882 50.409 84.2422 50.563C84.3962 50.717 84.4732 50.9114 84.4732 51.146V53.818C84.4732 54.0527 84.3962 54.247 84.2422 54.401C84.0882 54.555 83.8938 54.632 83.6592 54.632H77.0152C76.7805 54.632 76.5862 54.555 76.4322 54.401C76.2782 54.247 76.2012 54.0527 76.2012 53.818V51.146Z" fill="#8C8F9A"/><path d="M82.4961 51.146C82.4961 50.9114 82.5731 50.717 82.7271 50.563C82.8811 50.409 83.0754 50.332 83.3101 50.332H89.9541C90.1888 50.332 90.3831 50.409 90.5371 50.563C90.6911 50.717 90.7681 50.9114 90.7681 51.146V53.818C90.7681 54.0527 90.6911 54.247 90.5371 54.401C90.3831 54.555 90.1888 54.632 89.9541 54.632H83.3101C83.0754 54.632 82.8811 54.555 82.7271 54.401C82.5731 54.247 82.4961 54.0527 82.4961 53.818V51.146Z" fill="#8C8F9A"/><path d="M88.791 51.146C88.791 50.9114 88.868 50.717 89.022 50.563C89.176 50.409 89.3703 50.332 89.605 50.332H93.249C93.4837 50.332 93.678 50.409 93.832 50.563C93.986 50.717 94.063 50.9114 94.063 51.146V53.818C94.063 54.0527 93.986 54.247 93.832 54.401C93.678 54.555 93.4837 54.632 93.249 54.632H89.605C89.3703 54.632 89.176 54.555 89.022 54.401C88.868 54.247 88.791 54.0527 88.791 53.818V51.146Z" fill="#8C8F9A"/><path d="M92.0859 51.146C92.0859 50.9114 92.1629 50.717 92.3169 50.563C92.4709 50.409 92.6653 50.332 92.8999 50.332H99.5439C99.7786 50.332 99.9729 50.409 100.127 50.563C100.281 50.717 100.358 50.9114 100.358 51.146V53.818C100.358 54.0527 100.281 54.247 100.127 54.401C99.9729 54.555 99.7786 54.632 99.5439 54.632H92.8999C92.6653 54.632 92.4709 54.555 92.3169 54.401C92.1629 54.247 92.0859 54.0527 92.0859 53.818V51.146Z" fill="#8C8F9A"/><path d="M98.3809 51.157C98.3809 50.9224 98.4579 50.728 98.6119 50.574C98.7659 50.42 98.9602 50.343 99.1949 50.343H102.693C102.928 50.343 103.122 50.42 103.276 50.574C103.43 50.728 103.507 50.9224 103.507 51.157V53.818C103.507 54.0527 103.43 54.247 103.276 54.401C103.122 54.555 102.928 54.632 102.693 54.632H99.1949C98.9602 54.632 98.7659 54.555 98.6119 54.401C98.4579 54.247 98.3809 54.0527 98.3809 53.818V51.157Z" fill="#8C8F9A"/><path d="M101.528 51.146C101.528 50.9114 101.605 50.717 101.759 50.563C101.913 50.409 102.108 50.332 102.342 50.332H108.986C109.221 50.332 109.415 50.409 109.569 50.563C109.723 50.717 109.8 50.9114 109.8 51.146V53.818C109.8 54.0527 109.723 54.247 109.569 54.401C109.415 54.555 109.221 54.632 108.986 54.632H102.342C102.108 54.632 101.913 54.555 101.759 54.401C101.605 54.247 101.528 54.0527 101.528 53.818V51.146Z" fill="#8C8F9A"/><path d="M76.2012 59.3534C76.2012 59.1454 76.2784 58.9731 76.433 58.8366C76.5876 58.7001 76.7826 58.6318 77.0181 58.6318H83.6859C83.9214 58.6318 84.1164 58.7001 84.271 58.8366C84.4255 58.9731 84.5028 59.1454 84.5028 59.3534V61.8448C84.5028 62.0528 84.4255 62.2251 84.271 62.3616C84.1164 62.4981 83.9214 62.5663 83.6859 62.5663H77.0181C76.7826 62.5663 76.5876 62.4981 76.433 62.3616C76.2784 62.2251 76.2012 62.0528 76.2012 61.8448V59.3534Z" fill="#D0D1D7"/><path d="M82.5186 59.3534C82.5186 59.1454 82.5959 58.9731 82.7505 58.8366C82.905 58.7001 83.1 58.6318 83.3355 58.6318H90.0033C90.2388 58.6318 90.4339 58.7001 90.5884 58.8366C90.743 58.9731 90.8202 59.1454 90.8202 59.3534V61.8448C90.8202 62.0528 90.743 62.2251 90.5884 62.3616C90.4339 62.4981 90.2388 62.5663 90.0033 62.5663H83.3355C83.1 62.5663 82.905 62.4981 82.7505 62.3616C82.5959 62.2251 82.5186 62.0528 82.5186 61.8448V59.3534Z" fill="#D0D1D7"/><path d="M88.8361 59.3534C88.8361 59.1454 88.9134 58.9731 89.0679 58.8366C89.2225 58.7001 89.4175 58.6318 89.653 58.6318H96.3208C96.5563 58.6318 96.7513 58.7001 96.9059 58.8366C97.0604 58.9731 97.1377 59.1454 97.1377 59.3534V61.8448C97.1377 62.0528 97.0604 62.2251 96.9059 62.3616C96.7513 62.4981 96.5563 62.5663 96.3208 62.5663H89.653C89.4175 62.5663 89.2225 62.4981 89.0679 62.3616C88.9134 62.2251 88.8361 62.0528 88.8361 61.8448V59.3534Z" fill="#D0D1D7"/><path d="M95.1535 59.3534C95.1535 59.1454 95.2308 58.9731 95.3854 58.8366C95.5399 58.7001 95.735 58.6318 95.9705 58.6318H102.638C102.874 58.6318 103.069 58.7001 103.223 58.8366C103.378 58.9731 103.455 59.1454 103.455 59.3534V61.8448C103.455 62.0528 103.378 62.2251 103.223 62.3616C103.069 62.4981 102.874 62.5663 102.638 62.5663H95.9705C95.735 62.5663 95.5399 62.4981 95.3854 62.3616C95.2308 62.2251 95.1535 62.0528 95.1535 61.8448V59.3534Z" fill="#D0D1D7"/><path d="M101.471 59.3631C101.471 59.1551 101.548 58.9829 101.703 58.8463C101.857 58.7098 102.052 58.6416 102.288 58.6416H105.798C106.034 58.6416 106.229 58.7098 106.384 58.8463C106.538 58.9829 106.615 59.1551 106.615 59.3631V61.8448C106.615 62.0528 106.538 62.2251 106.384 62.3616C106.229 62.4981 106.034 62.5663 105.798 62.5663H102.288C102.052 62.5663 101.857 62.4981 101.703 62.3616C101.548 62.2251 101.471 62.0528 101.471 61.8448V59.3631Z" fill="#D0D1D7"/><path d="M104.63 59.3631C104.63 59.1551 104.707 58.9829 104.862 58.8463C105.016 58.7098 105.211 58.6416 105.447 58.6416H108.957C109.193 58.6416 109.388 58.7098 109.542 58.8463C109.697 58.9829 109.774 59.1551 109.774 59.3631V61.8448C109.774 62.0528 109.697 62.2251 109.542 62.3616C109.388 62.4981 109.193 62.5663 108.957 62.5663H105.447C105.211 62.5663 105.016 62.4981 104.862 62.3616C104.707 62.2251 104.63 62.0528 104.63 61.8448V59.3631Z" fill="#D0D1D7"/><path d="M107.788 59.3534C107.788 59.1454 107.866 58.9731 108.02 58.8366C108.175 58.7001 108.37 58.6318 108.605 58.6318H115.273C115.509 58.6318 115.704 58.7001 115.858 58.8366C116.013 58.9731 116.09 59.1454 116.09 59.3534V61.8448C116.09 62.0528 116.013 62.2251 115.858 62.3616C115.704 62.4981 115.509 62.5663 115.273 62.5663H108.605C108.37 62.5663 108.175 62.4981 108.02 62.3616C107.866 62.2251 107.788 62.0528 107.788 61.8448V59.3534Z" fill="#D0D1D7"/><path d="M114.106 59.3631C114.106 59.1551 114.183 58.9829 114.338 58.8463C114.492 58.7098 114.687 58.6416 114.923 58.6416H118.433C118.669 58.6416 118.864 58.7098 119.018 58.8463C119.173 58.9829 119.25 59.1551 119.25 59.3631V61.8448C119.25 62.0528 119.173 62.2251 119.018 62.3616C118.864 62.4981 118.669 62.5663 118.433 62.5663H114.923C114.687 62.5663 114.492 62.4981 114.338 62.3616C114.183 62.2251 114.106 62.0528 114.106 61.8448V59.3631Z" fill="#D0D1D7"/><path d="M117.265 59.3534C117.265 59.1454 117.342 58.9731 117.496 58.8366C117.651 58.7001 117.846 58.6318 118.082 58.6318H124.749C124.985 58.6318 125.18 58.7001 125.334 58.8366C125.489 58.9731 125.566 59.1454 125.566 59.3534V61.8448C125.566 62.0528 125.489 62.2251 125.334 62.3616C125.18 62.4981 124.985 62.5663 124.749 62.5663H118.082C117.846 62.5663 117.651 62.4981 117.496 62.3616C117.342 62.2251 117.265 62.0528 117.265 61.8448V59.3534Z" fill="#D0D1D7"/><path d="M123.582 59.3534C123.582 59.1454 123.659 58.9731 123.814 58.8366C123.968 58.7001 124.164 58.6318 124.399 58.6318H131.067C131.302 58.6318 131.497 58.7001 131.652 58.8366C131.806 58.9731 131.884 59.1454 131.884 59.3534V61.8448C131.884 62.0528 131.806 62.2251 131.652 62.3616C131.497 62.4981 131.302 62.5663 131.067 62.5663H124.399C124.164 62.5663 123.968 62.4981 123.814 62.3616C123.659 62.2251 123.582 62.0528 123.582 61.8448V59.3534Z" fill="#D0D1D7"/><path d="M129.9 59.3534C129.9 59.1454 129.977 58.9731 130.131 58.8366C130.286 58.7001 130.481 58.6318 130.716 58.6318H137.384C137.62 58.6318 137.815 58.7001 137.969 58.8366C138.124 58.9731 138.201 59.1454 138.201 59.3534V61.8448C138.201 62.0528 138.124 62.2251 137.969 62.3616C137.815 62.4981 137.62 62.5663 137.384 62.5663H130.716C130.481 62.5663 130.286 62.4981 130.131 62.3616C129.977 62.2251 129.9 62.0528 129.9 61.8448V59.3534Z" fill="#D0D1D7"/><path d="M76.2012 66.4189C76.2012 66.2109 76.2784 66.0386 76.433 65.9021C76.5876 65.7656 76.7826 65.6974 77.0181 65.6974H83.6859C83.9214 65.6974 84.1164 65.7656 84.271 65.9021C84.4255 66.0386 84.5028 66.2109 84.5028 66.4189V68.9103C84.5028 69.1183 84.4255 69.2906 84.271 69.4271C84.1164 69.5636 83.9214 69.6318 83.6859 69.6318H77.0181C76.7826 69.6318 76.5876 69.5636 76.433 69.4271C76.2784 69.2906 76.2012 69.1183 76.2012 68.9103V66.4189Z" fill="#D0D1D7"/><path d="M82.5186 66.4189C82.5186 66.2109 82.5959 66.0386 82.7505 65.9021C82.905 65.7656 83.1 65.6974 83.3355 65.6974H90.0033C90.2388 65.6974 90.4339 65.7656 90.5884 65.9021C90.743 66.0386 90.8202 66.2109 90.8202 66.4189V68.9103C90.8202 69.1183 90.743 69.2906 90.5884 69.4271C90.4339 69.5636 90.2388 69.6318 90.0033 69.6318H83.3355C83.1 69.6318 82.905 69.5636 82.7505 69.4271C82.5959 69.2906 82.5186 69.1183 82.5186 68.9103V66.4189Z" fill="#D0D1D7"/><path d="M88.8361 66.4189C88.8361 66.2109 88.9134 66.0386 89.0679 65.9021C89.2225 65.7656 89.4175 65.6974 89.653 65.6974H96.3208C96.5563 65.6974 96.7513 65.7656 96.9059 65.9021C97.0604 66.0386 97.1377 66.2109 97.1377 66.4189V68.9103C97.1377 69.1183 97.0604 69.2906 96.9059 69.4271C96.7513 69.5636 96.5563 69.6318 96.3208 69.6318H89.653C89.4175 69.6318 89.2225 69.5636 89.0679 69.4271C88.9134 69.2906 88.8361 69.1183 88.8361 68.9103V66.4189Z" fill="#D0D1D7"/><path d="M95.1535 66.4189C95.1535 66.2109 95.2308 66.0386 95.3854 65.9021C95.5399 65.7656 95.735 65.6974 95.9705 65.6974H102.638C102.874 65.6974 103.069 65.7656 103.223 65.9021C103.378 66.0386 103.455 66.2109 103.455 66.4189V68.9103C103.455 69.1183 103.378 69.2906 103.223 69.4271C103.069 69.5636 102.874 69.6318 102.638 69.6318H95.9705C95.735 69.6318 95.5399 69.5636 95.3854 69.4271C95.2308 69.2906 95.1535 69.1183 95.1535 68.9103V66.4189Z" fill="#D0D1D7"/><path d="M101.471 66.4189C101.471 66.2109 101.548 66.0386 101.703 65.9021C101.857 65.7656 102.052 65.6974 102.288 65.6974H108.956C109.191 65.6974 109.386 65.7656 109.541 65.9021C109.695 66.0386 109.773 66.2109 109.773 66.4189V68.9103C109.773 69.1183 109.695 69.2906 109.541 69.4271C109.386 69.5636 109.191 69.6318 108.956 69.6318H102.288C102.052 69.6318 101.857 69.5636 101.703 69.4271C101.548 69.2906 101.471 69.1183 101.471 68.9103V66.4189Z" fill="#D0D1D7"/><path d="M107.788 66.4189C107.788 66.2109 107.866 66.0386 108.02 65.9021C108.175 65.7656 108.37 65.6974 108.605 65.6974H115.273C115.509 65.6974 115.704 65.7656 115.858 65.9021C116.013 66.0386 116.09 66.2109 116.09 66.4189V68.9103C116.09 69.1183 116.013 69.2906 115.858 69.4271C115.704 69.5636 115.509 69.6318 115.273 69.6318H108.605C108.37 69.6318 108.175 69.5636 108.02 69.4271C107.866 69.2906 107.788 69.1183 107.788 68.9103V66.4189Z" fill="#D0D1D7"/><path d="M114.106 66.4189C114.106 66.2109 114.183 66.0386 114.338 65.9021C114.492 65.7656 114.687 65.6974 114.923 65.6974H121.591C121.826 65.6974 122.021 65.7656 122.176 65.9021C122.33 66.0386 122.408 66.2109 122.408 66.4189V68.9103C122.408 69.1183 122.33 69.2906 122.176 69.4271C122.021 69.5636 121.826 69.6318 121.591 69.6318H114.923C114.687 69.6318 114.492 69.5636 114.338 69.4271C114.183 69.2906 114.106 69.1183 114.106 68.9103V66.4189Z" fill="#D0D1D7"/><path d="M120.423 66.4286C120.423 66.2206 120.501 66.0484 120.655 65.9119C120.81 65.7754 121.005 65.7071 121.24 65.7071H124.751C124.986 65.7071 125.181 65.7754 125.336 65.9119C125.49 66.0484 125.568 66.2206 125.568 66.4286V68.9103C125.568 69.1183 125.49 69.2906 125.336 69.4271C125.181 69.5636 124.986 69.6318 124.751 69.6318H121.24C121.005 69.6318 120.81 69.5636 120.655 69.4271C120.501 69.2906 120.423 69.1183 120.423 68.9103V66.4286Z" fill="#D0D1D7"/><rect x="187.271" y="49" width="26.7277" height="10.4911" rx="0.915179" fill="#0096CC"/><g clip-path="url(#clip9_2180_29197)"><path d="M193.219 53.2177C192.647 53.2177 192.192 53.6825 192.192 54.2455C192.192 54.8175 192.647 55.2733 193.219 55.2733C193.782 55.2733 194.247 54.8175 194.247 54.2455C194.247 53.6825 193.782 53.2177 193.219 53.2177ZM193.219 54.9158C192.853 54.9158 192.549 54.6209 192.549 54.2455C192.549 53.8791 192.844 53.5842 193.219 53.5842C193.586 53.5842 193.881 53.8791 193.881 54.2455C193.881 54.6209 193.586 54.9158 193.219 54.9158ZM194.524 53.182C194.524 53.0479 194.417 52.9407 194.283 52.9407C194.149 52.9407 194.042 53.0479 194.042 53.182C194.042 53.3161 194.149 53.4233 194.283 53.4233C194.417 53.4233 194.524 53.3161 194.524 53.182ZM195.203 53.4233C195.186 53.1016 195.114 52.8156 194.882 52.5832C194.649 52.3508 194.363 52.2793 194.042 52.2615C193.711 52.2436 192.719 52.2436 192.388 52.2615C192.066 52.2793 191.789 52.3508 191.548 52.5832C191.316 52.8156 191.244 53.1016 191.226 53.4233C191.208 53.754 191.208 54.746 191.226 55.0767C191.244 55.3984 191.316 55.6755 191.548 55.9168C191.789 56.1492 192.066 56.2207 192.388 56.2385C192.719 56.2564 193.711 56.2564 194.042 56.2385C194.363 56.2207 194.649 56.1492 194.882 55.9168C195.114 55.6755 195.186 55.3984 195.203 55.0767C195.221 54.746 195.221 53.754 195.203 53.4233ZM194.774 55.4253C194.712 55.604 194.569 55.7381 194.399 55.8096C194.131 55.9168 193.505 55.89 193.219 55.89C192.924 55.89 192.299 55.9168 192.04 55.8096C191.861 55.7381 191.727 55.604 191.655 55.4253C191.548 55.1661 191.575 54.5405 191.575 54.2455C191.575 53.9595 191.548 53.3339 191.655 53.0658C191.727 52.896 191.861 52.7619 192.04 52.6904C192.299 52.5832 192.924 52.61 193.219 52.61C193.505 52.61 194.131 52.5832 194.399 52.6904C194.569 52.753 194.703 52.896 194.774 53.0658C194.882 53.3339 194.855 53.9595 194.855 54.2455C194.855 54.5405 194.882 55.1661 194.774 55.4253Z" fill="white"/></g><path d="M197.625 55.7451H198.152V54.5093H199.361V54.0676H198.152V53.2778H199.488V52.836H197.625V55.7451ZM200.777 55.7877C201.417 55.7877 201.823 55.3374 201.823 54.6627C201.823 53.9866 201.417 53.5349 200.777 53.5349C200.138 53.5349 199.732 53.9866 199.732 54.6627C199.732 55.3374 200.138 55.7877 200.777 55.7877ZM200.78 55.3758C200.427 55.3758 200.253 55.0605 200.253 54.6613C200.253 54.2622 200.427 53.9426 200.78 53.9426C201.128 53.9426 201.302 54.2622 201.302 54.6613C201.302 55.0605 201.128 55.3758 200.78 55.3758ZM202.813 52.836H202.299V55.7451H202.813V52.836ZM203.896 52.836H203.382V55.7451H203.896V52.836ZM205.417 55.7877C206.056 55.7877 206.462 55.3374 206.462 54.6627C206.462 53.9866 206.056 53.5349 205.417 53.5349C204.778 53.5349 204.371 53.9866 204.371 54.6627C204.371 55.3374 204.778 55.7877 205.417 55.7877ZM205.42 55.3758C205.066 55.3758 204.893 55.0605 204.893 54.6613C204.893 54.2622 205.066 53.9426 205.42 53.9426C205.768 53.9426 205.941 54.2622 205.941 54.6613C205.941 55.0605 205.768 55.3758 205.42 55.3758ZM207.331 55.7451H207.867L208.277 54.2707H208.306L208.715 55.7451H209.251L209.869 53.5633H209.343L208.965 55.0889H208.944L208.552 53.5633H208.034L207.642 55.0974H207.622L207.238 53.5633H206.714L207.331 55.7451Z" fill="white"/></g></g></g><defs><filter id="filter0_ddd_2180_29197" x="16" y="27.1426" width="231" height="201.714" filterUnits="userSpaceOnUse" color-interpolation-filters="sRGB"><feFlood flood-opacity="0" result="BackgroundImageFix"/><feColorMatrix in="SourceAlpha" type="matrix" values="0 0 0 0 0 0 0 0 0 0 0 0 0 0 0 0 0 0 127 0" result="hardAlpha"/><feOffset dy="6"/><feGaussianBlur stdDeviation="6.5"/><feColorMatrix type="matrix" values="0 0 0 0 0 0 0 0 0 0 0 0 0 0 0 0 0 0 0.03 0"/><feBlend mode="normal" in2="BackgroundImageFix" result="effect1_dropShadow_2180_29197"/><feColorMatrix in="SourceAlpha" type="matrix" values="0 0 0 0 0 0 0 0 0 0 0 0 0 0 0 0 0 0 127 0" result="hardAlpha"/><feOffset dy="1"/><feGaussianBlur stdDeviation="1"/><feColorMatrix type="matrix" values="0 0 0 0 0 0 0 0 0 0 0 0 0 0 0 0 0 0 0.11 0"/><feBlend mode="normal" in2="effect1_dropShadow_2180_29197" result="effect2_dropShadow_2180_29197"/><feColorMatrix in="SourceAlpha" type="matrix" values="0 0 0 0 0 0 0 0 0 0 0 0 0 0 0 0 0 0 127 0" result="hardAlpha"/><feOffset dy="3"/><feGaussianBlur stdDeviation="3"/><feColorMatrix type="matrix" values="0 0 0 0 0 0 0 0 0 0 0 0 0 0 0 0 0 0 0.04 0"/><feBlend mode="normal" in2="effect2_dropShadow_2180_29197" result="effect3_dropShadow_2180_29197"/><feBlend mode="normal" in="SourceGraphic" in2="effect3_dropShadow_2180_29197" result="shape"/></filter><clipPath id="clip0_2180_29197"><rect width="262.5" height="200" fill="white" transform="translate(0.5)"/></clipPath><clipPath id="clip1_2180_29197"><rect x="29" y="34.1426" width="205" height="175.714" rx="2" fill="white"/></clipPath><clipPath id="clip2_2180_29197"><rect width="83.6639" height="76.6214" fill="white" transform="translate(47 84)"/></clipPath><clipPath id="clip3_2180_29197"><rect width="40.9868" height="37.4656" fill="white" transform="translate(132.354 84)"/></clipPath><clipPath id="clip4_2180_29197"><rect x="167.566" y="85.127" width="3.94375" height="3.94375" rx="1.97188" fill="white"/></clipPath><clipPath id="clip5_2180_29197"><rect width="40.9868" height="37.4656" fill="white" transform="translate(175.031 84)"/></clipPath><clipPath id="clip6_2180_29197"><rect width="40.9868" height="37.4656" fill="white" transform="translate(47 162.312)"/></clipPath><clipPath id="clip7_2180_29197"><rect x="82.2129" y="163.438" width="3.94375" height="3.94375" rx="1.97188" fill="white"/></clipPath><clipPath id="clip8_2180_29197"><rect width="83.6639" height="76.6214" fill="white" transform="translate(132.354 162.312)"/></clipPath><clipPath id="clip9_2180_29197"><rect width="4.57589" height="4.57589" fill="white" transform="translate(190.932 51.958)"/></clipPath></defs></svg>