<svg width="67" height="64" viewBox="0 0 67 64" fill="none" xmlns="http://www.w3.org/2000/svg"><g filter="url(#filter0_dd_3957_37768)"><rect x="5" y="1" width="47" height="47" rx="23.5" fill="#0068A0"/><path d="M35.5013 27.25H33.3346V29.4167H35.5013V27.25ZM35.5013 22.9167H33.3346V25.0833H35.5013V22.9167ZM37.668 31.5833H29.0013V29.4167H31.168V27.25H29.0013V25.0833H31.168V22.9167H29.0013V20.75H37.668V31.5833ZM26.8346 18.5833H24.668V16.4167H26.8346V18.5833ZM26.8346 22.9167H24.668V20.75H26.8346V22.9167ZM26.8346 27.25H24.668V25.0833H26.8346V27.25ZM26.8346 31.5833H24.668V29.4167H26.8346V31.5833ZM22.5013 18.5833H20.3346V16.4167H22.5013V18.5833ZM22.5013 22.9167H20.3346V20.75H22.5013V22.9167ZM22.5013 27.25H20.3346V25.0833H22.5013V27.25ZM22.5013 31.5833H20.3346V29.4167H22.5013V31.5833ZM29.0013 18.5833V14.25H18.168V33.75H39.8346V18.5833H29.0013Z" fill="white"/></g><g filter="url(#filter1_dd_3957_37768)"><rect x="33" y="27.5" width="30" height="30" rx="15" fill="#ED4944"/><mask id="mask0_3957_37768" style="mask-type:alpha" maskUnits="userSpaceOnUse" x="40" y="35" width="16" height="16"><rect x="40.0195" y="35.1597" width="15.3191" height="15.3191" fill="#D9D9D9"/></mask><g mask="url(#mask0_3957_37768)"><path d="M46.8182 47.7979L45.7171 46.7926C44.5894 45.7606 43.5708 44.7367 42.6612 43.7208C41.7517 42.7048 41.2969 41.5851 41.2969 40.3617C41.2969 39.3617 41.632 38.5266 42.3022 37.8564C42.9724 37.1862 43.8075 36.8511 44.8075 36.8511C45.3713 36.8511 45.9033 36.9708 46.4033 37.2101C46.9033 37.4495 47.3288 37.7766 47.6799 38.1915C48.0309 37.7766 48.4564 37.4495 48.9564 37.2101C49.4565 36.9708 49.9884 36.8511 50.5522 36.8511C51.5522 36.8511 52.3873 37.1862 53.0575 37.8564C53.7277 38.5266 54.0628 39.3617 54.0628 40.3617C54.0628 41.5851 53.6107 42.7075 52.7065 43.7287C51.8022 44.75 50.7756 45.7766 49.6267 46.8085L48.5416 47.7979C48.2969 48.0213 48.0096 48.133 47.6799 48.133C47.3501 48.133 47.0628 48.0213 46.8182 47.7979Z" fill="white"/></g></g><defs><filter id="filter0_dd_3957_37768" x="0" y="0" width="57" height="57" filterUnits="userSpaceOnUse" color-interpolation-filters="sRGB"><feFlood flood-opacity="0" result="BackgroundImageFix"/><feColorMatrix in="SourceAlpha" type="matrix" values="0 0 0 0 0 0 0 0 0 0 0 0 0 0 0 0 0 0 127 0" result="hardAlpha"/><feOffset dy="4"/><feGaussianBlur stdDeviation="2.5"/><feColorMatrix type="matrix" values="0 0 0 0 0 0 0 0 0 0 0 0 0 0 0 0 0 0 0.05 0"/><feBlend mode="normal" in2="BackgroundImageFix" result="effect1_dropShadow_3957_37768"/><feColorMatrix in="SourceAlpha" type="matrix" values="0 0 0 0 0 0 0 0 0 0 0 0 0 0 0 0 0 0 127 0" result="hardAlpha"/><feOffset dy="1"/><feGaussianBlur stdDeviation="1"/><feColorMatrix type="matrix" values="0 0 0 0 0 0 0 0 0 0 0 0 0 0 0 0 0 0 0.05 0"/><feBlend mode="normal" in2="effect1_dropShadow_3957_37768" result="effect2_dropShadow_3957_37768"/><feBlend mode="normal" in="SourceGraphic" in2="effect2_dropShadow_3957_37768" result="shape"/></filter><filter id="filter1_dd_3957_37768" x="29.8085" y="26.8617" width="36.383" height="36.383" filterUnits="userSpaceOnUse" color-interpolation-filters="sRGB"><feFlood flood-opacity="0" result="BackgroundImageFix"/><feColorMatrix in="SourceAlpha" type="matrix" values="0 0 0 0 0 0 0 0 0 0 0 0 0 0 0 0 0 0 127 0" result="hardAlpha"/><feOffset dy="2.55319"/><feGaussianBlur stdDeviation="1.59574"/><feColorMatrix type="matrix" values="0 0 0 0 0 0 0 0 0 0 0 0 0 0 0 0 0 0 0.05 0"/><feBlend mode="normal" in2="BackgroundImageFix" result="effect1_dropShadow_3957_37768"/><feColorMatrix in="SourceAlpha" type="matrix" values="0 0 0 0 0 0 0 0 0 0 0 0 0 0 0 0 0 0 127 0" result="hardAlpha"/><feOffset dy="0.638298"/><feGaussianBlur stdDeviation="0.638298"/><feColorMatrix type="matrix" values="0 0 0 0 0 0 0 0 0 0 0 0 0 0 0 0 0 0 0.05 0"/><feBlend mode="normal" in2="effect1_dropShadow_3957_37768" result="effect2_dropShadow_3957_37768"/><feBlend mode="normal" in="SourceGraphic" in2="effect2_dropShadow_3957_37768" result="shape"/></filter></defs></svg>