<svg width="263" height="200" viewBox="0 0 263 200" fill="none" xmlns="http://www.w3.org/2000/svg"><g clip-path="url(#clip0_2180_28903)"><rect width="262.5" height="200" transform="translate(0.5)" fill="#F3F4F5"/><g filter="url(#filter0_dd_2180_28903)"><g clip-path="url(#clip1_2180_28903)"><rect x="34.5" y="67" width="63.6871" height="103.927" rx="0.893854" fill="white"/><g clip-path="url(#clip2_2180_28903)"><rect width="63.6871" height="80.8938" transform="translate(34.5 67)" fill="#8C8F9A"/><circle opacity="0.5" cx="107.5" cy="128.5" r="46.5" fill="#D0D1D7"/></g><rect x="38.5" y="151.894" width="55.6871" height="3" rx="0.5" fill="#D0D1D7"/><path d="M38.5 158.394C38.5 158.117 38.7239 157.894 39 157.894H71C71.2761 157.894 71.5 158.117 71.5 158.394V160.394C71.5 160.67 71.2761 160.894 71 160.894H39C38.7239 160.894 38.5 160.67 38.5 160.394V158.394Z" fill="#D0D1D7"/><g clip-path="url(#clip3_2180_28903)"><path d="M40.959 164.021V164.044C41.2753 164.044 41.5325 164.301 41.5325 164.617C41.5325 164.957 41.3308 165.284 41.0705 165.568C40.8157 165.845 40.5078 166.077 40.2886 166.232C40.0694 166.077 39.7615 165.845 39.5067 165.568C39.2463 165.284 39.0446 164.957 39.0446 164.617C39.0446 164.301 39.3019 164.044 39.6182 164.044V164.021L39.6181 164.044C39.7103 164.044 39.801 164.066 39.8826 164.109C39.9643 164.151 40.0346 164.213 40.0875 164.288L40.0875 164.288L40.2703 164.549L40.2886 164.575L40.3069 164.549L40.4897 164.288L40.4897 164.288C40.5425 164.213 40.6128 164.151 40.6945 164.109C40.7761 164.066 40.8669 164.044 40.959 164.044L40.959 164.021ZM40.959 164.021C41.2876 164.021 41.5549 164.289 41.5549 164.617C41.5549 165.313 40.7291 165.949 40.2886 166.259L40.4714 164.276C40.5263 164.197 40.5993 164.133 40.6841 164.089C40.769 164.045 40.8633 164.021 40.959 164.021ZM40.2886 166.559L40.2759 166.55C40.0151 166.37 39.6409 166.104 39.3319 165.774C39.0232 165.446 38.7765 165.052 38.7765 164.617C38.7765 164.394 38.8652 164.18 39.023 164.022C39.1809 163.864 39.395 163.776 39.6182 163.776L40.2886 166.559ZM40.2886 166.559L40.3013 166.55M40.2886 166.559L40.3013 166.55M40.3013 166.55C40.5621 166.37 40.9362 166.104 41.2453 165.774C41.554 165.446 41.8007 165.052 41.8007 164.617C41.8007 164.507 41.7789 164.397 41.7366 164.295C41.6943 164.193 41.6323 164.1 41.5542 164.022C41.476 163.944 41.3832 163.882 41.2811 163.84C41.179 163.797 41.0695 163.776 40.959 163.776C40.8238 163.775 40.6906 163.808 40.5707 163.871M40.3013 166.55L40.5707 163.871M40.5707 163.871C40.46 163.928 40.3637 164.01 40.2886 164.109M40.5707 163.871L40.2886 164.109M40.2886 164.109C40.2135 164.01 40.1172 163.928 40.0065 163.871C39.8866 163.808 39.7534 163.775 39.6182 163.776L40.2886 164.109Z" fill="#434960" stroke="#434960" stroke-width="0.0446927"/></g><g clip-path="url(#clip4_2180_28903)"><path d="M48.3318 163.648C48.1362 163.648 47.9425 163.687 47.7617 163.762C47.581 163.837 47.4168 163.946 47.2784 164.085C46.999 164.364 46.8421 164.743 46.8421 165.138C46.8408 165.482 46.9599 165.816 47.1788 166.081L46.8808 166.379C46.8602 166.4 46.8461 166.427 46.8406 166.456C46.835 166.485 46.8381 166.514 46.8495 166.542C46.8619 166.568 46.882 166.591 46.9072 166.606C46.9324 166.622 46.9616 166.629 46.9911 166.628H48.3318C48.727 166.628 49.1059 166.471 49.3853 166.192C49.6646 165.912 49.8216 165.533 49.8216 165.138C49.8216 164.743 49.6646 164.364 49.3853 164.085C49.1059 163.805 48.727 163.648 48.3318 163.648ZM48.3318 166.33H47.3501L47.4886 166.191C47.5164 166.164 47.532 166.126 47.532 166.086C47.532 166.047 47.5164 166.009 47.4886 165.981C47.2936 165.787 47.1721 165.53 47.1449 165.256C47.1177 164.981 47.1865 164.706 47.3396 164.477C47.4926 164.247 47.7204 164.078 47.9842 163.998C48.248 163.918 48.5315 163.931 48.7863 164.037C49.0411 164.142 49.2515 164.333 49.3816 164.576C49.5117 164.819 49.5536 165.099 49.5 165.37C49.4464 165.64 49.3007 165.884 49.0877 166.059C48.8747 166.234 48.6076 166.33 48.3318 166.33Z" fill="#434960"/></g></g></g><g filter="url(#filter1_dd_2180_28903)"><g clip-path="url(#clip5_2180_28903)"><rect x="34.5" y="174.279" width="63.6871" height="105.475" rx="0.893854" fill="white"/><g clip-path="url(#clip6_2180_28903)"><rect width="63.6871" height="80.8938" transform="translate(34.5 174.279)" fill="#8C8F9A"/></g></g><rect x="34.6117" y="174.391" width="63.4636" height="105.251" rx="0.782122" stroke="#F3F4F5" stroke-width="0.223464"/></g><g filter="url(#filter2_dd_2180_28903)"><g clip-path="url(#clip7_2180_28903)"><rect x="102.656" y="67.001" width="63.6871" height="82.4748" rx="0.893854" fill="white"/><rect width="63.6871" height="59.4413" transform="translate(102.656 67.001)" fill="#8C8F9A"/><rect x="126.119" y="88.2305" width="16.9832" height="16.9832" rx="8.49161" fill="white"/><path d="M132.6 94.6262C132.6 94.4601 132.774 94.3521 132.923 94.4263L137.786 96.8581C137.951 96.9404 137.951 97.1755 137.786 97.2578L132.923 99.6895C132.774 99.7638 132.6 99.6558 132.6 99.4897V94.6262Z" fill="black"/><rect x="106.656" y="130.442" width="55.6871" height="3" rx="0.5" fill="#D0D1D7"/><path d="M106.656 136.942C106.656 136.666 106.88 136.442 107.156 136.442H139.156C139.432 136.442 139.656 136.666 139.656 136.942V138.942C139.656 139.219 139.432 139.442 139.156 139.442H107.156C106.88 139.442 106.656 139.219 106.656 138.942V136.942Z" fill="#D0D1D7"/><g clip-path="url(#clip8_2180_28903)"><path d="M109.115 142.57V142.592C109.432 142.592 109.689 142.85 109.689 143.166C109.689 143.505 109.487 143.833 109.227 144.117C108.972 144.394 108.664 144.626 108.445 144.781C108.226 144.626 107.918 144.394 107.663 144.117C107.403 143.833 107.201 143.505 107.201 143.166C107.201 142.85 107.458 142.592 107.774 142.592V142.57L107.774 142.592C107.867 142.593 107.957 142.615 108.039 142.658C108.121 142.7 108.191 142.762 108.244 142.837L108.244 142.837L108.427 143.097L108.445 143.123L108.463 143.097L108.646 142.837L108.646 142.837C108.699 142.762 108.769 142.7 108.851 142.658C108.932 142.615 109.023 142.593 109.115 142.592L109.115 142.57ZM109.115 142.57C109.444 142.57 109.711 142.837 109.711 143.166C109.711 143.862 108.885 144.498 108.445 144.808L108.628 142.824C108.683 142.746 108.756 142.682 108.84 142.638C108.925 142.593 109.02 142.57 109.115 142.57ZM108.445 145.108L108.432 145.099C108.171 144.919 107.797 144.652 107.488 144.323C107.179 143.995 106.933 143.601 106.933 143.166C106.933 142.943 107.021 142.729 107.179 142.571C107.337 142.413 107.551 142.324 107.774 142.324L108.445 145.108ZM108.445 145.108L108.458 145.099M108.445 145.108L108.458 145.099M108.458 145.099C108.718 144.919 109.092 144.652 109.402 144.323C109.71 143.995 109.957 143.601 109.957 143.166C109.957 143.056 109.935 142.946 109.893 142.844C109.851 142.742 109.789 142.649 109.71 142.571C109.632 142.493 109.539 142.431 109.437 142.388C109.335 142.346 109.226 142.324 109.115 142.324C108.98 142.324 108.847 142.357 108.727 142.419M108.458 145.099L108.727 142.419M108.727 142.419C108.616 142.477 108.52 142.559 108.445 142.658M108.727 142.419L108.445 142.658M108.445 142.658C108.37 142.559 108.273 142.477 108.163 142.419C108.043 142.357 107.91 142.324 107.774 142.324L108.445 142.658Z" fill="#434960" stroke="#434960" stroke-width="0.0446927"/></g><g clip-path="url(#clip9_2180_28903)"><path d="M116.488 142.197C116.292 142.197 116.099 142.236 115.918 142.311C115.737 142.386 115.573 142.495 115.435 142.634C115.155 142.913 114.998 143.292 114.998 143.687C114.997 144.031 115.116 144.365 115.335 144.63L115.037 144.928C115.016 144.949 115.002 144.976 114.997 145.004C114.991 145.033 114.994 145.063 115.006 145.09C115.018 145.117 115.038 145.14 115.063 145.155C115.089 145.17 115.118 145.178 115.147 145.177H116.488C116.883 145.177 117.262 145.02 117.542 144.74C117.821 144.461 117.978 144.082 117.978 143.687C117.978 143.292 117.821 142.913 117.542 142.634C117.262 142.354 116.883 142.197 116.488 142.197ZM116.488 144.879H115.506L115.645 144.74C115.673 144.712 115.688 144.675 115.688 144.635C115.688 144.596 115.673 144.558 115.645 144.53C115.45 144.335 115.328 144.079 115.301 143.805C115.274 143.53 115.343 143.255 115.496 143.025C115.649 142.796 115.877 142.627 116.14 142.547C116.404 142.467 116.688 142.48 116.943 142.586C117.197 142.691 117.408 142.881 117.538 143.124C117.668 143.368 117.71 143.648 117.656 143.919C117.603 144.189 117.457 144.433 117.244 144.608C117.031 144.783 116.764 144.879 116.488 144.879Z" fill="#434960"/></g></g></g><g filter="url(#filter3_dd_2180_28903)"><g clip-path="url(#clip10_2180_28903)"><rect x="102.656" y="152.828" width="63.6871" height="105.475" rx="0.893854" fill="white"/><rect width="63.6871" height="80.8938" transform="translate(102.656 152.828)" fill="#8C8F9A"/></g><rect x="102.768" y="152.94" width="63.4636" height="105.251" rx="0.782122" stroke="#F3F4F5" stroke-width="0.223464"/></g><g filter="url(#filter4_dd_2180_28903)"><g clip-path="url(#clip11_2180_28903)"><rect x="170.812" y="67.001" width="63.6871" height="103.48" rx="0.893854" fill="white"/><g clip-path="url(#clip12_2180_28903)"><rect width="63.6871" height="80.8938" transform="translate(170.812 67.001)" fill="#8C8F9A"/><rect opacity="0.5" x="149" y="147.841" width="62" height="68" transform="rotate(-45 149 147.841)" fill="#D0D1D7"/></g><rect x="174.812" y="151.448" width="55.6871" height="3" rx="0.5" fill="#D0D1D7"/><path d="M174.812 157.948C174.812 157.672 175.036 157.448 175.312 157.448H207.312C207.589 157.448 207.812 157.672 207.812 157.948V159.948C207.812 160.224 207.589 160.448 207.312 160.448H175.312C175.036 160.448 174.812 160.224 174.812 159.948V157.948Z" fill="#D0D1D7"/><g clip-path="url(#clip13_2180_28903)"><path d="M177.271 163.576V163.598C177.588 163.598 177.845 163.856 177.845 164.172C177.845 164.511 177.643 164.839 177.383 165.122C177.128 165.4 176.82 165.632 176.601 165.787C176.382 165.632 176.074 165.4 175.819 165.122C175.559 164.839 175.357 164.511 175.357 164.172C175.357 163.856 175.614 163.598 175.931 163.598V163.576L175.931 163.598C176.023 163.599 176.113 163.621 176.195 163.663C176.277 163.706 176.347 163.768 176.4 163.843L176.4 163.843L176.583 164.103L176.601 164.129L176.619 164.103L176.802 163.843L176.802 163.843C176.855 163.768 176.925 163.706 177.007 163.663C177.089 163.621 177.179 163.599 177.272 163.598L177.271 163.576ZM177.271 163.576C177.6 163.576 177.867 163.843 177.867 164.172C177.867 164.868 177.042 165.504 176.601 165.814L176.784 163.83C176.839 163.752 176.912 163.688 176.997 163.644C177.081 163.599 177.176 163.576 177.271 163.576ZM176.601 166.113L176.588 166.105C176.328 165.925 175.953 165.658 175.644 165.329C175.336 165.001 175.089 164.606 175.089 164.172C175.089 163.949 175.178 163.735 175.336 163.577C175.493 163.419 175.707 163.33 175.931 163.33L176.601 166.113ZM176.601 166.113L176.614 166.105M176.601 166.113L176.614 166.105M176.614 166.105C176.875 165.925 177.249 165.658 177.558 165.329C177.866 165.001 178.113 164.606 178.113 164.172C178.113 164.061 178.091 163.952 178.049 163.85C178.007 163.748 177.945 163.655 177.867 163.577C177.788 163.499 177.696 163.437 177.594 163.394C177.491 163.352 177.382 163.33 177.271 163.33C177.136 163.33 177.003 163.363 176.883 163.425M176.614 166.105L176.883 163.425M176.883 163.425C176.773 163.483 176.676 163.564 176.601 163.664M176.883 163.425L176.601 163.664M176.601 163.664C176.526 163.564 176.43 163.483 176.319 163.425C176.199 163.363 176.066 163.33 175.931 163.33L176.601 163.664Z" fill="#434960" stroke="#434960" stroke-width="0.0446927"/></g><g clip-path="url(#clip14_2180_28903)"><path d="M184.644 163.203C184.449 163.203 184.255 163.242 184.074 163.317C183.893 163.391 183.729 163.501 183.591 163.639C183.312 163.919 183.155 164.298 183.155 164.693C183.153 165.037 183.272 165.371 183.491 165.636L183.193 165.934C183.173 165.955 183.159 165.981 183.153 166.01C183.148 166.039 183.151 166.069 183.162 166.096C183.174 166.123 183.194 166.146 183.22 166.161C183.245 166.176 183.274 166.184 183.304 166.183H184.644C185.039 166.183 185.418 166.026 185.698 165.746C185.977 165.467 186.134 165.088 186.134 164.693C186.134 164.298 185.977 163.919 185.698 163.639C185.418 163.36 185.039 163.203 184.644 163.203ZM184.644 165.885H183.663L183.801 165.746C183.829 165.718 183.844 165.68 183.844 165.641C183.844 165.602 183.829 165.564 183.801 165.536C183.606 165.341 183.485 165.085 183.457 164.81C183.43 164.536 183.499 164.261 183.652 164.031C183.805 163.802 184.033 163.633 184.297 163.553C184.561 163.472 184.844 163.486 185.099 163.591C185.354 163.697 185.564 163.887 185.694 164.13C185.824 164.373 185.866 164.654 185.812 164.925C185.759 165.195 185.613 165.439 185.4 165.614C185.187 165.789 184.92 165.884 184.644 165.885Z" fill="#434960"/></g></g></g><g filter="url(#filter5_dd_2180_28903)"><g clip-path="url(#clip15_2180_28903)"><rect x="170.812" y="173.833" width="63.6871" height="105.475" rx="0.893854" fill="white"/><g clip-path="url(#clip16_2180_28903)"><rect width="63.6871" height="80.8938" transform="translate(170.812 173.833)" fill="#8C8F9A"/></g></g><rect x="170.924" y="173.945" width="63.4636" height="105.251" rx="0.782122" stroke="#F3F4F5" stroke-width="0.223464"/></g><circle cx="45.9821" cy="37.9821" r="10.9821" fill="#8C8F9A"/><path d="M65.2012 29.146C65.2012 28.9114 65.2782 28.717 65.4322 28.563C65.5862 28.409 65.7805 28.332 66.0152 28.332H72.6592C72.8938 28.332 73.0882 28.409 73.2422 28.563C73.3962 28.717 73.4732 28.9114 73.4732 29.146V31.818C73.4732 32.0527 73.3962 32.247 73.2422 32.401C73.0882 32.555 72.8938 32.632 72.6592 32.632H66.0152C65.7805 32.632 65.5862 32.555 65.4322 32.401C65.2782 32.247 65.2012 32.0527 65.2012 31.818V29.146Z" fill="#8C8F9A"/><path d="M71.4961 29.146C71.4961 28.9114 71.5731 28.717 71.7271 28.563C71.8811 28.409 72.0754 28.332 72.3101 28.332H78.9541C79.1888 28.332 79.3831 28.409 79.5371 28.563C79.6911 28.717 79.7681 28.9114 79.7681 29.146V31.818C79.7681 32.0527 79.6911 32.247 79.5371 32.401C79.3831 32.555 79.1888 32.632 78.9541 32.632H72.3101C72.0754 32.632 71.8811 32.555 71.7271 32.401C71.5731 32.247 71.4961 32.0527 71.4961 31.818V29.146Z" fill="#8C8F9A"/><path d="M77.791 29.146C77.791 28.9114 77.868 28.717 78.022 28.563C78.176 28.409 78.3703 28.332 78.605 28.332H82.249C82.4837 28.332 82.678 28.409 82.832 28.563C82.986 28.717 83.063 28.9114 83.063 29.146V31.818C83.063 32.0527 82.986 32.247 82.832 32.401C82.678 32.555 82.4837 32.632 82.249 32.632H78.605C78.3703 32.632 78.176 32.555 78.022 32.401C77.868 32.247 77.791 32.0527 77.791 31.818V29.146Z" fill="#8C8F9A"/><path d="M81.0859 29.146C81.0859 28.9114 81.1629 28.717 81.3169 28.563C81.4709 28.409 81.6653 28.332 81.8999 28.332H88.5439C88.7786 28.332 88.9729 28.409 89.1269 28.563C89.2809 28.717 89.3579 28.9114 89.3579 29.146V31.818C89.3579 32.0527 89.2809 32.247 89.1269 32.401C88.9729 32.555 88.7786 32.632 88.5439 32.632H81.8999C81.6653 32.632 81.4709 32.555 81.3169 32.401C81.1629 32.247 81.0859 32.0527 81.0859 31.818V29.146Z" fill="#8C8F9A"/><path d="M87.3809 29.157C87.3809 28.9224 87.4579 28.728 87.6119 28.574C87.7659 28.42 87.9602 28.343 88.1949 28.343H91.6929C91.9275 28.343 92.1219 28.42 92.2759 28.574C92.4299 28.728 92.5069 28.9224 92.5069 29.157V31.818C92.5069 32.0527 92.4299 32.247 92.2759 32.401C92.1219 32.555 91.9275 32.632 91.6929 32.632H88.1949C87.9602 32.632 87.7659 32.555 87.6119 32.401C87.4579 32.247 87.3809 32.0527 87.3809 31.818V29.157Z" fill="#8C8F9A"/><path d="M90.5283 29.146C90.5283 28.9114 90.6053 28.717 90.7593 28.563C90.9133 28.409 91.1077 28.332 91.3423 28.332H97.9863C98.221 28.332 98.4153 28.409 98.5693 28.563C98.7233 28.717 98.8003 28.9114 98.8003 29.146V31.818C98.8003 32.0527 98.7233 32.247 98.5693 32.401C98.4153 32.555 98.221 32.632 97.9863 32.632H91.3423C91.1077 32.632 90.9133 32.555 90.7593 32.401C90.6053 32.247 90.5283 32.0527 90.5283 31.818V29.146Z" fill="#8C8F9A"/><path d="M65.2012 37.3534C65.2012 37.1454 65.2784 36.9731 65.433 36.8366C65.5876 36.7001 65.7826 36.6318 66.0181 36.6318H72.6859C72.9214 36.6318 73.1164 36.7001 73.271 36.8366C73.4255 36.9731 73.5028 37.1454 73.5028 37.3534V39.8448C73.5028 40.0528 73.4255 40.2251 73.271 40.3616C73.1164 40.4981 72.9214 40.5663 72.6859 40.5663H66.0181C65.7826 40.5663 65.5876 40.4981 65.433 40.3616C65.2784 40.2251 65.2012 40.0528 65.2012 39.8448V37.3534Z" fill="#D0D1D7"/><path d="M71.5186 37.3534C71.5186 37.1454 71.5959 36.9731 71.7505 36.8366C71.905 36.7001 72.1 36.6318 72.3355 36.6318H79.0033C79.2388 36.6318 79.4339 36.7001 79.5884 36.8366C79.743 36.9731 79.8202 37.1454 79.8202 37.3534V39.8448C79.8202 40.0528 79.743 40.2251 79.5884 40.3616C79.4339 40.4981 79.2388 40.5663 79.0033 40.5663H72.3355C72.1 40.5663 71.905 40.4981 71.7505 40.3616C71.5959 40.2251 71.5186 40.0528 71.5186 39.8448V37.3534Z" fill="#D0D1D7"/><path d="M77.8361 37.3534C77.8361 37.1454 77.9134 36.9731 78.0679 36.8366C78.2225 36.7001 78.4175 36.6318 78.653 36.6318H85.3208C85.5563 36.6318 85.7513 36.7001 85.9059 36.8366C86.0604 36.9731 86.1377 37.1454 86.1377 37.3534V39.8448C86.1377 40.0528 86.0604 40.2251 85.9059 40.3616C85.7513 40.4981 85.5563 40.5663 85.3208 40.5663H78.653C78.4175 40.5663 78.2225 40.4981 78.0679 40.3616C77.9134 40.2251 77.8361 40.0528 77.8361 39.8448V37.3534Z" fill="#D0D1D7"/><path d="M84.1535 37.3534C84.1535 37.1454 84.2308 36.9731 84.3854 36.8366C84.5399 36.7001 84.735 36.6318 84.9705 36.6318H91.6382C91.8738 36.6318 92.0688 36.7001 92.2233 36.8366C92.3779 36.9731 92.4552 37.1454 92.4552 37.3534V39.8448C92.4552 40.0528 92.3779 40.2251 92.2233 40.3616C92.0688 40.4981 91.8738 40.5663 91.6382 40.5663H84.9705C84.735 40.5663 84.5399 40.4981 84.3854 40.3616C84.2308 40.2251 84.1535 40.0528 84.1535 39.8448V37.3534Z" fill="#D0D1D7"/><path d="M90.471 37.3631C90.471 37.1551 90.5483 36.9829 90.7028 36.8463C90.8574 36.7098 91.0524 36.6416 91.2879 36.6416H94.7984C95.0339 36.6416 95.229 36.7098 95.3835 36.8463C95.5381 36.9829 95.6154 37.1551 95.6154 37.3631V39.8448C95.6154 40.0528 95.5381 40.2251 95.3835 40.3616C95.229 40.4981 95.0339 40.5663 94.7984 40.5663H91.2879C91.0524 40.5663 90.8574 40.4981 90.7028 40.3616C90.5483 40.2251 90.471 40.0528 90.471 39.8448V37.3631Z" fill="#D0D1D7"/><path d="M93.6297 37.3631C93.6297 37.1551 93.707 36.9829 93.8616 36.8463C94.0161 36.7098 94.2111 36.6416 94.4466 36.6416H97.9572C98.1927 36.6416 98.3877 36.7098 98.5423 36.8463C98.6968 36.9829 98.7741 37.1551 98.7741 37.3631V39.8448C98.7741 40.0528 98.6968 40.2251 98.5423 40.3616C98.3877 40.4981 98.1927 40.5663 97.9572 40.5663H94.4466C94.2111 40.5663 94.0161 40.4981 93.8616 40.3616C93.707 40.2251 93.6297 40.0528 93.6297 39.8448V37.3631Z" fill="#D0D1D7"/><path d="M96.7885 37.3534C96.7885 37.1454 96.8657 36.9731 97.0203 36.8366C97.1748 36.7001 97.3699 36.6318 97.6054 36.6318H104.273C104.509 36.6318 104.704 36.7001 104.858 36.8366C105.013 36.9731 105.09 37.1454 105.09 37.3534V39.8448C105.09 40.0528 105.013 40.2251 104.858 40.3616C104.704 40.4981 104.509 40.5663 104.273 40.5663H97.6054C97.3699 40.5663 97.1748 40.4981 97.0203 40.3616C96.8657 40.2251 96.7885 40.0528 96.7885 39.8448V37.3534Z" fill="#D0D1D7"/><path d="M103.106 37.3631C103.106 37.1551 103.183 36.9829 103.338 36.8463C103.492 36.7098 103.687 36.6416 103.923 36.6416H107.433C107.669 36.6416 107.864 36.7098 108.018 36.8463C108.173 36.9829 108.25 37.1551 108.25 37.3631V39.8448C108.25 40.0528 108.173 40.2251 108.018 40.3616C107.864 40.4981 107.669 40.5663 107.433 40.5663H103.923C103.687 40.5663 103.492 40.4981 103.338 40.3616C103.183 40.2251 103.106 40.0528 103.106 39.8448V37.3631Z" fill="#D0D1D7"/><path d="M106.265 37.3534C106.265 37.1454 106.342 36.9731 106.496 36.8366C106.651 36.7001 106.846 36.6318 107.082 36.6318H113.749C113.985 36.6318 114.18 36.7001 114.334 36.8366C114.489 36.9731 114.566 37.1454 114.566 37.3534V39.8448C114.566 40.0528 114.489 40.2251 114.334 40.3616C114.18 40.4981 113.985 40.5663 113.749 40.5663H107.082C106.846 40.5663 106.651 40.4981 106.496 40.3616C106.342 40.2251 106.265 40.0528 106.265 39.8448V37.3534Z" fill="#D0D1D7"/><path d="M112.582 37.3534C112.582 37.1454 112.659 36.9731 112.814 36.8366C112.968 36.7001 113.164 36.6318 113.399 36.6318H120.067C120.302 36.6318 120.497 36.7001 120.652 36.8366C120.806 36.9731 120.884 37.1454 120.884 37.3534V39.8448C120.884 40.0528 120.806 40.2251 120.652 40.3616C120.497 40.4981 120.302 40.5663 120.067 40.5663H113.399C113.164 40.5663 112.968 40.4981 112.814 40.3616C112.659 40.2251 112.582 40.0528 112.582 39.8448V37.3534Z" fill="#D0D1D7"/><path d="M118.9 37.3534C118.9 37.1454 118.977 36.9731 119.131 36.8366C119.286 36.7001 119.481 36.6318 119.716 36.6318H126.384C126.62 36.6318 126.815 36.7001 126.969 36.8366C127.124 36.9731 127.201 37.1454 127.201 37.3534V39.8448C127.201 40.0528 127.124 40.2251 126.969 40.3616C126.815 40.4981 126.62 40.5663 126.384 40.5663H119.716C119.481 40.5663 119.286 40.4981 119.131 40.3616C118.977 40.2251 118.9 40.0528 118.9 39.8448V37.3534Z" fill="#D0D1D7"/><path d="M65.2012 44.4189C65.2012 44.2109 65.2784 44.0386 65.433 43.9021C65.5876 43.7656 65.7826 43.6974 66.0181 43.6974H72.6859C72.9214 43.6974 73.1164 43.7656 73.271 43.9021C73.4255 44.0386 73.5028 44.2109 73.5028 44.4189V46.9103C73.5028 47.1183 73.4255 47.2906 73.271 47.4271C73.1164 47.5636 72.9214 47.6318 72.6859 47.6318H66.0181C65.7826 47.6318 65.5876 47.5636 65.433 47.4271C65.2784 47.2906 65.2012 47.1183 65.2012 46.9103V44.4189Z" fill="#D0D1D7"/><path d="M71.5186 44.4189C71.5186 44.2109 71.5959 44.0386 71.7505 43.9021C71.905 43.7656 72.1 43.6974 72.3355 43.6974H79.0033C79.2388 43.6974 79.4339 43.7656 79.5884 43.9021C79.743 44.0386 79.8202 44.2109 79.8202 44.4189V46.9103C79.8202 47.1183 79.743 47.2906 79.5884 47.4271C79.4339 47.5636 79.2388 47.6318 79.0033 47.6318H72.3355C72.1 47.6318 71.905 47.5636 71.7505 47.4271C71.5959 47.2906 71.5186 47.1183 71.5186 46.9103V44.4189Z" fill="#D0D1D7"/><path d="M77.8361 44.4189C77.8361 44.2109 77.9134 44.0386 78.0679 43.9021C78.2225 43.7656 78.4175 43.6974 78.653 43.6974H85.3208C85.5563 43.6974 85.7513 43.7656 85.9059 43.9021C86.0604 44.0386 86.1377 44.2109 86.1377 44.4189V46.9103C86.1377 47.1183 86.0604 47.2906 85.9059 47.4271C85.7513 47.5636 85.5563 47.6318 85.3208 47.6318H78.653C78.4175 47.6318 78.2225 47.5636 78.0679 47.4271C77.9134 47.2906 77.8361 47.1183 77.8361 46.9103V44.4189Z" fill="#D0D1D7"/><path d="M84.1535 44.4189C84.1535 44.2109 84.2308 44.0386 84.3854 43.9021C84.5399 43.7656 84.735 43.6974 84.9705 43.6974H91.6382C91.8738 43.6974 92.0688 43.7656 92.2233 43.9021C92.3779 44.0386 92.4552 44.2109 92.4552 44.4189V46.9103C92.4552 47.1183 92.3779 47.2906 92.2233 47.4271C92.0688 47.5636 91.8738 47.6318 91.6382 47.6318H84.9705C84.735 47.6318 84.5399 47.5636 84.3854 47.4271C84.2308 47.2906 84.1535 47.1183 84.1535 46.9103V44.4189Z" fill="#D0D1D7"/><path d="M90.471 44.4189C90.471 44.2109 90.5483 44.0386 90.7028 43.9021C90.8574 43.7656 91.0524 43.6974 91.2879 43.6974H97.9557C98.1912 43.6974 98.3862 43.7656 98.5408 43.9021C98.6953 44.0386 98.7726 44.2109 98.7726 44.4189V46.9103C98.7726 47.1183 98.6953 47.2906 98.5408 47.4271C98.3862 47.5636 98.1912 47.6318 97.9557 47.6318H91.2879C91.0524 47.6318 90.8574 47.5636 90.7028 47.4271C90.5483 47.2906 90.471 47.1183 90.471 46.9103V44.4189Z" fill="#D0D1D7"/><path d="M96.7885 44.4189C96.7885 44.2109 96.8657 44.0386 97.0203 43.9021C97.1748 43.7656 97.3699 43.6974 97.6054 43.6974H104.273C104.509 43.6974 104.704 43.7656 104.858 43.9021C105.013 44.0386 105.09 44.2109 105.09 44.4189V46.9103C105.09 47.1183 105.013 47.2906 104.858 47.4271C104.704 47.5636 104.509 47.6318 104.273 47.6318H97.6054C97.3699 47.6318 97.1748 47.5636 97.0203 47.4271C96.8657 47.2906 96.7885 47.1183 96.7885 46.9103V44.4189Z" fill="#D0D1D7"/><path d="M103.106 44.4189C103.106 44.2109 103.183 44.0386 103.338 43.9021C103.492 43.7656 103.687 43.6974 103.923 43.6974H110.591C110.826 43.6974 111.021 43.7656 111.176 43.9021C111.33 44.0386 111.408 44.2109 111.408 44.4189V46.9103C111.408 47.1183 111.33 47.2906 111.176 47.4271C111.021 47.5636 110.826 47.6318 110.591 47.6318H103.923C103.687 47.6318 103.492 47.5636 103.338 47.4271C103.183 47.2906 103.106 47.1183 103.106 46.9103V44.4189Z" fill="#D0D1D7"/><path d="M109.423 44.4286C109.423 44.2206 109.501 44.0484 109.655 43.9119C109.81 43.7754 110.005 43.7071 110.24 43.7071H113.751C113.986 43.7071 114.181 43.7754 114.336 43.9119C114.49 44.0484 114.568 44.2206 114.568 44.4286V46.9103C114.568 47.1183 114.49 47.2906 114.336 47.4271C114.181 47.5636 113.986 47.6318 113.751 47.6318H110.24C110.005 47.6318 109.81 47.5636 109.655 47.4271C109.501 47.2906 109.423 47.1183 109.423 46.9103V44.4286Z" fill="#D0D1D7"/><rect x="207.271" y="27" width="26.7277" height="10.4911" rx="0.915179" fill="#0096CC"/><g clip-path="url(#clip17_2180_28903)"><path d="M213.219 31.2177C212.647 31.2177 212.192 31.6825 212.192 32.2455C212.192 32.8175 212.647 33.2733 213.219 33.2733C213.782 33.2733 214.247 32.8175 214.247 32.2455C214.247 31.6825 213.782 31.2177 213.219 31.2177ZM213.219 32.9158C212.853 32.9158 212.549 32.6209 212.549 32.2455C212.549 31.8791 212.844 31.5842 213.219 31.5842C213.586 31.5842 213.881 31.8791 213.881 32.2455C213.881 32.6209 213.586 32.9158 213.219 32.9158ZM214.524 31.182C214.524 31.0479 214.417 30.9407 214.283 30.9407C214.149 30.9407 214.042 31.0479 214.042 31.182C214.042 31.3161 214.149 31.4233 214.283 31.4233C214.417 31.4233 214.524 31.3161 214.524 31.182ZM215.203 31.4233C215.186 31.1016 215.114 30.8156 214.882 30.5832C214.649 30.3508 214.363 30.2793 214.042 30.2615C213.711 30.2436 212.719 30.2436 212.388 30.2615C212.066 30.2793 211.789 30.3508 211.548 30.5832C211.316 30.8156 211.244 31.1016 211.226 31.4233C211.208 31.754 211.208 32.746 211.226 33.0767C211.244 33.3984 211.316 33.6755 211.548 33.9168C211.789 34.1492 212.066 34.2207 212.388 34.2385C212.719 34.2564 213.711 34.2564 214.042 34.2385C214.363 34.2207 214.649 34.1492 214.882 33.9168C215.114 33.6755 215.186 33.3984 215.203 33.0767C215.221 32.746 215.221 31.754 215.203 31.4233ZM214.774 33.4253C214.712 33.604 214.569 33.7381 214.399 33.8096C214.131 33.9168 213.505 33.89 213.219 33.89C212.924 33.89 212.299 33.9168 212.04 33.8096C211.861 33.7381 211.727 33.604 211.655 33.4253C211.548 33.1661 211.575 32.5405 211.575 32.2455C211.575 31.9595 211.548 31.3339 211.655 31.0658C211.727 30.896 211.861 30.7619 212.04 30.6904C212.299 30.5832 212.924 30.61 213.219 30.61C213.505 30.61 214.131 30.5832 214.399 30.6904C214.569 30.753 214.703 30.896 214.774 31.0658C214.882 31.3339 214.855 31.9595 214.855 32.2455C214.855 32.5405 214.882 33.1661 214.774 33.4253Z" fill="white"/></g><path d="M217.625 33.7451H218.152V32.5093H219.361V32.0676H218.152V31.2778H219.488V30.836H217.625V33.7451ZM220.777 33.7877C221.417 33.7877 221.823 33.3374 221.823 32.6627C221.823 31.9866 221.417 31.5349 220.777 31.5349C220.138 31.5349 219.732 31.9866 219.732 32.6627C219.732 33.3374 220.138 33.7877 220.777 33.7877ZM220.78 33.3758C220.427 33.3758 220.253 33.0605 220.253 32.6613C220.253 32.2622 220.427 31.9426 220.78 31.9426C221.128 31.9426 221.302 32.2622 221.302 32.6613C221.302 33.0605 221.128 33.3758 220.78 33.3758ZM222.813 30.836H222.299V33.7451H222.813V30.836ZM223.896 30.836H223.382V33.7451H223.896V30.836ZM225.417 33.7877C226.056 33.7877 226.462 33.3374 226.462 32.6627C226.462 31.9866 226.056 31.5349 225.417 31.5349C224.778 31.5349 224.371 31.9866 224.371 32.6627C224.371 33.3374 224.778 33.7877 225.417 33.7877ZM225.42 33.3758C225.066 33.3758 224.893 33.0605 224.893 32.6613C224.893 32.2622 225.066 31.9426 225.42 31.9426C225.768 31.9426 225.941 32.2622 225.941 32.6613C225.941 33.0605 225.768 33.3758 225.42 33.3758ZM227.331 33.7451H227.867L228.277 32.2707H228.306L228.715 33.7451H229.251L229.869 31.5633H229.343L228.965 33.0889H228.944L228.552 31.5633H228.034L227.642 33.0974H227.622L227.238 31.5633H226.714L227.331 33.7451Z" fill="white"/></g><defs><filter id="filter0_dd_2180_28903" x="33.3827" y="66.7765" width="65.9221" height="106.162" filterUnits="userSpaceOnUse" color-interpolation-filters="sRGB"><feFlood flood-opacity="0" result="BackgroundImageFix"/><feColorMatrix in="SourceAlpha" type="matrix" values="0 0 0 0 0 0 0 0 0 0 0 0 0 0 0 0 0 0 127 0" result="hardAlpha"/><feOffset dy="0.893854"/><feGaussianBlur stdDeviation="0.558659"/><feColorMatrix type="matrix" values="0 0 0 0 0 0 0 0 0 0 0 0 0 0 0 0 0 0 0.05 0"/><feBlend mode="normal" in2="BackgroundImageFix" result="effect1_dropShadow_2180_28903"/><feColorMatrix in="SourceAlpha" type="matrix" values="0 0 0 0 0 0 0 0 0 0 0 0 0 0 0 0 0 0 127 0" result="hardAlpha"/><feOffset dy="0.223464"/><feGaussianBlur stdDeviation="0.223464"/><feColorMatrix type="matrix" values="0 0 0 0 0 0 0 0 0 0 0 0 0 0 0 0 0 0 0.05 0"/><feBlend mode="normal" in2="effect1_dropShadow_2180_28903" result="effect2_dropShadow_2180_28903"/><feBlend mode="normal" in="SourceGraphic" in2="effect2_dropShadow_2180_28903" result="shape"/></filter><filter id="filter1_dd_2180_28903" x="33.3827" y="174.056" width="65.9221" height="107.709" filterUnits="userSpaceOnUse" color-interpolation-filters="sRGB"><feFlood flood-opacity="0" result="BackgroundImageFix"/><feColorMatrix in="SourceAlpha" type="matrix" values="0 0 0 0 0 0 0 0 0 0 0 0 0 0 0 0 0 0 127 0" result="hardAlpha"/><feOffset dy="0.893854"/><feGaussianBlur stdDeviation="0.558659"/><feColorMatrix type="matrix" values="0 0 0 0 0 0 0 0 0 0 0 0 0 0 0 0 0 0 0.05 0"/><feBlend mode="normal" in2="BackgroundImageFix" result="effect1_dropShadow_2180_28903"/><feColorMatrix in="SourceAlpha" type="matrix" values="0 0 0 0 0 0 0 0 0 0 0 0 0 0 0 0 0 0 127 0" result="hardAlpha"/><feOffset dy="0.223464"/><feGaussianBlur stdDeviation="0.223464"/><feColorMatrix type="matrix" values="0 0 0 0 0 0 0 0 0 0 0 0 0 0 0 0 0 0 0.05 0"/><feBlend mode="normal" in2="effect1_dropShadow_2180_28903" result="effect2_dropShadow_2180_28903"/><feBlend mode="normal" in="SourceGraphic" in2="effect2_dropShadow_2180_28903" result="shape"/></filter><filter id="filter2_dd_2180_28903" x="101.539" y="66.7775" width="65.9221" height="84.7092" filterUnits="userSpaceOnUse" color-interpolation-filters="sRGB"><feFlood flood-opacity="0" result="BackgroundImageFix"/><feColorMatrix in="SourceAlpha" type="matrix" values="0 0 0 0 0 0 0 0 0 0 0 0 0 0 0 0 0 0 127 0" result="hardAlpha"/><feOffset dy="0.893854"/><feGaussianBlur stdDeviation="0.558659"/><feColorMatrix type="matrix" values="0 0 0 0 0 0 0 0 0 0 0 0 0 0 0 0 0 0 0.05 0"/><feBlend mode="normal" in2="BackgroundImageFix" result="effect1_dropShadow_2180_28903"/><feColorMatrix in="SourceAlpha" type="matrix" values="0 0 0 0 0 0 0 0 0 0 0 0 0 0 0 0 0 0 127 0" result="hardAlpha"/><feOffset dy="0.223464"/><feGaussianBlur stdDeviation="0.223464"/><feColorMatrix type="matrix" values="0 0 0 0 0 0 0 0 0 0 0 0 0 0 0 0 0 0 0.05 0"/><feBlend mode="normal" in2="effect1_dropShadow_2180_28903" result="effect2_dropShadow_2180_28903"/><feBlend mode="normal" in="SourceGraphic" in2="effect2_dropShadow_2180_28903" result="shape"/></filter><filter id="filter3_dd_2180_28903" x="101.539" y="152.605" width="65.9221" height="107.709" filterUnits="userSpaceOnUse" color-interpolation-filters="sRGB"><feFlood flood-opacity="0" result="BackgroundImageFix"/><feColorMatrix in="SourceAlpha" type="matrix" values="0 0 0 0 0 0 0 0 0 0 0 0 0 0 0 0 0 0 127 0" result="hardAlpha"/><feOffset dy="0.893854"/><feGaussianBlur stdDeviation="0.558659"/><feColorMatrix type="matrix" values="0 0 0 0 0 0 0 0 0 0 0 0 0 0 0 0 0 0 0.05 0"/><feBlend mode="normal" in2="BackgroundImageFix" result="effect1_dropShadow_2180_28903"/><feColorMatrix in="SourceAlpha" type="matrix" values="0 0 0 0 0 0 0 0 0 0 0 0 0 0 0 0 0 0 127 0" result="hardAlpha"/><feOffset dy="0.223464"/><feGaussianBlur stdDeviation="0.223464"/><feColorMatrix type="matrix" values="0 0 0 0 0 0 0 0 0 0 0 0 0 0 0 0 0 0 0.05 0"/><feBlend mode="normal" in2="effect1_dropShadow_2180_28903" result="effect2_dropShadow_2180_28903"/><feBlend mode="normal" in="SourceGraphic" in2="effect2_dropShadow_2180_28903" result="shape"/></filter><filter id="filter4_dd_2180_28903" x="169.695" y="66.7775" width="65.9221" height="105.715" filterUnits="userSpaceOnUse" color-interpolation-filters="sRGB"><feFlood flood-opacity="0" result="BackgroundImageFix"/><feColorMatrix in="SourceAlpha" type="matrix" values="0 0 0 0 0 0 0 0 0 0 0 0 0 0 0 0 0 0 127 0" result="hardAlpha"/><feOffset dy="0.893854"/><feGaussianBlur stdDeviation="0.558659"/><feColorMatrix type="matrix" values="0 0 0 0 0 0 0 0 0 0 0 0 0 0 0 0 0 0 0.05 0"/><feBlend mode="normal" in2="BackgroundImageFix" result="effect1_dropShadow_2180_28903"/><feColorMatrix in="SourceAlpha" type="matrix" values="0 0 0 0 0 0 0 0 0 0 0 0 0 0 0 0 0 0 127 0" result="hardAlpha"/><feOffset dy="0.223464"/><feGaussianBlur stdDeviation="0.223464"/><feColorMatrix type="matrix" values="0 0 0 0 0 0 0 0 0 0 0 0 0 0 0 0 0 0 0.05 0"/><feBlend mode="normal" in2="effect1_dropShadow_2180_28903" result="effect2_dropShadow_2180_28903"/><feBlend mode="normal" in="SourceGraphic" in2="effect2_dropShadow_2180_28903" result="shape"/></filter><filter id="filter5_dd_2180_28903" x="169.695" y="173.61" width="65.9221" height="107.709" filterUnits="userSpaceOnUse" color-interpolation-filters="sRGB"><feFlood flood-opacity="0" result="BackgroundImageFix"/><feColorMatrix in="SourceAlpha" type="matrix" values="0 0 0 0 0 0 0 0 0 0 0 0 0 0 0 0 0 0 127 0" result="hardAlpha"/><feOffset dy="0.893854"/><feGaussianBlur stdDeviation="0.558659"/><feColorMatrix type="matrix" values="0 0 0 0 0 0 0 0 0 0 0 0 0 0 0 0 0 0 0.05 0"/><feBlend mode="normal" in2="BackgroundImageFix" result="effect1_dropShadow_2180_28903"/><feColorMatrix in="SourceAlpha" type="matrix" values="0 0 0 0 0 0 0 0 0 0 0 0 0 0 0 0 0 0 127 0" result="hardAlpha"/><feOffset dy="0.223464"/><feGaussianBlur stdDeviation="0.223464"/><feColorMatrix type="matrix" values="0 0 0 0 0 0 0 0 0 0 0 0 0 0 0 0 0 0 0.05 0"/><feBlend mode="normal" in2="effect1_dropShadow_2180_28903" result="effect2_dropShadow_2180_28903"/><feBlend mode="normal" in="SourceGraphic" in2="effect2_dropShadow_2180_28903" result="shape"/></filter><clipPath id="clip0_2180_28903"><rect width="262.5" height="200" fill="white" transform="translate(0.5)"/></clipPath><clipPath id="clip1_2180_28903"><rect x="34.5" y="67" width="63.6871" height="103.927" rx="0.893854" fill="white"/></clipPath><clipPath id="clip2_2180_28903"><rect width="63.6871" height="80.8938" fill="white" transform="translate(34.5 67)"/></clipPath><clipPath id="clip3_2180_28903"><rect width="3.57542" height="3.57542" fill="white" transform="translate(38.5 163.352)"/></clipPath><clipPath id="clip4_2180_28903"><rect width="3.57542" height="3.57542" fill="white" transform="translate(46.5449 163.352)"/></clipPath><clipPath id="clip5_2180_28903"><rect x="34.5" y="174.279" width="63.6871" height="105.475" rx="0.893854" fill="white"/></clipPath><clipPath id="clip6_2180_28903"><rect width="63.6871" height="80.8938" fill="white" transform="translate(34.5 174.279)"/></clipPath><clipPath id="clip7_2180_28903"><rect x="102.656" y="67.001" width="63.6871" height="82.4748" rx="0.893854" fill="white"/></clipPath><clipPath id="clip8_2180_28903"><rect width="3.57542" height="3.57542" fill="white" transform="translate(106.656 141.9)"/></clipPath><clipPath id="clip9_2180_28903"><rect width="3.57542" height="3.57542" fill="white" transform="translate(114.701 141.9)"/></clipPath><clipPath id="clip10_2180_28903"><rect x="102.656" y="152.828" width="63.6871" height="105.475" rx="0.893854" fill="white"/></clipPath><clipPath id="clip11_2180_28903"><rect x="170.812" y="67.001" width="63.6871" height="103.48" rx="0.893854" fill="white"/></clipPath><clipPath id="clip12_2180_28903"><rect width="63.6871" height="80.8938" fill="white" transform="translate(170.812 67.001)"/></clipPath><clipPath id="clip13_2180_28903"><rect width="3.57542" height="3.57542" fill="white" transform="translate(174.812 162.906)"/></clipPath><clipPath id="clip14_2180_28903"><rect width="3.57542" height="3.57542" fill="white" transform="translate(182.857 162.906)"/></clipPath><clipPath id="clip15_2180_28903"><rect x="170.812" y="173.833" width="63.6871" height="105.475" rx="0.893854" fill="white"/></clipPath><clipPath id="clip16_2180_28903"><rect width="63.6871" height="80.8938" fill="white" transform="translate(170.812 173.833)"/></clipPath><clipPath id="clip17_2180_28903"><rect width="4.57589" height="4.57589" fill="white" transform="translate(210.932 29.958)"/></clipPath></defs></svg>