<svg width="14" height="14" viewBox="0 0 14 14" fill="none" xmlns="http://www.w3.org/2000/svg"><path d="M7.94901 13.7934L6.86234 11.2401C7.90901 10.8534 8.88901 10.3334 9.79568 9.72677L7.94901 13.7934ZM2.95568 7.33344L0.402344 6.24677L4.46901 4.4001C3.86234 5.30677 3.34234 6.28677 2.95568 7.33344ZM13.6023 0.593436C13.6023 0.593436 10.3023 -0.820564 6.52901 2.95344C5.06901 4.41344 4.19568 6.0201 3.62901 7.42677C3.44234 7.92677 3.56901 8.47344 3.93568 8.84677L5.35568 10.2601C5.72234 10.6334 6.26901 10.7534 6.76901 10.5668C8.44804 9.92657 9.97256 8.93825 11.2423 7.66677C15.0157 3.89344 13.6023 0.593436 13.6023 0.593436ZM8.88901 5.30677C8.36901 4.78677 8.36901 3.9401 8.88901 3.4201C9.40901 2.9001 10.2557 2.9001 10.7757 3.4201C11.289 3.9401 11.2957 4.78677 10.7757 5.30677C10.2557 5.82677 9.40901 5.82677 8.88901 5.30677ZM4.02247 13.0001L5.78234 11.2401C5.55568 11.1801 5.33568 11.0801 5.13568 10.9401L3.08247 13.0001H4.02247ZM1.1958 13.0001H2.1358L4.64901 10.4934L3.70234 9.55344L1.1958 12.0601V13.0001ZM1.1958 11.1134L3.25568 9.0601C3.11568 8.8601 3.01568 8.64677 2.95568 8.41344L1.1958 10.1734V11.1134Z" fill="#FE544F"/></svg>