<svg width="263" height="200" viewBox="0 0 263 200" fill="none" xmlns="http://www.w3.org/2000/svg"><g clip-path="url(#clip0_2180_28814)"><rect width="262.5" height="200" transform="translate(0.5)" fill="#F3F4F5"/><g filter="url(#filter0_ddd_2180_28814)"><rect x="30.5" y="41" width="203.304" height="196" rx="2" fill="white"/><g clip-path="url(#clip1_2180_28814)"><rect x="45.1094" y="84.8262" width="56" height="56" rx="1" fill="#43A6DB"/><circle cx="100.5" cy="142.5" r="34.5" fill="#86D0F9"/></g><g clip-path="url(#clip2_2180_28814)"><rect x="45.1094" y="143.261" width="56" height="56" rx="1" fill="#43A6DB"/><circle cx="43.5" cy="200.5" r="29.5" fill="#86D0F9"/></g><rect x="103.543" y="84.8262" width="57.2174" height="56" rx="1" fill="#43A6DB"/><rect x="103.543" y="143.261" width="57.2174" height="56" rx="1" fill="#43A6DB"/><g clip-path="url(#clip3_2180_28814)"><rect x="163.195" y="84.8262" width="56" height="56" rx="1" fill="#43A6DB"/><rect x="166" y="143.234" width="47" height="47" transform="rotate(-45 166 143.234)" fill="#86D0F9"/></g><g clip-path="url(#clip4_2180_28814)"><rect x="163.195" y="143.261" width="56" height="56" rx="1" fill="#43A6DB"/><circle cx="219" cy="199" r="28" fill="#86D0F9"/></g><path d="M47.3324 68.8262H48.4403L49.9709 63.3787H50.0277L51.5582 68.8262H52.6626L54.6832 61.5534H53.5256L52.1122 67.1891H52.0447L50.571 61.5534H49.4276L47.9538 67.1855H47.8864L46.4695 61.5534H45.3153L47.3324 68.8262ZM57.4123 68.9363C58.6019 68.9363 59.4435 68.3503 59.685 67.4625L58.68 67.2814C58.4883 67.7963 58.0266 68.0591 57.4229 68.0591C56.5138 68.0591 55.9031 67.4696 55.8746 66.4185H59.7525V66.0421C59.7525 64.0712 58.5735 63.3006 57.3377 63.3006C55.8178 63.3006 54.8164 64.4583 54.8164 66.1344C54.8164 67.8283 55.8036 68.9363 57.4123 68.9363ZM55.8782 65.623C55.9208 64.8489 56.4819 64.1777 57.3448 64.1777C58.1687 64.1777 58.7085 64.7885 58.712 65.623H55.8782ZM61.8432 61.5534H60.9341V62.2459C60.9341 62.7963 60.6926 63.2473 60.4157 63.6557L60.9412 64.0321C61.4881 63.5918 61.8432 62.839 61.8432 62.2353V61.5534ZM62.7079 68.8262H63.7697V65.4952C63.7697 64.7814 64.3201 64.2665 65.073 64.2665C65.2931 64.2665 65.5417 64.3056 65.627 64.3304V63.3148C65.5204 63.3006 65.3109 63.29 65.176 63.29C64.5368 63.29 63.9899 63.6522 63.791 64.2381H63.7342V63.3716H62.7079V68.8262ZM68.7013 68.9363C69.891 68.9363 70.7326 68.3503 70.9741 67.4625L69.9691 67.2814C69.7773 67.7963 69.3157 68.0591 68.712 68.0591C67.8029 68.0591 67.1921 67.4696 67.1637 66.4185H71.0415V66.0421C71.0415 64.0712 69.8626 63.3006 68.6268 63.3006C67.1069 63.3006 66.1055 64.4583 66.1055 66.1344C66.1055 67.8283 67.0927 68.9363 68.7013 68.9363ZM67.1673 65.623C67.2099 64.8489 67.771 64.1777 68.6339 64.1777C69.4577 64.1777 69.9975 64.7885 70.0011 65.623H67.1673ZM77.1637 68.9363C78.7013 68.9363 79.7063 67.8105 79.7063 66.1238C79.7063 64.4263 78.7013 63.3006 77.1637 63.3006C75.6261 63.3006 74.6211 64.4263 74.6211 66.1238C74.6211 67.8105 75.6261 68.9363 77.1637 68.9363ZM77.1673 68.0449C76.1623 68.0449 75.6935 67.1678 75.6935 66.1202C75.6935 65.0762 76.1623 64.1884 77.1673 64.1884C78.1651 64.1884 78.6339 65.0762 78.6339 66.1202C78.6339 67.1678 78.1651 68.0449 77.1673 68.0449ZM81.9533 65.5875C81.9533 64.7175 82.486 64.2203 83.2246 64.2203C83.9455 64.2203 84.3823 64.6926 84.3823 65.4846V68.8262H85.4441V65.3567C85.4441 64.0073 84.7019 63.3006 83.5868 63.3006C82.7665 63.3006 82.2303 63.6806 81.9782 64.2594H81.9107V63.3716H80.8915V68.8262H81.9533V65.5875ZM90.6971 61.5534H89.5998V68.8262H90.6971V61.5534ZM93.2717 65.5875C93.2717 64.7175 93.8043 64.2203 94.543 64.2203C95.2638 64.2203 95.7006 64.6926 95.7006 65.4846V68.8262H96.7624V65.3567C96.7624 64.0073 96.0202 63.3006 94.9052 63.3006C94.0849 63.3006 93.5487 63.6806 93.2965 64.2594H93.229V63.3716H92.2099V68.8262H93.2717V65.5875ZM102.274 64.7033C102.054 63.8546 101.39 63.3006 100.211 63.3006C98.9783 63.3006 98.1048 63.9505 98.1048 64.9164C98.1048 65.6905 98.5735 66.2054 99.5962 66.4327L100.52 66.6351C101.045 66.7523 101.29 66.9867 101.29 67.3276C101.29 67.7502 100.839 68.0804 100.143 68.0804C99.5075 68.0804 99.0991 67.807 98.9712 67.2708L97.945 67.427C98.1225 68.3929 98.9251 68.9363 100.15 68.9363C101.468 68.9363 102.38 68.2367 102.38 67.2495C102.38 66.4789 101.89 66.003 100.889 65.7722L100.022 65.5733C99.4222 65.4313 99.163 65.2289 99.1665 64.8596C99.163 64.4405 99.6175 64.1422 100.221 64.1422C100.882 64.1422 101.187 64.508 101.311 64.8738L102.274 64.7033ZM106.094 63.3716H104.975V62.0648H103.914V63.3716H103.115V64.2239H103.914V67.4448C103.91 68.4355 104.666 68.915 105.504 68.8972C105.842 68.8936 106.069 68.8297 106.193 68.7836L106.002 67.9064C105.931 67.9206 105.799 67.9526 105.629 67.9526C105.284 67.9526 104.975 67.839 104.975 67.2246V64.2239H106.094V63.3716ZM108.856 68.9469C109.758 68.9469 110.266 68.4888 110.468 68.0804H110.511V68.8262H111.548V65.204C111.548 63.6167 110.298 63.3006 109.431 63.3006C108.444 63.3006 107.535 63.6983 107.18 64.6926L108.178 64.9199C108.334 64.5328 108.732 64.16 109.445 64.16C110.131 64.16 110.482 64.5186 110.482 65.1365V65.1614C110.482 65.5485 110.085 65.5414 109.104 65.655C108.071 65.7757 107.013 66.0456 107.013 67.285C107.013 68.3574 107.819 68.9469 108.856 68.9469ZM109.087 68.0946C108.487 68.0946 108.053 67.8248 108.053 67.2992C108.053 66.731 108.558 66.5286 109.172 66.4469C109.516 66.4007 110.333 66.3084 110.486 66.1557V66.8588C110.486 67.5051 109.971 68.0946 109.087 68.0946ZM115.249 70.9853C116.637 70.9853 117.71 70.3496 117.71 68.9469V63.3716H116.669V64.2559H116.591C116.403 63.9185 116.026 63.3006 115.011 63.3006C113.693 63.3006 112.724 64.3411 112.724 66.0776C112.724 67.8176 113.715 68.7445 115.004 68.7445C116.005 68.7445 116.392 68.1799 116.584 67.8319H116.651V68.9043C116.651 69.7601 116.066 70.1294 115.259 70.1294C114.375 70.1294 114.031 69.6855 113.843 69.373L112.93 69.7495C113.218 70.4171 113.945 70.9853 115.249 70.9853ZM115.238 67.8638C114.29 67.8638 113.796 67.1358 113.796 66.0634C113.796 65.0158 114.279 64.2026 115.238 64.2026C116.165 64.2026 116.662 64.959 116.662 66.0634C116.662 67.1891 116.154 67.8638 115.238 67.8638ZM119.134 68.8262H120.195V65.4952C120.195 64.7814 120.746 64.2665 121.499 64.2665C121.719 64.2665 121.968 64.3056 122.053 64.3304V63.3148C121.946 63.3006 121.737 63.29 121.602 63.29C120.963 63.29 120.416 63.6522 120.217 64.2381H120.16V63.3716H119.134V68.8262ZM124.51 68.9469C125.412 68.9469 125.92 68.4888 126.122 68.0804H126.165V68.8262H127.202V65.204C127.202 63.6167 125.952 63.3006 125.085 63.3006C124.098 63.3006 123.189 63.6983 122.834 64.6926L123.832 64.9199C123.988 64.5328 124.386 64.16 125.1 64.16C125.785 64.16 126.137 64.5186 126.137 65.1365V65.1614C126.137 65.5485 125.739 65.5414 124.759 65.655C123.725 65.7757 122.667 66.0456 122.667 67.285C122.667 68.3574 123.473 68.9469 124.51 68.9469ZM124.741 68.0946C124.141 68.0946 123.708 67.8248 123.708 67.2992C123.708 66.731 124.212 66.5286 124.826 66.4469C125.171 66.4007 125.987 66.3084 126.14 66.1557V66.8588C126.14 67.5051 125.625 68.0946 124.741 68.0946ZM128.616 68.8262H129.678V65.4632C129.678 64.7282 130.193 64.2168 130.797 64.2168C131.386 64.2168 131.794 64.6074 131.794 65.2005V68.8262H132.853V65.3496C132.853 64.6926 133.254 64.2168 133.946 64.2168C134.507 64.2168 134.969 64.5293 134.969 65.2679V68.8262H136.031V65.1685C136.031 63.9221 135.335 63.3006 134.348 63.3006C133.563 63.3006 132.973 63.677 132.711 64.2594H132.654C132.416 63.6628 131.915 63.3006 131.187 63.3006C130.466 63.3006 129.93 63.6593 129.703 64.2594H129.635V63.3716H128.616V68.8262ZM138.793 61.5534H137.624L137.717 66.7346H138.7L138.793 61.5534ZM138.207 68.8936C138.594 68.8936 138.917 68.5776 138.917 68.1834C138.917 67.7963 138.594 67.4767 138.207 67.4767C137.816 67.4767 137.497 67.7963 137.497 68.1834C137.497 68.5776 137.816 68.8936 138.207 68.8936Z" fill="#141B38"/></g></g><defs><filter id="filter0_ddd_2180_28814" x="17.5" y="34" width="229.305" height="222" filterUnits="userSpaceOnUse" color-interpolation-filters="sRGB"><feFlood flood-opacity="0" result="BackgroundImageFix"/><feColorMatrix in="SourceAlpha" type="matrix" values="0 0 0 0 0 0 0 0 0 0 0 0 0 0 0 0 0 0 127 0" result="hardAlpha"/><feOffset dy="6"/><feGaussianBlur stdDeviation="6.5"/><feColorMatrix type="matrix" values="0 0 0 0 0 0 0 0 0 0 0 0 0 0 0 0 0 0 0.03 0"/><feBlend mode="normal" in2="BackgroundImageFix" result="effect1_dropShadow_2180_28814"/><feColorMatrix in="SourceAlpha" type="matrix" values="0 0 0 0 0 0 0 0 0 0 0 0 0 0 0 0 0 0 127 0" result="hardAlpha"/><feOffset dy="1"/><feGaussianBlur stdDeviation="1"/><feColorMatrix type="matrix" values="0 0 0 0 0 0 0 0 0 0 0 0 0 0 0 0 0 0 0.11 0"/><feBlend mode="normal" in2="effect1_dropShadow_2180_28814" result="effect2_dropShadow_2180_28814"/><feColorMatrix in="SourceAlpha" type="matrix" values="0 0 0 0 0 0 0 0 0 0 0 0 0 0 0 0 0 0 127 0" result="hardAlpha"/><feOffset dy="3"/><feGaussianBlur stdDeviation="3"/><feColorMatrix type="matrix" values="0 0 0 0 0 0 0 0 0 0 0 0 0 0 0 0 0 0 0.04 0"/><feBlend mode="normal" in2="effect2_dropShadow_2180_28814" result="effect3_dropShadow_2180_28814"/><feBlend mode="normal" in="SourceGraphic" in2="effect3_dropShadow_2180_28814" result="shape"/></filter><clipPath id="clip0_2180_28814"><rect width="262.5" height="200" fill="white" transform="translate(0.5)"/></clipPath><clipPath id="clip1_2180_28814"><rect x="45.1094" y="84.8262" width="56" height="56" rx="1" fill="white"/></clipPath><clipPath id="clip2_2180_28814"><rect x="45.1094" y="143.261" width="56" height="56" rx="1" fill="white"/></clipPath><clipPath id="clip3_2180_28814"><rect x="163.195" y="84.8262" width="56" height="56" rx="1" fill="white"/></clipPath><clipPath id="clip4_2180_28814"><rect x="163.195" y="143.261" width="56" height="56" rx="1" fill="white"/></clipPath></defs></svg>