<svg width="263" height="200" viewBox="0 0 263 200" fill="none" xmlns="http://www.w3.org/2000/svg"><rect width="262.5" height="200" fill="#F3F4F5"/><g filter="url(#filter0_ddd_2180_28884)"><rect x="30" y="45" width="202" height="119" rx="2" fill="white"/><g clip-path="url(#clip0_2180_28884)"><rect x="51.3457" y="83.9258" width="51.1589" height="51.1589" rx="1" fill="#43A6DB"/><circle cx="50" cy="111" r="31" fill="#86D0F9"/></g><g clip-path="url(#clip1_2180_28884)"><rect x="104.729" y="83.9258" width="52.271" height="51.1589" rx="1" fill="#43A6DB"/><rect x="123.926" y="95.5449" width="52.2221" height="52.2221" transform="rotate(10 123.926 95.5449)" fill="#86D0F9"/></g><g clip-path="url(#clip2_2180_28884)"><rect x="159.225" y="83.9258" width="51.1589" height="51.1589" rx="1" fill="#43A6DB"/><rect width="52.2221" height="52.2221" transform="matrix(-0.984808 0.173648 0.173648 0.984808 238.287 95.5449)" fill="#86D0F9"/></g><path d="M53.8457 69.1211H55.2911L56.9144 63.4458H56.9775L58.5968 69.1211H60.0423L62.325 61.0327H60.7492L59.2919 66.9805H59.2208L57.6608 61.0327H56.2272L54.6711 66.9766H54.5961L53.1387 61.0327H51.5629L53.8457 69.1211ZM65.1219 69.2396C66.5358 69.2396 67.5073 68.5484 67.7601 67.4939L66.4252 67.3439C66.2317 67.8573 65.7578 68.1258 65.1417 68.1258C64.2175 68.1258 63.6053 67.5176 63.5935 66.4789H67.8193V66.0406C67.8193 63.9118 66.5397 62.9758 65.0469 62.9758C63.3091 62.9758 62.1757 64.2515 62.1757 66.1235C62.1757 68.0271 63.2933 69.2396 65.1219 69.2396ZM63.5974 65.5153C63.6409 64.7412 64.2135 64.0896 65.0666 64.0896C65.8881 64.0896 66.441 64.6899 66.4489 65.5153H63.5974ZM70.0189 61.0327H68.8815V61.8463C68.8815 62.4901 68.6287 62.9837 68.3404 63.4182L69.0039 63.8487C69.5844 63.3668 70.0189 62.5375 70.0189 61.8384V61.0327ZM70.7236 69.1211H72.1532V65.5548C72.1532 64.7847 72.7338 64.2396 73.5197 64.2396C73.7607 64.2396 74.0608 64.2831 74.1832 64.3226V63.0074C74.0529 62.9837 73.8278 62.9679 73.6698 62.9679C72.9747 62.9679 72.3942 63.3629 72.173 64.0659H72.1098V63.0548H70.7236V69.1211ZM77.3464 69.2396C78.7603 69.2396 79.7319 68.5484 79.9846 67.4939L78.6497 67.3439C78.4562 67.8573 77.9823 68.1258 77.3662 68.1258C76.442 68.1258 75.8299 67.5176 75.818 66.4789H80.0439V66.0406C80.0439 63.9118 78.7643 62.9758 77.2714 62.9758C75.5337 62.9758 74.4002 64.2515 74.4002 66.1235C74.4002 68.0271 75.5179 69.2396 77.3464 69.2396ZM75.822 65.5153C75.8654 64.7412 76.4381 64.0896 77.2911 64.0896C78.1126 64.0896 78.6655 64.6899 78.6734 65.5153H75.822ZM86.2133 69.2396C87.9905 69.2396 89.12 67.9876 89.12 66.1117C89.12 64.2317 87.9905 62.9758 86.2133 62.9758C84.436 62.9758 83.3065 64.2317 83.3065 66.1117C83.3065 67.9876 84.436 69.2396 86.2133 69.2396ZM86.2211 68.0943C85.2378 68.0943 84.7559 67.2175 84.7559 66.1077C84.7559 64.9979 85.2378 64.1093 86.2211 64.1093C87.1888 64.1093 87.6706 64.9979 87.6706 66.1077C87.6706 67.2175 87.1888 68.0943 86.2211 68.0943ZM91.5407 65.5666C91.5407 64.6899 92.0699 64.1843 92.8243 64.1843C93.5628 64.1843 94.0051 64.6701 94.0051 65.4798V69.1211H95.4348V65.2586C95.4388 63.8052 94.6094 62.9758 93.3574 62.9758C92.4491 62.9758 91.8251 63.4103 91.5486 64.0856H91.4775V63.0548H90.111V69.1211H91.5407V65.5666ZM100.73 61.0327H99.2652V69.1211H100.73V61.0327ZM103.461 65.5666C103.461 64.6899 103.99 64.1843 104.745 64.1843C105.483 64.1843 105.926 64.6701 105.926 65.4798V69.1211H107.355V65.2586C107.359 63.8052 106.53 62.9758 105.278 62.9758C104.369 62.9758 103.745 63.4103 103.469 64.0856H103.398V63.0548H102.031V69.1211H103.461V65.5666ZM113.381 64.6583C113.183 63.6314 112.362 62.9758 110.94 62.9758C109.479 62.9758 108.483 63.6946 108.487 64.8163C108.483 65.7009 109.029 66.2854 110.194 66.5263L111.228 66.7436C111.785 66.866 112.046 67.0911 112.046 67.4347C112.046 67.8494 111.596 68.1614 110.916 68.1614C110.261 68.1614 109.834 67.877 109.712 67.332L108.318 67.4663C108.495 68.58 109.431 69.2396 110.92 69.2396C112.437 69.2396 113.507 68.4536 113.511 67.3044C113.507 66.4395 112.95 65.9102 111.805 65.6614L110.77 65.4403C110.154 65.302 109.909 65.0888 109.913 64.7373C109.909 64.3265 110.363 64.0422 110.96 64.0422C111.619 64.0422 111.967 64.4016 112.077 64.8005L113.381 64.6583ZM117.497 63.0548H116.3V61.6014H114.87V63.0548H114.009V64.1607H114.87V67.5334C114.862 68.6748 115.692 69.2356 116.766 69.204C117.173 69.1922 117.453 69.1132 117.607 69.0619L117.366 67.9442C117.287 67.9639 117.125 67.9995 116.948 67.9995C116.588 67.9995 116.3 67.8731 116.3 67.2965V64.1607H117.497V63.0548ZM120.216 69.2435C121.167 69.2435 121.736 68.7972 121.997 68.2878H122.044V69.1211H123.419V65.0611C123.419 63.4577 122.111 62.9758 120.954 62.9758C119.678 62.9758 118.699 63.5445 118.383 64.6504L119.718 64.8399C119.86 64.4253 120.263 64.0698 120.962 64.0698C121.626 64.0698 121.989 64.4095 121.989 65.0058V65.0295C121.989 65.4403 121.558 65.46 120.488 65.5745C119.311 65.7009 118.186 66.0524 118.186 67.4189C118.186 68.6116 119.058 69.2435 120.216 69.2435ZM120.587 68.193C119.99 68.193 119.564 67.9205 119.564 67.3952C119.564 66.8462 120.042 66.6172 120.682 66.5263C121.057 66.475 121.807 66.3802 121.993 66.2301V66.945C121.993 67.6203 121.448 68.193 120.587 68.193ZM127.272 71.5223C128.911 71.5223 130.119 70.7719 130.119 69.2198V63.0548H128.709V64.058H128.631C128.413 63.6196 127.959 62.9758 126.889 62.9758C125.487 62.9758 124.385 64.0738 124.385 66.0682C124.385 68.0469 125.487 69.0342 126.885 69.0342C127.924 69.0342 128.409 68.4773 128.631 68.0311H128.702V69.1803C128.702 70.0729 128.109 70.4402 127.296 70.4402C126.435 70.4402 126.056 70.0334 125.882 69.678L124.594 69.99C124.855 70.8391 125.728 71.5223 127.272 71.5223ZM127.284 67.9126C126.34 67.9126 125.842 67.178 125.842 66.0603C125.842 64.9584 126.332 64.1488 127.284 64.1488C128.204 64.1488 128.709 64.911 128.709 66.0603C128.709 67.2175 128.196 67.9126 127.284 67.9126ZM131.362 69.1211H132.792V65.5548C132.792 64.7847 133.372 64.2396 134.158 64.2396C134.399 64.2396 134.699 64.2831 134.822 64.3226V63.0074C134.692 62.9837 134.466 62.9679 134.308 62.9679C133.613 62.9679 133.033 63.3629 132.812 64.0659H132.748V63.0548H131.362V69.1211ZM137.175 69.2435C138.127 69.2435 138.696 68.7972 138.957 68.2878H139.004V69.1211H140.378V65.0611C140.378 63.4577 139.071 62.9758 137.914 62.9758C136.638 62.9758 135.659 63.5445 135.343 64.6504L136.678 64.8399C136.82 64.4253 137.223 64.0698 137.922 64.0698C138.585 64.0698 138.949 64.4095 138.949 65.0058V65.0295C138.949 65.4403 138.518 65.46 137.448 65.5745C136.271 65.7009 135.145 66.0524 135.145 67.4189C135.145 68.6116 136.018 69.2435 137.175 69.2435ZM137.547 68.193C136.95 68.193 136.524 67.9205 136.524 67.3952C136.524 66.8462 137.002 66.6172 137.641 66.5263C138.017 66.475 138.767 66.3802 138.953 66.2301V66.945C138.953 67.6203 138.408 68.193 137.547 68.193ZM141.594 69.1211H143.023V65.4324C143.023 64.6859 143.521 64.1804 144.137 64.1804C144.741 64.1804 145.156 64.5872 145.156 65.2112V69.1211H146.558V65.3376C146.558 64.6543 146.965 64.1804 147.656 64.1804C148.232 64.1804 148.691 64.52 148.691 65.2704V69.1211H150.124V65.0493C150.124 63.6946 149.342 62.9758 148.229 62.9758C147.348 62.9758 146.676 63.4103 146.408 64.0856H146.345C146.112 63.3984 145.523 62.9758 144.706 62.9758C143.892 62.9758 143.284 63.3945 143.031 64.0856H142.96V63.0548H141.594V69.1211ZM153.102 61.0327H151.573L151.7 66.7436H152.971L153.102 61.0327ZM152.336 69.208C152.802 69.208 153.201 68.8209 153.205 68.3391C153.201 67.8652 152.802 67.4781 152.336 67.4781C151.854 67.4781 151.463 67.8652 151.467 68.3391C151.463 68.8209 151.854 69.208 152.336 69.208Z" fill="black"/><circle cx="115" cy="148" r="2" fill="#434960"/><circle cx="124" cy="148" r="2" fill="#D0D1D7"/><circle cx="133" cy="148" r="2" fill="#D0D1D7"/><circle cx="142" cy="148" r="2" fill="#D0D1D7"/><circle cx="151" cy="148" r="2" fill="#D0D1D7"/></g><defs><filter id="filter0_ddd_2180_28884" x="17" y="38" width="228" height="145" filterUnits="userSpaceOnUse" color-interpolation-filters="sRGB"><feFlood flood-opacity="0" result="BackgroundImageFix"/><feColorMatrix in="SourceAlpha" type="matrix" values="0 0 0 0 0 0 0 0 0 0 0 0 0 0 0 0 0 0 127 0" result="hardAlpha"/><feOffset dy="6"/><feGaussianBlur stdDeviation="6.5"/><feColorMatrix type="matrix" values="0 0 0 0 0 0 0 0 0 0 0 0 0 0 0 0 0 0 0.03 0"/><feBlend mode="normal" in2="BackgroundImageFix" result="effect1_dropShadow_2180_28884"/><feColorMatrix in="SourceAlpha" type="matrix" values="0 0 0 0 0 0 0 0 0 0 0 0 0 0 0 0 0 0 127 0" result="hardAlpha"/><feOffset dy="1"/><feGaussianBlur stdDeviation="1"/><feColorMatrix type="matrix" values="0 0 0 0 0 0 0 0 0 0 0 0 0 0 0 0 0 0 0.11 0"/><feBlend mode="normal" in2="effect1_dropShadow_2180_28884" result="effect2_dropShadow_2180_28884"/><feColorMatrix in="SourceAlpha" type="matrix" values="0 0 0 0 0 0 0 0 0 0 0 0 0 0 0 0 0 0 127 0" result="hardAlpha"/><feOffset dy="3"/><feGaussianBlur stdDeviation="3"/><feColorMatrix type="matrix" values="0 0 0 0 0 0 0 0 0 0 0 0 0 0 0 0 0 0 0.04 0"/><feBlend mode="normal" in2="effect2_dropShadow_2180_28884" result="effect3_dropShadow_2180_28884"/><feBlend mode="normal" in="SourceGraphic" in2="effect3_dropShadow_2180_28884" result="shape"/></filter><clipPath id="clip0_2180_28884"><rect x="51.3457" y="83.9258" width="51.1589" height="51.1589" rx="1" fill="white"/></clipPath><clipPath id="clip1_2180_28884"><rect x="104.729" y="83.9258" width="52.271" height="51.1589" rx="1" fill="white"/></clipPath><clipPath id="clip2_2180_28884"><rect x="159.225" y="83.9258" width="51.1589" height="51.1589" rx="1" fill="white"/></clipPath></defs></svg>