<svg width="263" height="200" fill="none" xmlns="http://www.w3.org/2000/svg"><g clip-path="url(#a)"><path fill="#F3F4F5" d="M0 0h262.5v200H0z"/><g filter="url(#b)"><rect x="18" y="41" width="227" height="186" rx="2" fill="#fff"/><circle cx="136" cy="61.982" r="10.982" fill="#86D0F9"/><path d="M119.201 82.015a.79.79 0 0 1 .814-.814h6.644a.79.79 0 0 1 .814.814v2.672a.79.79 0 0 1-.814.814h-6.644a.791.791 0 0 1-.814-.814v-2.672Z" fill="#8C8F9A"/><path d="M125.496 82.015a.79.79 0 0 1 .814-.814h6.644a.79.79 0 0 1 .814.814v2.672a.79.79 0 0 1-.814.814h-6.644a.79.79 0 0 1-.814-.814v-2.672Z" fill="#8C8F9A"/><path d="M131.791 82.015a.79.79 0 0 1 .814-.814h3.644a.79.79 0 0 1 .814.814v2.672a.79.79 0 0 1-.814.814h-3.644a.79.79 0 0 1-.814-.814v-2.672Z" fill="#8C8F9A"/><path d="M135.086 82.015a.79.79 0 0 1 .814-.814h6.644a.79.79 0 0 1 .814.814v2.672a.79.79 0 0 1-.814.814H135.9a.79.79 0 0 1-.814-.814v-2.672Z" fill="#8C8F9A"/><path d="M141.381 82.026a.79.79 0 0 1 .814-.814h3.498a.79.79 0 0 1 .814.814v2.661a.79.79 0 0 1-.814.814h-3.498a.79.79 0 0 1-.814-.814v-2.66Z" fill="#8C8F9A"/><path d="M144.528 82.015a.79.79 0 0 1 .814-.814h6.644a.79.79 0 0 1 .814.814v2.672a.79.79 0 0 1-.814.814h-6.644a.791.791 0 0 1-.814-.814v-2.672Z" fill="#8C8F9A"/><path d="M105 90.222c0-.207.077-.38.232-.516a.85.85 0 0 1 .585-.205h6.668a.85.85 0 0 1 .585.205.662.662 0 0 1 .232.516v2.492c0 .208-.078.38-.232.517a.853.853 0 0 1-.585.205h-6.668a.85.85 0 0 1-.585-.205.659.659 0 0 1-.232-.517v-2.492Z" fill="#D0D1D7"/><path d="M111.317 90.222c0-.207.078-.38.232-.516a.853.853 0 0 1 .585-.205h6.668a.85.85 0 0 1 .585.205.659.659 0 0 1 .232.516v2.492a.66.66 0 0 1-.232.517.85.85 0 0 1-.585.205h-6.668a.853.853 0 0 1-.585-.205.662.662 0 0 1-.232-.517v-2.492Z" fill="#D0D1D7"/><path d="M117.635 90.222c0-.207.077-.38.232-.516a.85.85 0 0 1 .585-.205h6.668a.85.85 0 0 1 .585.205.662.662 0 0 1 .232.516v2.492c0 .208-.078.38-.232.517a.853.853 0 0 1-.585.205h-6.668a.85.85 0 0 1-.585-.205.659.659 0 0 1-.232-.517v-2.492Z" fill="#D0D1D7"/><path d="M123.952 90.222c0-.207.078-.38.232-.516a.853.853 0 0 1 .585-.205h6.668a.85.85 0 0 1 .585.205.659.659 0 0 1 .232.516v2.492a.66.66 0 0 1-.232.517.85.85 0 0 1-.585.205h-6.668a.853.853 0 0 1-.585-.205.662.662 0 0 1-.232-.517v-2.492Z" fill="#D0D1D7"/><path d="M130.27 90.232c0-.208.077-.38.232-.516a.85.85 0 0 1 .585-.205h3.51a.85.85 0 0 1 .585.205.659.659 0 0 1 .232.516v2.482a.66.66 0 0 1-.232.517.85.85 0 0 1-.585.205h-3.51a.85.85 0 0 1-.585-.205.659.659 0 0 1-.232-.517v-2.482Z" fill="#D0D1D7"/><path d="M133.429 90.232a.66.66 0 0 1 .231-.516.853.853 0 0 1 .585-.205h3.511c.235 0 .431.068.585.205a.659.659 0 0 1 .232.516v2.482a.66.66 0 0 1-.232.517.851.851 0 0 1-.585.205h-3.511a.853.853 0 0 1-.585-.205.661.661 0 0 1-.231-.517v-2.482Z" fill="#D0D1D7"/><path d="M136.587 90.222c0-.207.078-.38.232-.516a.853.853 0 0 1 .585-.205h6.668c.235 0 .431.068.585.205a.659.659 0 0 1 .232.516v2.492a.66.66 0 0 1-.232.517.851.851 0 0 1-.585.205h-6.668a.853.853 0 0 1-.585-.205.662.662 0 0 1-.232-.517v-2.492Z" fill="#D0D1D7"/><path d="M142.905 90.232c0-.208.077-.38.232-.516a.85.85 0 0 1 .585-.205h3.51a.85.85 0 0 1 .585.205.659.659 0 0 1 .232.516v2.482a.66.66 0 0 1-.232.517.85.85 0 0 1-.585.205h-3.51a.85.85 0 0 1-.585-.205.659.659 0 0 1-.232-.517v-2.482Z" fill="#D0D1D7"/><path d="M146.063 90.222c0-.207.078-.38.232-.516a.853.853 0 0 1 .585-.205h6.668a.85.85 0 0 1 .585.205.659.659 0 0 1 .232.516v2.492a.66.66 0 0 1-.232.517.85.85 0 0 1-.585.205h-6.668a.853.853 0 0 1-.585-.205.662.662 0 0 1-.232-.517v-2.492Z" fill="#D0D1D7"/><path d="M152.381 90.222c0-.207.077-.38.232-.516a.85.85 0 0 1 .585-.205h6.668a.85.85 0 0 1 .585.205.662.662 0 0 1 .232.516v2.492c0 .208-.078.38-.232.517a.853.853 0 0 1-.585.205h-6.668a.85.85 0 0 1-.585-.205.659.659 0 0 1-.232-.517v-2.492Z" fill="#D0D1D7"/><path d="M158.698 90.222c0-.207.078-.38.232-.516a.853.853 0 0 1 .585-.205h6.668a.85.85 0 0 1 .585.205.659.659 0 0 1 .232.516v2.492a.66.66 0 0 1-.232.517.85.85 0 0 1-.585.205h-6.668a.853.853 0 0 1-.585-.205.662.662 0 0 1-.232-.517v-2.492ZM111 97.288a.66.66 0 0 1 .232-.517.849.849 0 0 1 .585-.204h6.668c.235 0 .43.068.585.204a.662.662 0 0 1 .232.517v2.491a.66.66 0 0 1-.232.517.85.85 0 0 1-.585.205h-6.668a.847.847 0 0 1-.585-.205.657.657 0 0 1-.232-.517v-2.491Z" fill="#D0D1D7"/><path d="M117.317 97.288c0-.208.078-.38.232-.517a.852.852 0 0 1 .585-.204h6.668c.236 0 .431.068.585.204a.658.658 0 0 1 .232.517v2.491a.657.657 0 0 1-.232.517.847.847 0 0 1-.585.205h-6.668a.85.85 0 0 1-.585-.205.66.66 0 0 1-.232-.517v-2.491Z" fill="#D0D1D7"/><path d="M123.635 97.288a.66.66 0 0 1 .232-.517.849.849 0 0 1 .585-.204h6.668c.235 0 .43.068.585.204a.662.662 0 0 1 .232.517v2.491a.66.66 0 0 1-.232.517.85.85 0 0 1-.585.205h-6.668a.847.847 0 0 1-.585-.205.657.657 0 0 1-.232-.517v-2.491Z" fill="#D0D1D7"/><path d="M129.952 97.288c0-.208.078-.38.232-.517a.852.852 0 0 1 .585-.204h6.668c.236 0 .431.068.585.204a.658.658 0 0 1 .232.517v2.491a.657.657 0 0 1-.232.517.847.847 0 0 1-.585.205h-6.668a.85.85 0 0 1-.585-.205.66.66 0 0 1-.232-.517v-2.491Z" fill="#D0D1D7"/><path d="M136.27 97.288a.66.66 0 0 1 .232-.517.849.849 0 0 1 .585-.204h6.668c.235 0 .43.068.585.204a.66.66 0 0 1 .231.517v2.491a.66.66 0 0 1-.231.517.85.85 0 0 1-.585.205h-6.668a.847.847 0 0 1-.585-.205.657.657 0 0 1-.232-.517v-2.491Z" fill="#D0D1D7"/><path d="M142.587 97.288c0-.208.078-.38.232-.517a.852.852 0 0 1 .585-.204h6.668a.85.85 0 0 1 .585.204.658.658 0 0 1 .232.517v2.491a.657.657 0 0 1-.232.517.849.849 0 0 1-.585.205h-6.668a.85.85 0 0 1-.585-.205.66.66 0 0 1-.232-.517v-2.491Z" fill="#D0D1D7"/><path d="M148.905 97.288a.66.66 0 0 1 .232-.517.849.849 0 0 1 .585-.204h6.667c.236 0 .431.068.586.204a.66.66 0 0 1 .231.517v2.491a.66.66 0 0 1-.231.517.851.851 0 0 1-.586.205h-6.667a.847.847 0 0 1-.585-.205.657.657 0 0 1-.232-.517v-2.491Z" fill="#D0D1D7"/><path d="M155.222 97.298a.66.66 0 0 1 .232-.517.853.853 0 0 1 .585-.205h3.511c.235 0 .43.069.585.205a.662.662 0 0 1 .232.517v2.481a.66.66 0 0 1-.232.517.85.85 0 0 1-.585.205h-3.511a.85.85 0 0 1-.585-.205.657.657 0 0 1-.232-.517v-2.481Z" fill="#D0D1D7"/><rect x="116" y="108.501" width="40" height="9" rx="1" fill="#0096CC"/><g clip-path="url(#c)"><path d="M128.501 111.878a1.123 1.123 0 1 0 1.123 1.123 1.13 1.13 0 0 0-1.123-1.123Zm0 1.855a.731.731 0 0 1-.732-.732c0-.4.322-.723.732-.723.4 0 .723.323.723.723 0 .41-.323.732-.723.732Zm1.426-1.894a.262.262 0 0 0-.264-.264.264.264 0 1 0 .264.264Zm.742.264c-.02-.352-.098-.665-.352-.918-.254-.254-.566-.332-.918-.352-.361-.02-1.445-.02-1.806 0-.352.02-.655.098-.918.352-.254.253-.332.566-.352.918a28.618 28.618 0 0 0 0 1.806c.02.352.098.654.352.918.263.254.566.332.918.352.361.019 1.445.019 1.806 0 .352-.02.664-.098.918-.352.254-.264.332-.566.352-.918.019-.361.019-1.445 0-1.806Zm-.469 2.187a.722.722 0 0 1-.41.42c-.293.117-.977.088-1.289.088-.322 0-1.006.029-1.289-.088a.742.742 0 0 1-.42-.42c-.117-.283-.088-.967-.088-1.289 0-.313-.029-.996.088-1.289a.752.752 0 0 1 .42-.41c.283-.117.967-.088 1.289-.088.312 0 .996-.029 1.289.088a.731.731 0 0 1 .41.41c.117.293.088.976.088 1.289 0 .322.029 1.006-.088 1.289Z" fill="#fff"/></g><path d="M133.287 114.501h.527v-1.236h1.209v-.442h-1.209v-.789h1.337v-.442h-1.864v2.909Zm3.153.043c.639 0 1.045-.451 1.045-1.125 0-.677-.406-1.128-1.045-1.128-.64 0-1.046.451-1.046 1.128 0 .674.406 1.125 1.046 1.125Zm.002-.412c-.353 0-.527-.316-.527-.715 0-.399.174-.719.527-.719.348 0 .522.32.522.719 0 .399-.174.715-.522.715Zm2.034-2.54h-.515v2.909h.515v-2.909Zm1.083 0h-.515v2.909h.515v-2.909Zm1.52 2.952c.639 0 1.045-.451 1.045-1.125 0-.677-.406-1.128-1.045-1.128-.639 0-1.045.451-1.045 1.128 0 .674.406 1.125 1.045 1.125Zm.003-.412c-.354 0-.527-.316-.527-.715 0-.399.173-.719.527-.719.348 0 .521.32.521.719 0 .399-.173.715-.521.715Zm1.911.369h.537l.409-1.474h.029l.41 1.474h.535l.618-2.182h-.526l-.377 1.526h-.022l-.392-1.526h-.518l-.392 1.534h-.02l-.384-1.534h-.524l.617 2.182Z" fill="#fff"/><rect x="24.928" y="125" width="24.928" height="24.928" rx="1" fill="#43A6DB"/><rect x="24.928" y="151.928" width="24.928" height="24.928" rx="1" fill="#43A6DB"/><rect x="24.928" y="178.855" width="24.928" height="24.928" rx="1" fill="#43A6DB"/><rect x="51.855" y="125" width="24.928" height="24.928" rx="1" fill="#43A6DB"/><rect x="51.855" y="151.928" width="24.928" height="24.928" rx="1" fill="#43A6DB"/><rect x="51.855" y="178.855" width="24.928" height="24.928" rx="1" fill="#43A6DB"/><rect x="78.783" y="125" width="24.928" height="24.928" rx="1" fill="#43A6DB"/><rect x="78.783" y="151.928" width="24.928" height="24.928" rx="1" fill="#43A6DB"/><rect x="78.783" y="178.855" width="24.928" height="24.928" rx="1" fill="#43A6DB"/><rect x="105.711" y="125" width="24.928" height="24.928" rx="1" fill="#43A6DB"/><rect x="105.711" y="151.928" width="24.928" height="24.928" rx="1" fill="#43A6DB"/><rect x="105.711" y="178.855" width="24.928" height="24.928" rx="1" fill="#43A6DB"/><rect x="132.639" y="125" width="24.928" height="24.928" rx="1" fill="#43A6DB"/><rect x="132.639" y="151.928" width="24.928" height="24.928" rx="1" fill="#43A6DB"/><rect x="132.639" y="178.855" width="24.928" height="24.928" rx="1" fill="#43A6DB"/><rect x="159.566" y="125" width="24.928" height="24.928" rx="1" fill="#43A6DB"/><rect x="159.566" y="151.928" width="24.928" height="24.928" rx="1" fill="#43A6DB"/><rect x="159.566" y="178.855" width="24.928" height="24.928" rx="1" fill="#43A6DB"/><rect x="186.494" y="125" width="24.928" height="24.928" rx="1" fill="#43A6DB"/><rect x="186.494" y="151.928" width="24.928" height="24.928" rx="1" fill="#43A6DB"/><rect x="186.494" y="178.855" width="24.928" height="24.928" rx="1" fill="#43A6DB"/><rect x="213.422" y="125" width="24.928" height="24.928" rx="1" fill="#43A6DB"/><rect x="213.422" y="151.928" width="24.928" height="24.928" rx="1" fill="#43A6DB"/><rect x="213.422" y="178.855" width="24.928" height="24.928" rx="1" fill="#43A6DB"/></g></g><defs><clipPath id="a"><path fill="#fff" d="M0 0h262.5v200H0z"/></clipPath><clipPath id="c"><path fill="#fff" transform="translate(126 110.501)" d="M0 0h5v5H0z"/></clipPath><filter id="b" x="5" y="34" width="253" height="212" filterUnits="userSpaceOnUse" color-interpolation-filters="sRGB"><feFlood flood-opacity="0" result="BackgroundImageFix"/><feColorMatrix in="SourceAlpha" values="0 0 0 0 0 0 0 0 0 0 0 0 0 0 0 0 0 0 127 0" result="hardAlpha"/><feOffset dy="6"/><feGaussianBlur stdDeviation="6.5"/><feColorMatrix values="0 0 0 0 0 0 0 0 0 0 0 0 0 0 0 0 0 0 0.03 0"/><feBlend in2="BackgroundImageFix" result="effect1_dropShadow_2180_28831"/><feColorMatrix in="SourceAlpha" values="0 0 0 0 0 0 0 0 0 0 0 0 0 0 0 0 0 0 127 0" result="hardAlpha"/><feOffset dy="1"/><feGaussianBlur stdDeviation="1"/><feColorMatrix values="0 0 0 0 0 0 0 0 0 0 0 0 0 0 0 0 0 0 0.11 0"/><feBlend in2="effect1_dropShadow_2180_28831" result="effect2_dropShadow_2180_28831"/><feColorMatrix in="SourceAlpha" values="0 0 0 0 0 0 0 0 0 0 0 0 0 0 0 0 0 0 127 0" result="hardAlpha"/><feOffset dy="3"/><feGaussianBlur stdDeviation="3"/><feColorMatrix values="0 0 0 0 0 0 0 0 0 0 0 0 0 0 0 0 0 0 0.04 0"/><feBlend in2="effect2_dropShadow_2180_28831" result="effect3_dropShadow_2180_28831"/><feBlend in="SourceGraphic" in2="effect3_dropShadow_2180_28831" result="shape"/></filter></defs></svg>