<svg width="263" height="200" viewBox="0 0 263 200" fill="none" xmlns="http://www.w3.org/2000/svg"><g clip-path="url(#clip0_2180_29258)"><rect width="262.5" height="200" fill="#F3F4F5"/><g filter="url(#filter0_ddd_2180_29258)"><rect x="29" y="19" width="205" height="164" rx="2" fill="white"/><g clip-path="url(#clip1_2180_29258)"><g clip-path="url(#clip2_2180_29258)"><rect width="183" height="136" transform="translate(40 63)" fill="#FFDF99"/><circle cx="187.018" cy="219.929" r="117" fill="#FFD066"/></g></g><circle cx="51.9821" cy="41.9821" r="10.9821" fill="#FFDF99"/><path d="M71.2012 33.146C71.2012 32.9114 71.2782 32.717 71.4322 32.563C71.5862 32.409 71.7805 32.332 72.0152 32.332H78.6592C78.8938 32.332 79.0882 32.409 79.2422 32.563C79.3962 32.717 79.4732 32.9114 79.4732 33.146V35.818C79.4732 36.0527 79.3962 36.247 79.2422 36.401C79.0882 36.555 78.8938 36.632 78.6592 36.632H72.0152C71.7805 36.632 71.5862 36.555 71.4322 36.401C71.2782 36.247 71.2012 36.0527 71.2012 35.818V33.146Z" fill="#8C8F9A"/><path d="M77.4961 33.146C77.4961 32.9114 77.5731 32.717 77.7271 32.563C77.8811 32.409 78.0754 32.332 78.3101 32.332H84.9541C85.1888 32.332 85.3831 32.409 85.5371 32.563C85.6911 32.717 85.7681 32.9114 85.7681 33.146V35.818C85.7681 36.0527 85.6911 36.247 85.5371 36.401C85.3831 36.555 85.1888 36.632 84.9541 36.632H78.3101C78.0754 36.632 77.8811 36.555 77.7271 36.401C77.5731 36.247 77.4961 36.0527 77.4961 35.818V33.146Z" fill="#8C8F9A"/><path d="M83.791 33.146C83.791 32.9114 83.868 32.717 84.022 32.563C84.176 32.409 84.3703 32.332 84.605 32.332H88.249C88.4837 32.332 88.678 32.409 88.832 32.563C88.986 32.717 89.063 32.9114 89.063 33.146V35.818C89.063 36.0527 88.986 36.247 88.832 36.401C88.678 36.555 88.4837 36.632 88.249 36.632H84.605C84.3703 36.632 84.176 36.555 84.022 36.401C83.868 36.247 83.791 36.0527 83.791 35.818V33.146Z" fill="#8C8F9A"/><path d="M87.0859 33.146C87.0859 32.9114 87.1629 32.717 87.3169 32.563C87.4709 32.409 87.6653 32.332 87.8999 32.332H94.5439C94.7786 32.332 94.9729 32.409 95.1269 32.563C95.2809 32.717 95.3579 32.9114 95.3579 33.146V35.818C95.3579 36.0527 95.2809 36.247 95.1269 36.401C94.9729 36.555 94.7786 36.632 94.5439 36.632H87.8999C87.6653 36.632 87.4709 36.555 87.3169 36.401C87.1629 36.247 87.0859 36.0527 87.0859 35.818V33.146Z" fill="#8C8F9A"/><path d="M93.3809 33.157C93.3809 32.9224 93.4579 32.728 93.6119 32.574C93.7659 32.42 93.9602 32.343 94.1949 32.343H97.6929C97.9275 32.343 98.1219 32.42 98.2759 32.574C98.4299 32.728 98.5069 32.9224 98.5069 33.157V35.818C98.5069 36.0527 98.4299 36.247 98.2759 36.401C98.1219 36.555 97.9275 36.632 97.6929 36.632H94.1949C93.9602 36.632 93.7659 36.555 93.6119 36.401C93.4579 36.247 93.3809 36.0527 93.3809 35.818V33.157Z" fill="#8C8F9A"/><path d="M96.5283 33.146C96.5283 32.9114 96.6053 32.717 96.7593 32.563C96.9133 32.409 97.1077 32.332 97.3423 32.332H103.986C104.221 32.332 104.415 32.409 104.569 32.563C104.723 32.717 104.8 32.9114 104.8 33.146V35.818C104.8 36.0527 104.723 36.247 104.569 36.401C104.415 36.555 104.221 36.632 103.986 36.632H97.3423C97.1077 36.632 96.9133 36.555 96.7593 36.401C96.6053 36.247 96.5283 36.0527 96.5283 35.818V33.146Z" fill="#8C8F9A"/><path d="M71.2012 41.3534C71.2012 41.1454 71.2784 40.9731 71.433 40.8366C71.5876 40.7001 71.7826 40.6318 72.0181 40.6318H78.6859C78.9214 40.6318 79.1164 40.7001 79.271 40.8366C79.4255 40.9731 79.5028 41.1454 79.5028 41.3534V43.8448C79.5028 44.0528 79.4255 44.2251 79.271 44.3616C79.1164 44.4981 78.9214 44.5663 78.6859 44.5663H72.0181C71.7826 44.5663 71.5876 44.4981 71.433 44.3616C71.2784 44.2251 71.2012 44.0528 71.2012 43.8448V41.3534Z" fill="#D0D1D7"/><path d="M77.5186 41.3534C77.5186 41.1454 77.5959 40.9731 77.7505 40.8366C77.905 40.7001 78.1 40.6318 78.3355 40.6318H85.0033C85.2388 40.6318 85.4339 40.7001 85.5884 40.8366C85.743 40.9731 85.8202 41.1454 85.8202 41.3534V43.8448C85.8202 44.0528 85.743 44.2251 85.5884 44.3616C85.4339 44.4981 85.2388 44.5663 85.0033 44.5663H78.3355C78.1 44.5663 77.905 44.4981 77.7505 44.3616C77.5959 44.2251 77.5186 44.0528 77.5186 43.8448V41.3534Z" fill="#D0D1D7"/><path d="M83.8361 41.3534C83.8361 41.1454 83.9134 40.9731 84.0679 40.8366C84.2225 40.7001 84.4175 40.6318 84.653 40.6318H91.3208C91.5563 40.6318 91.7513 40.7001 91.9059 40.8366C92.0604 40.9731 92.1377 41.1454 92.1377 41.3534V43.8448C92.1377 44.0528 92.0604 44.2251 91.9059 44.3616C91.7513 44.4981 91.5563 44.5663 91.3208 44.5663H84.653C84.4175 44.5663 84.2225 44.4981 84.0679 44.3616C83.9134 44.2251 83.8361 44.0528 83.8361 43.8448V41.3534Z" fill="#D0D1D7"/><path d="M90.1535 41.3534C90.1535 41.1454 90.2308 40.9731 90.3854 40.8366C90.5399 40.7001 90.735 40.6318 90.9705 40.6318H97.6382C97.8738 40.6318 98.0688 40.7001 98.2233 40.8366C98.3779 40.9731 98.4552 41.1454 98.4552 41.3534V43.8448C98.4552 44.0528 98.3779 44.2251 98.2233 44.3616C98.0688 44.4981 97.8738 44.5663 97.6382 44.5663H90.9705C90.735 44.5663 90.5399 44.4981 90.3854 44.3616C90.2308 44.2251 90.1535 44.0528 90.1535 43.8448V41.3534Z" fill="#D0D1D7"/><path d="M96.471 41.3631C96.471 41.1551 96.5483 40.9829 96.7028 40.8463C96.8574 40.7098 97.0524 40.6416 97.2879 40.6416H100.798C101.034 40.6416 101.229 40.7098 101.384 40.8463C101.538 40.9829 101.615 41.1551 101.615 41.3631V43.8448C101.615 44.0528 101.538 44.2251 101.384 44.3616C101.229 44.4981 101.034 44.5663 100.798 44.5663H97.2879C97.0524 44.5663 96.8574 44.4981 96.7028 44.3616C96.5483 44.2251 96.471 44.0528 96.471 43.8448V41.3631Z" fill="#D0D1D7"/><path d="M99.6297 41.3631C99.6297 41.1551 99.707 40.9829 99.8616 40.8463C100.016 40.7098 100.211 40.6416 100.447 40.6416H103.957C104.193 40.6416 104.388 40.7098 104.542 40.8463C104.697 40.9829 104.774 41.1551 104.774 41.3631V43.8448C104.774 44.0528 104.697 44.2251 104.542 44.3616C104.388 44.4981 104.193 44.5663 103.957 44.5663H100.447C100.211 44.5663 100.016 44.4981 99.8616 44.3616C99.707 44.2251 99.6297 44.0528 99.6297 43.8448V41.3631Z" fill="#D0D1D7"/><path d="M102.788 41.3534C102.788 41.1454 102.866 40.9731 103.02 40.8366C103.175 40.7001 103.37 40.6318 103.605 40.6318H110.273C110.509 40.6318 110.704 40.7001 110.858 40.8366C111.013 40.9731 111.09 41.1454 111.09 41.3534V43.8448C111.09 44.0528 111.013 44.2251 110.858 44.3616C110.704 44.4981 110.509 44.5663 110.273 44.5663H103.605C103.37 44.5663 103.175 44.4981 103.02 44.3616C102.866 44.2251 102.788 44.0528 102.788 43.8448V41.3534Z" fill="#D0D1D7"/><path d="M109.106 41.3631C109.106 41.1551 109.183 40.9829 109.338 40.8463C109.492 40.7098 109.687 40.6416 109.923 40.6416H113.433C113.669 40.6416 113.864 40.7098 114.018 40.8463C114.173 40.9829 114.25 41.1551 114.25 41.3631V43.8448C114.25 44.0528 114.173 44.2251 114.018 44.3616C113.864 44.4981 113.669 44.5663 113.433 44.5663H109.923C109.687 44.5663 109.492 44.4981 109.338 44.3616C109.183 44.2251 109.106 44.0528 109.106 43.8448V41.3631Z" fill="#D0D1D7"/><path d="M112.265 41.3534C112.265 41.1454 112.342 40.9731 112.496 40.8366C112.651 40.7001 112.846 40.6318 113.082 40.6318H119.749C119.985 40.6318 120.18 40.7001 120.334 40.8366C120.489 40.9731 120.566 41.1454 120.566 41.3534V43.8448C120.566 44.0528 120.489 44.2251 120.334 44.3616C120.18 44.4981 119.985 44.5663 119.749 44.5663H113.082C112.846 44.5663 112.651 44.4981 112.496 44.3616C112.342 44.2251 112.265 44.0528 112.265 43.8448V41.3534Z" fill="#D0D1D7"/><path d="M118.582 41.3534C118.582 41.1454 118.659 40.9731 118.814 40.8366C118.968 40.7001 119.164 40.6318 119.399 40.6318H126.067C126.302 40.6318 126.497 40.7001 126.652 40.8366C126.806 40.9731 126.884 41.1454 126.884 41.3534V43.8448C126.884 44.0528 126.806 44.2251 126.652 44.3616C126.497 44.4981 126.302 44.5663 126.067 44.5663H119.399C119.164 44.5663 118.968 44.4981 118.814 44.3616C118.659 44.2251 118.582 44.0528 118.582 43.8448V41.3534Z" fill="#D0D1D7"/><path d="M124.9 41.3534C124.9 41.1454 124.977 40.9731 125.131 40.8366C125.286 40.7001 125.481 40.6318 125.716 40.6318H132.384C132.62 40.6318 132.815 40.7001 132.969 40.8366C133.124 40.9731 133.201 41.1454 133.201 41.3534V43.8448C133.201 44.0528 133.124 44.2251 132.969 44.3616C132.815 44.4981 132.62 44.5663 132.384 44.5663H125.716C125.481 44.5663 125.286 44.4981 125.131 44.3616C124.977 44.2251 124.9 44.0528 124.9 43.8448V41.3534Z" fill="#D0D1D7"/><path d="M71.2012 48.4189C71.2012 48.2109 71.2784 48.0386 71.433 47.9021C71.5876 47.7656 71.7826 47.6974 72.0181 47.6974H78.6859C78.9214 47.6974 79.1164 47.7656 79.271 47.9021C79.4255 48.0386 79.5028 48.2109 79.5028 48.4189V50.9103C79.5028 51.1183 79.4255 51.2906 79.271 51.4271C79.1164 51.5636 78.9214 51.6318 78.6859 51.6318H72.0181C71.7826 51.6318 71.5876 51.5636 71.433 51.4271C71.2784 51.2906 71.2012 51.1183 71.2012 50.9103V48.4189Z" fill="#D0D1D7"/><path d="M77.5186 48.4189C77.5186 48.2109 77.5959 48.0386 77.7505 47.9021C77.905 47.7656 78.1 47.6974 78.3355 47.6974H85.0033C85.2388 47.6974 85.4339 47.7656 85.5884 47.9021C85.743 48.0386 85.8202 48.2109 85.8202 48.4189V50.9103C85.8202 51.1183 85.743 51.2906 85.5884 51.4271C85.4339 51.5636 85.2388 51.6318 85.0033 51.6318H78.3355C78.1 51.6318 77.905 51.5636 77.7505 51.4271C77.5959 51.2906 77.5186 51.1183 77.5186 50.9103V48.4189Z" fill="#D0D1D7"/><path d="M83.8361 48.4189C83.8361 48.2109 83.9134 48.0386 84.0679 47.9021C84.2225 47.7656 84.4175 47.6974 84.653 47.6974H91.3208C91.5563 47.6974 91.7513 47.7656 91.9059 47.9021C92.0604 48.0386 92.1377 48.2109 92.1377 48.4189V50.9103C92.1377 51.1183 92.0604 51.2906 91.9059 51.4271C91.7513 51.5636 91.5563 51.6318 91.3208 51.6318H84.653C84.4175 51.6318 84.2225 51.5636 84.0679 51.4271C83.9134 51.2906 83.8361 51.1183 83.8361 50.9103V48.4189Z" fill="#D0D1D7"/><path d="M90.1535 48.4189C90.1535 48.2109 90.2308 48.0386 90.3854 47.9021C90.5399 47.7656 90.735 47.6974 90.9705 47.6974H97.6382C97.8738 47.6974 98.0688 47.7656 98.2233 47.9021C98.3779 48.0386 98.4552 48.2109 98.4552 48.4189V50.9103C98.4552 51.1183 98.3779 51.2906 98.2233 51.4271C98.0688 51.5636 97.8738 51.6318 97.6382 51.6318H90.9705C90.735 51.6318 90.5399 51.5636 90.3854 51.4271C90.2308 51.2906 90.1535 51.1183 90.1535 50.9103V48.4189Z" fill="#D0D1D7"/><path d="M96.471 48.4189C96.471 48.2109 96.5483 48.0386 96.7028 47.9021C96.8574 47.7656 97.0524 47.6974 97.2879 47.6974H103.956C104.191 47.6974 104.386 47.7656 104.541 47.9021C104.695 48.0386 104.773 48.2109 104.773 48.4189V50.9103C104.773 51.1183 104.695 51.2906 104.541 51.4271C104.386 51.5636 104.191 51.6318 103.956 51.6318H97.2879C97.0524 51.6318 96.8574 51.5636 96.7028 51.4271C96.5483 51.2906 96.471 51.1183 96.471 50.9103V48.4189Z" fill="#D0D1D7"/><path d="M102.788 48.4189C102.788 48.2109 102.866 48.0386 103.02 47.9021C103.175 47.7656 103.37 47.6974 103.605 47.6974H110.273C110.509 47.6974 110.704 47.7656 110.858 47.9021C111.013 48.0386 111.09 48.2109 111.09 48.4189V50.9103C111.09 51.1183 111.013 51.2906 110.858 51.4271C110.704 51.5636 110.509 51.6318 110.273 51.6318H103.605C103.37 51.6318 103.175 51.5636 103.02 51.4271C102.866 51.2906 102.788 51.1183 102.788 50.9103V48.4189Z" fill="#D0D1D7"/><path d="M109.106 48.4189C109.106 48.2109 109.183 48.0386 109.338 47.9021C109.492 47.7656 109.687 47.6974 109.923 47.6974H116.591C116.826 47.6974 117.021 47.7656 117.176 47.9021C117.33 48.0386 117.408 48.2109 117.408 48.4189V50.9103C117.408 51.1183 117.33 51.2906 117.176 51.4271C117.021 51.5636 116.826 51.6318 116.591 51.6318H109.923C109.687 51.6318 109.492 51.5636 109.338 51.4271C109.183 51.2906 109.106 51.1183 109.106 50.9103V48.4189Z" fill="#D0D1D7"/><path d="M115.423 48.4286C115.423 48.2206 115.501 48.0484 115.655 47.9119C115.81 47.7754 116.005 47.7071 116.24 47.7071H119.751C119.986 47.7071 120.181 47.7754 120.336 47.9119C120.49 48.0484 120.568 48.2206 120.568 48.4286V50.9103C120.568 51.1183 120.49 51.2906 120.336 51.4271C120.181 51.5636 119.986 51.6318 119.751 51.6318H116.24C116.005 51.6318 115.81 51.5636 115.655 51.4271C115.501 51.2906 115.423 51.1183 115.423 50.9103V48.4286Z" fill="#D0D1D7"/><rect x="196.271" y="31" width="26.7277" height="10.4911" rx="0.915179" fill="#0096CC"/><g clip-path="url(#clip3_2180_29258)"><path d="M202.219 35.2177C201.647 35.2177 201.192 35.6825 201.192 36.2455C201.192 36.8175 201.647 37.2733 202.219 37.2733C202.782 37.2733 203.247 36.8175 203.247 36.2455C203.247 35.6825 202.782 35.2177 202.219 35.2177ZM202.219 36.9158C201.853 36.9158 201.549 36.6209 201.549 36.2455C201.549 35.8791 201.844 35.5842 202.219 35.5842C202.586 35.5842 202.881 35.8791 202.881 36.2455C202.881 36.6209 202.586 36.9158 202.219 36.9158ZM203.524 35.182C203.524 35.0479 203.417 34.9407 203.283 34.9407C203.149 34.9407 203.042 35.0479 203.042 35.182C203.042 35.3161 203.149 35.4233 203.283 35.4233C203.417 35.4233 203.524 35.3161 203.524 35.182ZM204.203 35.4233C204.186 35.1016 204.114 34.8156 203.882 34.5832C203.649 34.3508 203.363 34.2793 203.042 34.2615C202.711 34.2436 201.719 34.2436 201.388 34.2615C201.066 34.2793 200.789 34.3508 200.548 34.5832C200.316 34.8156 200.244 35.1016 200.226 35.4233C200.208 35.754 200.208 36.746 200.226 37.0767C200.244 37.3984 200.316 37.6755 200.548 37.9168C200.789 38.1492 201.066 38.2207 201.388 38.2385C201.719 38.2564 202.711 38.2564 203.042 38.2385C203.363 38.2207 203.649 38.1492 203.882 37.9168C204.114 37.6755 204.186 37.3984 204.203 37.0767C204.221 36.746 204.221 35.754 204.203 35.4233ZM203.774 37.4253C203.712 37.604 203.569 37.7381 203.399 37.8096C203.131 37.9168 202.505 37.89 202.219 37.89C201.924 37.89 201.299 37.9168 201.04 37.8096C200.861 37.7381 200.727 37.604 200.655 37.4253C200.548 37.1661 200.575 36.5405 200.575 36.2455C200.575 35.9595 200.548 35.3339 200.655 35.0658C200.727 34.896 200.861 34.7619 201.04 34.6904C201.299 34.5832 201.924 34.61 202.219 34.61C202.505 34.61 203.131 34.5832 203.399 34.6904C203.569 34.753 203.703 34.896 203.774 35.0658C203.882 35.3339 203.855 35.9595 203.855 36.2455C203.855 36.5405 203.882 37.1661 203.774 37.4253Z" fill="white"/></g><path d="M206.625 37.7451H207.152V36.5093H208.361V36.0676H207.152V35.2778H208.488V34.836H206.625V37.7451ZM209.777 37.7877C210.417 37.7877 210.823 37.3374 210.823 36.6627C210.823 35.9866 210.417 35.5349 209.777 35.5349C209.138 35.5349 208.732 35.9866 208.732 36.6627C208.732 37.3374 209.138 37.7877 209.777 37.7877ZM209.78 37.3758C209.427 37.3758 209.253 37.0605 209.253 36.6613C209.253 36.2622 209.427 35.9426 209.78 35.9426C210.128 35.9426 210.302 36.2622 210.302 36.6613C210.302 37.0605 210.128 37.3758 209.78 37.3758ZM211.813 34.836H211.299V37.7451H211.813V34.836ZM212.896 34.836H212.382V37.7451H212.896V34.836ZM214.417 37.7877C215.056 37.7877 215.462 37.3374 215.462 36.6627C215.462 35.9866 215.056 35.5349 214.417 35.5349C213.778 35.5349 213.371 35.9866 213.371 36.6627C213.371 37.3374 213.778 37.7877 214.417 37.7877ZM214.42 37.3758C214.066 37.3758 213.893 37.0605 213.893 36.6613C213.893 36.2622 214.066 35.9426 214.42 35.9426C214.768 35.9426 214.941 36.2622 214.941 36.6613C214.941 37.0605 214.768 37.3758 214.42 37.3758ZM216.331 37.7451H216.867L217.277 36.2707H217.306L217.715 37.7451H218.251L218.869 35.5633H218.343L217.965 37.0889H217.944L217.552 35.5633H217.034L216.642 37.0974H216.622L216.238 35.5633H215.714L216.331 37.7451Z" fill="white"/></g></g><defs><filter id="filter0_ddd_2180_29258" x="16" y="12" width="231" height="190" filterUnits="userSpaceOnUse" color-interpolation-filters="sRGB"><feFlood flood-opacity="0" result="BackgroundImageFix"/><feColorMatrix in="SourceAlpha" type="matrix" values="0 0 0 0 0 0 0 0 0 0 0 0 0 0 0 0 0 0 127 0" result="hardAlpha"/><feOffset dy="6"/><feGaussianBlur stdDeviation="6.5"/><feColorMatrix type="matrix" values="0 0 0 0 0 0 0 0 0 0 0 0 0 0 0 0 0 0 0.03 0"/><feBlend mode="normal" in2="BackgroundImageFix" result="effect1_dropShadow_2180_29258"/><feColorMatrix in="SourceAlpha" type="matrix" values="0 0 0 0 0 0 0 0 0 0 0 0 0 0 0 0 0 0 127 0" result="hardAlpha"/><feOffset dy="1"/><feGaussianBlur stdDeviation="1"/><feColorMatrix type="matrix" values="0 0 0 0 0 0 0 0 0 0 0 0 0 0 0 0 0 0 0.11 0"/><feBlend mode="normal" in2="effect1_dropShadow_2180_29258" result="effect2_dropShadow_2180_29258"/><feColorMatrix in="SourceAlpha" type="matrix" values="0 0 0 0 0 0 0 0 0 0 0 0 0 0 0 0 0 0 127 0" result="hardAlpha"/><feOffset dy="3"/><feGaussianBlur stdDeviation="3"/><feColorMatrix type="matrix" values="0 0 0 0 0 0 0 0 0 0 0 0 0 0 0 0 0 0 0.04 0"/><feBlend mode="normal" in2="effect2_dropShadow_2180_29258" result="effect3_dropShadow_2180_29258"/><feBlend mode="normal" in="SourceGraphic" in2="effect3_dropShadow_2180_29258" result="shape"/></filter><clipPath id="clip0_2180_29258"><rect width="262.5" height="200" fill="white"/></clipPath><clipPath id="clip1_2180_29258"><rect width="183" height="106" fill="white" transform="translate(40 63)"/></clipPath><clipPath id="clip2_2180_29258"><rect width="183" height="136" fill="white" transform="translate(40 63)"/></clipPath><clipPath id="clip3_2180_29258"><rect width="4.57589" height="4.57589" fill="white" transform="translate(199.932 33.958)"/></clipPath></defs></svg>