<svg width="263" height="200" viewBox="0 0 263 200" fill="none" xmlns="http://www.w3.org/2000/svg"><g clip-path="url(#clip0_2180_29277)"><rect width="262.5" height="200" transform="translate(0.5)" fill="#F3F4F5"/><g filter="url(#filter0_ddd_2180_29277)"><rect x="30" y="19" width="205" height="164" rx="2" fill="white"/><g clip-path="url(#clip1_2180_29277)"><g clip-path="url(#clip2_2180_29277)"><rect width="183" height="136" transform="translate(41 63)" fill="#FFDF99"/><circle cx="198.018" cy="119.928" r="78.0178" fill="#FFD066"/></g></g><circle cx="115" cy="170" r="2" fill="#434960"/><circle cx="124" cy="170" r="2" fill="#D0D1D7"/><circle cx="133" cy="170" r="2" fill="#D0D1D7"/><circle cx="142" cy="170" r="2" fill="#D0D1D7"/><circle cx="151" cy="170" r="2" fill="#D0D1D7"/><circle cx="52.9821" cy="41.9821" r="10.9821" fill="#FFDF99"/><path d="M72.2012 33.146C72.2012 32.9114 72.2782 32.717 72.4322 32.563C72.5862 32.409 72.7805 32.332 73.0152 32.332H79.6592C79.8938 32.332 80.0882 32.409 80.2422 32.563C80.3962 32.717 80.4732 32.9114 80.4732 33.146V35.818C80.4732 36.0527 80.3962 36.247 80.2422 36.401C80.0882 36.555 79.8938 36.632 79.6592 36.632H73.0152C72.7805 36.632 72.5862 36.555 72.4322 36.401C72.2782 36.247 72.2012 36.0527 72.2012 35.818V33.146Z" fill="#8C8F9A"/><path d="M78.4961 33.146C78.4961 32.9114 78.5731 32.717 78.7271 32.563C78.8811 32.409 79.0754 32.332 79.3101 32.332H85.9541C86.1888 32.332 86.3831 32.409 86.5371 32.563C86.6911 32.717 86.7681 32.9114 86.7681 33.146V35.818C86.7681 36.0527 86.6911 36.247 86.5371 36.401C86.3831 36.555 86.1888 36.632 85.9541 36.632H79.3101C79.0754 36.632 78.8811 36.555 78.7271 36.401C78.5731 36.247 78.4961 36.0527 78.4961 35.818V33.146Z" fill="#8C8F9A"/><path d="M84.791 33.146C84.791 32.9114 84.868 32.717 85.022 32.563C85.176 32.409 85.3703 32.332 85.605 32.332H89.249C89.4837 32.332 89.678 32.409 89.832 32.563C89.986 32.717 90.063 32.9114 90.063 33.146V35.818C90.063 36.0527 89.986 36.247 89.832 36.401C89.678 36.555 89.4837 36.632 89.249 36.632H85.605C85.3703 36.632 85.176 36.555 85.022 36.401C84.868 36.247 84.791 36.0527 84.791 35.818V33.146Z" fill="#8C8F9A"/><path d="M88.0859 33.146C88.0859 32.9114 88.1629 32.717 88.3169 32.563C88.4709 32.409 88.6653 32.332 88.8999 32.332H95.5439C95.7786 32.332 95.9729 32.409 96.1269 32.563C96.2809 32.717 96.3579 32.9114 96.3579 33.146V35.818C96.3579 36.0527 96.2809 36.247 96.1269 36.401C95.9729 36.555 95.7786 36.632 95.5439 36.632H88.8999C88.6653 36.632 88.4709 36.555 88.3169 36.401C88.1629 36.247 88.0859 36.0527 88.0859 35.818V33.146Z" fill="#8C8F9A"/><path d="M94.3809 33.157C94.3809 32.9224 94.4579 32.728 94.6119 32.574C94.7659 32.42 94.9602 32.343 95.1949 32.343H98.6929C98.9275 32.343 99.1219 32.42 99.2759 32.574C99.4299 32.728 99.5069 32.9224 99.5069 33.157V35.818C99.5069 36.0527 99.4299 36.247 99.2759 36.401C99.1219 36.555 98.9275 36.632 98.6929 36.632H95.1949C94.9602 36.632 94.7659 36.555 94.6119 36.401C94.4579 36.247 94.3809 36.0527 94.3809 35.818V33.157Z" fill="#8C8F9A"/><path d="M97.5283 33.146C97.5283 32.9114 97.6053 32.717 97.7593 32.563C97.9133 32.409 98.1077 32.332 98.3423 32.332H104.986C105.221 32.332 105.415 32.409 105.569 32.563C105.723 32.717 105.8 32.9114 105.8 33.146V35.818C105.8 36.0527 105.723 36.247 105.569 36.401C105.415 36.555 105.221 36.632 104.986 36.632H98.3423C98.1077 36.632 97.9133 36.555 97.7593 36.401C97.6053 36.247 97.5283 36.0527 97.5283 35.818V33.146Z" fill="#8C8F9A"/><path d="M72.2012 41.3534C72.2012 41.1454 72.2784 40.9731 72.433 40.8366C72.5876 40.7001 72.7826 40.6318 73.0181 40.6318H79.6859C79.9214 40.6318 80.1164 40.7001 80.271 40.8366C80.4255 40.9731 80.5028 41.1454 80.5028 41.3534V43.8448C80.5028 44.0528 80.4255 44.2251 80.271 44.3616C80.1164 44.4981 79.9214 44.5663 79.6859 44.5663H73.0181C72.7826 44.5663 72.5876 44.4981 72.433 44.3616C72.2784 44.2251 72.2012 44.0528 72.2012 43.8448V41.3534Z" fill="#D0D1D7"/><path d="M78.5186 41.3534C78.5186 41.1454 78.5959 40.9731 78.7505 40.8366C78.905 40.7001 79.1 40.6318 79.3355 40.6318H86.0033C86.2388 40.6318 86.4339 40.7001 86.5884 40.8366C86.743 40.9731 86.8202 41.1454 86.8202 41.3534V43.8448C86.8202 44.0528 86.743 44.2251 86.5884 44.3616C86.4339 44.4981 86.2388 44.5663 86.0033 44.5663H79.3355C79.1 44.5663 78.905 44.4981 78.7505 44.3616C78.5959 44.2251 78.5186 44.0528 78.5186 43.8448V41.3534Z" fill="#D0D1D7"/><path d="M84.8361 41.3534C84.8361 41.1454 84.9134 40.9731 85.0679 40.8366C85.2225 40.7001 85.4175 40.6318 85.653 40.6318H92.3208C92.5563 40.6318 92.7513 40.7001 92.9059 40.8366C93.0604 40.9731 93.1377 41.1454 93.1377 41.3534V43.8448C93.1377 44.0528 93.0604 44.2251 92.9059 44.3616C92.7513 44.4981 92.5563 44.5663 92.3208 44.5663H85.653C85.4175 44.5663 85.2225 44.4981 85.0679 44.3616C84.9134 44.2251 84.8361 44.0528 84.8361 43.8448V41.3534Z" fill="#D0D1D7"/><path d="M91.1535 41.3534C91.1535 41.1454 91.2308 40.9731 91.3854 40.8366C91.5399 40.7001 91.735 40.6318 91.9705 40.6318H98.6382C98.8738 40.6318 99.0688 40.7001 99.2233 40.8366C99.3779 40.9731 99.4552 41.1454 99.4552 41.3534V43.8448C99.4552 44.0528 99.3779 44.2251 99.2233 44.3616C99.0688 44.4981 98.8738 44.5663 98.6382 44.5663H91.9705C91.735 44.5663 91.5399 44.4981 91.3854 44.3616C91.2308 44.2251 91.1535 44.0528 91.1535 43.8448V41.3534Z" fill="#D0D1D7"/><path d="M97.471 41.3631C97.471 41.1551 97.5483 40.9829 97.7028 40.8463C97.8574 40.7098 98.0524 40.6416 98.2879 40.6416H101.798C102.034 40.6416 102.229 40.7098 102.384 40.8463C102.538 40.9829 102.615 41.1551 102.615 41.3631V43.8448C102.615 44.0528 102.538 44.2251 102.384 44.3616C102.229 44.4981 102.034 44.5663 101.798 44.5663H98.2879C98.0524 44.5663 97.8574 44.4981 97.7028 44.3616C97.5483 44.2251 97.471 44.0528 97.471 43.8448V41.3631Z" fill="#D0D1D7"/><path d="M100.63 41.3631C100.63 41.1551 100.707 40.9829 100.862 40.8463C101.016 40.7098 101.211 40.6416 101.447 40.6416H104.957C105.193 40.6416 105.388 40.7098 105.542 40.8463C105.697 40.9829 105.774 41.1551 105.774 41.3631V43.8448C105.774 44.0528 105.697 44.2251 105.542 44.3616C105.388 44.4981 105.193 44.5663 104.957 44.5663H101.447C101.211 44.5663 101.016 44.4981 100.862 44.3616C100.707 44.2251 100.63 44.0528 100.63 43.8448V41.3631Z" fill="#D0D1D7"/><path d="M103.788 41.3534C103.788 41.1454 103.866 40.9731 104.02 40.8366C104.175 40.7001 104.37 40.6318 104.605 40.6318H111.273C111.509 40.6318 111.704 40.7001 111.858 40.8366C112.013 40.9731 112.09 41.1454 112.09 41.3534V43.8448C112.09 44.0528 112.013 44.2251 111.858 44.3616C111.704 44.4981 111.509 44.5663 111.273 44.5663H104.605C104.37 44.5663 104.175 44.4981 104.02 44.3616C103.866 44.2251 103.788 44.0528 103.788 43.8448V41.3534Z" fill="#D0D1D7"/><path d="M110.106 41.3631C110.106 41.1551 110.183 40.9829 110.338 40.8463C110.492 40.7098 110.687 40.6416 110.923 40.6416H114.433C114.669 40.6416 114.864 40.7098 115.018 40.8463C115.173 40.9829 115.25 41.1551 115.25 41.3631V43.8448C115.25 44.0528 115.173 44.2251 115.018 44.3616C114.864 44.4981 114.669 44.5663 114.433 44.5663H110.923C110.687 44.5663 110.492 44.4981 110.338 44.3616C110.183 44.2251 110.106 44.0528 110.106 43.8448V41.3631Z" fill="#D0D1D7"/><path d="M113.265 41.3534C113.265 41.1454 113.342 40.9731 113.496 40.8366C113.651 40.7001 113.846 40.6318 114.082 40.6318H120.749C120.985 40.6318 121.18 40.7001 121.334 40.8366C121.489 40.9731 121.566 41.1454 121.566 41.3534V43.8448C121.566 44.0528 121.489 44.2251 121.334 44.3616C121.18 44.4981 120.985 44.5663 120.749 44.5663H114.082C113.846 44.5663 113.651 44.4981 113.496 44.3616C113.342 44.2251 113.265 44.0528 113.265 43.8448V41.3534Z" fill="#D0D1D7"/><path d="M119.582 41.3534C119.582 41.1454 119.659 40.9731 119.814 40.8366C119.968 40.7001 120.164 40.6318 120.399 40.6318H127.067C127.302 40.6318 127.497 40.7001 127.652 40.8366C127.806 40.9731 127.884 41.1454 127.884 41.3534V43.8448C127.884 44.0528 127.806 44.2251 127.652 44.3616C127.497 44.4981 127.302 44.5663 127.067 44.5663H120.399C120.164 44.5663 119.968 44.4981 119.814 44.3616C119.659 44.2251 119.582 44.0528 119.582 43.8448V41.3534Z" fill="#D0D1D7"/><path d="M125.9 41.3534C125.9 41.1454 125.977 40.9731 126.131 40.8366C126.286 40.7001 126.481 40.6318 126.716 40.6318H133.384C133.62 40.6318 133.815 40.7001 133.969 40.8366C134.124 40.9731 134.201 41.1454 134.201 41.3534V43.8448C134.201 44.0528 134.124 44.2251 133.969 44.3616C133.815 44.4981 133.62 44.5663 133.384 44.5663H126.716C126.481 44.5663 126.286 44.4981 126.131 44.3616C125.977 44.2251 125.9 44.0528 125.9 43.8448V41.3534Z" fill="#D0D1D7"/><path d="M72.2012 48.4189C72.2012 48.2109 72.2784 48.0386 72.433 47.9021C72.5876 47.7656 72.7826 47.6974 73.0181 47.6974H79.6859C79.9214 47.6974 80.1164 47.7656 80.271 47.9021C80.4255 48.0386 80.5028 48.2109 80.5028 48.4189V50.9103C80.5028 51.1183 80.4255 51.2906 80.271 51.4271C80.1164 51.5636 79.9214 51.6318 79.6859 51.6318H73.0181C72.7826 51.6318 72.5876 51.5636 72.433 51.4271C72.2784 51.2906 72.2012 51.1183 72.2012 50.9103V48.4189Z" fill="#D0D1D7"/><path d="M78.5186 48.4189C78.5186 48.2109 78.5959 48.0386 78.7505 47.9021C78.905 47.7656 79.1 47.6974 79.3355 47.6974H86.0033C86.2388 47.6974 86.4339 47.7656 86.5884 47.9021C86.743 48.0386 86.8202 48.2109 86.8202 48.4189V50.9103C86.8202 51.1183 86.743 51.2906 86.5884 51.4271C86.4339 51.5636 86.2388 51.6318 86.0033 51.6318H79.3355C79.1 51.6318 78.905 51.5636 78.7505 51.4271C78.5959 51.2906 78.5186 51.1183 78.5186 50.9103V48.4189Z" fill="#D0D1D7"/><path d="M84.8361 48.4189C84.8361 48.2109 84.9134 48.0386 85.0679 47.9021C85.2225 47.7656 85.4175 47.6974 85.653 47.6974H92.3208C92.5563 47.6974 92.7513 47.7656 92.9059 47.9021C93.0604 48.0386 93.1377 48.2109 93.1377 48.4189V50.9103C93.1377 51.1183 93.0604 51.2906 92.9059 51.4271C92.7513 51.5636 92.5563 51.6318 92.3208 51.6318H85.653C85.4175 51.6318 85.2225 51.5636 85.0679 51.4271C84.9134 51.2906 84.8361 51.1183 84.8361 50.9103V48.4189Z" fill="#D0D1D7"/><path d="M91.1535 48.4189C91.1535 48.2109 91.2308 48.0386 91.3854 47.9021C91.5399 47.7656 91.735 47.6974 91.9705 47.6974H98.6382C98.8738 47.6974 99.0688 47.7656 99.2233 47.9021C99.3779 48.0386 99.4552 48.2109 99.4552 48.4189V50.9103C99.4552 51.1183 99.3779 51.2906 99.2233 51.4271C99.0688 51.5636 98.8738 51.6318 98.6382 51.6318H91.9705C91.735 51.6318 91.5399 51.5636 91.3854 51.4271C91.2308 51.2906 91.1535 51.1183 91.1535 50.9103V48.4189Z" fill="#D0D1D7"/><path d="M97.471 48.4189C97.471 48.2109 97.5483 48.0386 97.7028 47.9021C97.8574 47.7656 98.0524 47.6974 98.2879 47.6974H104.956C105.191 47.6974 105.386 47.7656 105.541 47.9021C105.695 48.0386 105.773 48.2109 105.773 48.4189V50.9103C105.773 51.1183 105.695 51.2906 105.541 51.4271C105.386 51.5636 105.191 51.6318 104.956 51.6318H98.2879C98.0524 51.6318 97.8574 51.5636 97.7028 51.4271C97.5483 51.2906 97.471 51.1183 97.471 50.9103V48.4189Z" fill="#D0D1D7"/><path d="M103.788 48.4189C103.788 48.2109 103.866 48.0386 104.02 47.9021C104.175 47.7656 104.37 47.6974 104.605 47.6974H111.273C111.509 47.6974 111.704 47.7656 111.858 47.9021C112.013 48.0386 112.09 48.2109 112.09 48.4189V50.9103C112.09 51.1183 112.013 51.2906 111.858 51.4271C111.704 51.5636 111.509 51.6318 111.273 51.6318H104.605C104.37 51.6318 104.175 51.5636 104.02 51.4271C103.866 51.2906 103.788 51.1183 103.788 50.9103V48.4189Z" fill="#D0D1D7"/><path d="M110.106 48.4189C110.106 48.2109 110.183 48.0386 110.338 47.9021C110.492 47.7656 110.687 47.6974 110.923 47.6974H117.591C117.826 47.6974 118.021 47.7656 118.176 47.9021C118.33 48.0386 118.408 48.2109 118.408 48.4189V50.9103C118.408 51.1183 118.33 51.2906 118.176 51.4271C118.021 51.5636 117.826 51.6318 117.591 51.6318H110.923C110.687 51.6318 110.492 51.5636 110.338 51.4271C110.183 51.2906 110.106 51.1183 110.106 50.9103V48.4189Z" fill="#D0D1D7"/><path d="M116.423 48.4286C116.423 48.2206 116.501 48.0484 116.655 47.9119C116.81 47.7754 117.005 47.7071 117.24 47.7071H120.751C120.986 47.7071 121.181 47.7754 121.336 47.9119C121.49 48.0484 121.568 48.2206 121.568 48.4286V50.9103C121.568 51.1183 121.49 51.2906 121.336 51.4271C121.181 51.5636 120.986 51.6318 120.751 51.6318H117.24C117.005 51.6318 116.81 51.5636 116.655 51.4271C116.501 51.2906 116.423 51.1183 116.423 50.9103V48.4286Z" fill="#D0D1D7"/><rect x="197.271" y="31" width="26.7277" height="10.4911" rx="0.915179" fill="#0096CC"/><g clip-path="url(#clip3_2180_29277)"><path d="M203.219 35.2177C202.647 35.2177 202.192 35.6825 202.192 36.2455C202.192 36.8175 202.647 37.2733 203.219 37.2733C203.782 37.2733 204.247 36.8175 204.247 36.2455C204.247 35.6825 203.782 35.2177 203.219 35.2177ZM203.219 36.9158C202.853 36.9158 202.549 36.6209 202.549 36.2455C202.549 35.8791 202.844 35.5842 203.219 35.5842C203.586 35.5842 203.881 35.8791 203.881 36.2455C203.881 36.6209 203.586 36.9158 203.219 36.9158ZM204.524 35.182C204.524 35.0479 204.417 34.9407 204.283 34.9407C204.149 34.9407 204.042 35.0479 204.042 35.182C204.042 35.3161 204.149 35.4233 204.283 35.4233C204.417 35.4233 204.524 35.3161 204.524 35.182ZM205.203 35.4233C205.186 35.1016 205.114 34.8156 204.882 34.5832C204.649 34.3508 204.363 34.2793 204.042 34.2615C203.711 34.2436 202.719 34.2436 202.388 34.2615C202.066 34.2793 201.789 34.3508 201.548 34.5832C201.316 34.8156 201.244 35.1016 201.226 35.4233C201.208 35.754 201.208 36.746 201.226 37.0767C201.244 37.3984 201.316 37.6755 201.548 37.9168C201.789 38.1492 202.066 38.2207 202.388 38.2385C202.719 38.2564 203.711 38.2564 204.042 38.2385C204.363 38.2207 204.649 38.1492 204.882 37.9168C205.114 37.6755 205.186 37.3984 205.203 37.0767C205.221 36.746 205.221 35.754 205.203 35.4233ZM204.774 37.4253C204.712 37.604 204.569 37.7381 204.399 37.8096C204.131 37.9168 203.505 37.89 203.219 37.89C202.924 37.89 202.299 37.9168 202.04 37.8096C201.861 37.7381 201.727 37.604 201.655 37.4253C201.548 37.1661 201.575 36.5405 201.575 36.2455C201.575 35.9595 201.548 35.3339 201.655 35.0658C201.727 34.896 201.861 34.7619 202.04 34.6904C202.299 34.5832 202.924 34.61 203.219 34.61C203.505 34.61 204.131 34.5832 204.399 34.6904C204.569 34.753 204.703 34.896 204.774 35.0658C204.882 35.3339 204.855 35.9595 204.855 36.2455C204.855 36.5405 204.882 37.1661 204.774 37.4253Z" fill="white"/></g><path d="M207.625 37.7451H208.152V36.5093H209.361V36.0676H208.152V35.2778H209.488V34.836H207.625V37.7451ZM210.777 37.7877C211.417 37.7877 211.823 37.3374 211.823 36.6627C211.823 35.9866 211.417 35.5349 210.777 35.5349C210.138 35.5349 209.732 35.9866 209.732 36.6627C209.732 37.3374 210.138 37.7877 210.777 37.7877ZM210.78 37.3758C210.427 37.3758 210.253 37.0605 210.253 36.6613C210.253 36.2622 210.427 35.9426 210.78 35.9426C211.128 35.9426 211.302 36.2622 211.302 36.6613C211.302 37.0605 211.128 37.3758 210.78 37.3758ZM212.813 34.836H212.299V37.7451H212.813V34.836ZM213.896 34.836H213.382V37.7451H213.896V34.836ZM215.417 37.7877C216.056 37.7877 216.462 37.3374 216.462 36.6627C216.462 35.9866 216.056 35.5349 215.417 35.5349C214.778 35.5349 214.371 35.9866 214.371 36.6627C214.371 37.3374 214.778 37.7877 215.417 37.7877ZM215.42 37.3758C215.066 37.3758 214.893 37.0605 214.893 36.6613C214.893 36.2622 215.066 35.9426 215.42 35.9426C215.768 35.9426 215.941 36.2622 215.941 36.6613C215.941 37.0605 215.768 37.3758 215.42 37.3758ZM217.331 37.7451H217.867L218.277 36.2707H218.306L218.715 37.7451H219.251L219.869 35.5633H219.343L218.965 37.0889H218.944L218.552 35.5633H218.034L217.642 37.0974H217.622L217.238 35.5633H216.714L217.331 37.7451Z" fill="white"/></g></g><defs><filter id="filter0_ddd_2180_29277" x="17" y="12" width="231" height="190" filterUnits="userSpaceOnUse" color-interpolation-filters="sRGB"><feFlood flood-opacity="0" result="BackgroundImageFix"/><feColorMatrix in="SourceAlpha" type="matrix" values="0 0 0 0 0 0 0 0 0 0 0 0 0 0 0 0 0 0 127 0" result="hardAlpha"/><feOffset dy="6"/><feGaussianBlur stdDeviation="6.5"/><feColorMatrix type="matrix" values="0 0 0 0 0 0 0 0 0 0 0 0 0 0 0 0 0 0 0.03 0"/><feBlend mode="normal" in2="BackgroundImageFix" result="effect1_dropShadow_2180_29277"/><feColorMatrix in="SourceAlpha" type="matrix" values="0 0 0 0 0 0 0 0 0 0 0 0 0 0 0 0 0 0 127 0" result="hardAlpha"/><feOffset dy="1"/><feGaussianBlur stdDeviation="1"/><feColorMatrix type="matrix" values="0 0 0 0 0 0 0 0 0 0 0 0 0 0 0 0 0 0 0.11 0"/><feBlend mode="normal" in2="effect1_dropShadow_2180_29277" result="effect2_dropShadow_2180_29277"/><feColorMatrix in="SourceAlpha" type="matrix" values="0 0 0 0 0 0 0 0 0 0 0 0 0 0 0 0 0 0 127 0" result="hardAlpha"/><feOffset dy="3"/><feGaussianBlur stdDeviation="3"/><feColorMatrix type="matrix" values="0 0 0 0 0 0 0 0 0 0 0 0 0 0 0 0 0 0 0.04 0"/><feBlend mode="normal" in2="effect2_dropShadow_2180_29277" result="effect3_dropShadow_2180_29277"/><feBlend mode="normal" in="SourceGraphic" in2="effect3_dropShadow_2180_29277" result="shape"/></filter><clipPath id="clip0_2180_29277"><rect width="262.5" height="200" fill="white" transform="translate(0.5)"/></clipPath><clipPath id="clip1_2180_29277"><rect width="183" height="96" fill="white" transform="translate(41 63)"/></clipPath><clipPath id="clip2_2180_29277"><rect width="183" height="136" fill="white" transform="translate(41 63)"/></clipPath><clipPath id="clip3_2180_29277"><rect width="4.57589" height="4.57589" fill="white" transform="translate(200.932 33.958)"/></clipPath></defs></svg>